%TF.GenerationSoftware,KiCad,Pcbnew,7.0.7-7.0.7~ubuntu22.04.1*%
%TF.CreationDate,2023-09-11T18:28:41+01:00*%
%TF.ProjectId,Blinder,426c696e-6465-4722-9e6b-696361645f70,rev?*%
%TF.SameCoordinates,Original*%
%TF.FileFunction,Soldermask,Bot*%
%TF.FilePolarity,Negative*%
%FSLAX46Y46*%
G04 Gerber Fmt 4.6, Leading zero omitted, Abs format (unit mm)*
G04 Created by KiCad (PCBNEW 7.0.7-7.0.7~ubuntu22.04.1) date 2023-09-11 18:28:41*
%MOMM*%
%LPD*%
G01*
G04 APERTURE LIST*
G04 Aperture macros list*
%AMRoundRect*
0 Rectangle with rounded corners*
0 $1 Rounding radius*
0 $2 $3 $4 $5 $6 $7 $8 $9 X,Y pos of 4 corners*
0 Add a 4 corners polygon primitive as box body*
4,1,4,$2,$3,$4,$5,$6,$7,$8,$9,$2,$3,0*
0 Add four circle primitives for the rounded corners*
1,1,$1+$1,$2,$3*
1,1,$1+$1,$4,$5*
1,1,$1+$1,$6,$7*
1,1,$1+$1,$8,$9*
0 Add four rect primitives between the rounded corners*
20,1,$1+$1,$2,$3,$4,$5,0*
20,1,$1+$1,$4,$5,$6,$7,0*
20,1,$1+$1,$6,$7,$8,$9,0*
20,1,$1+$1,$8,$9,$2,$3,0*%
G04 Aperture macros list end*
%ADD10R,1.800000X1.800000*%
%ADD11C,1.800000*%
%ADD12O,2.004000X3.804000*%
%ADD13C,3.200000*%
%ADD14RoundRect,0.250000X-0.350000X-0.625000X0.350000X-0.625000X0.350000X0.625000X-0.350000X0.625000X0*%
%ADD15O,1.200000X1.750000*%
%ADD16C,2.100000*%
%ADD17C,1.750000*%
%ADD18O,1.700000X1.700000*%
%ADD19R,1.700000X1.700000*%
%ADD20O,2.190000X1.740000*%
%ADD21RoundRect,0.250000X-0.845000X0.620000X-0.845000X-0.620000X0.845000X-0.620000X0.845000X0.620000X0*%
%ADD22C,1.524000*%
%ADD23C,0.600000*%
G04 APERTURE END LIST*
D10*
%TO.C,D1*%
X74000000Y-24000000D03*
D11*
X71460000Y-24000000D03*
%TD*%
D12*
%TO.C,IC1*%
X37220000Y-53650000D03*
X38920000Y-58730000D03*
X40620000Y-53650000D03*
X42320000Y-58730000D03*
X44020000Y-53650000D03*
X45720000Y-58730000D03*
X47420000Y-53650000D03*
X49120000Y-58730000D03*
X50820000Y-53650000D03*
X52520000Y-58730000D03*
X54220000Y-53650000D03*
%TD*%
D13*
%TO.C,REF\u002A\u002A*%
X62000000Y-56000000D03*
%TD*%
D14*
%TO.C,J5*%
X51340000Y-48260000D03*
D15*
X53340000Y-48260000D03*
%TD*%
D16*
%TO.C,SW2*%
X48950000Y-24490000D03*
X55960000Y-24490000D03*
D17*
X50200000Y-22000000D03*
X54700000Y-22000000D03*
%TD*%
D15*
%TO.C,J3*%
X63000000Y-48980000D03*
X61000000Y-48980000D03*
D14*
X59000000Y-48980000D03*
%TD*%
D18*
%TO.C,J2*%
X52000000Y-43180000D03*
X52000000Y-40640000D03*
X52000000Y-38100000D03*
X52000000Y-35560000D03*
X52000000Y-33020000D03*
D19*
X52000000Y-30480000D03*
%TD*%
D15*
%TO.C,J4*%
X73000000Y-49000000D03*
X71000000Y-49000000D03*
D14*
X69000000Y-49000000D03*
%TD*%
D20*
%TO.C,J1*%
X39370000Y-45720000D03*
D21*
X39370000Y-43180000D03*
%TD*%
D22*
%TO.C,U1*%
X38100000Y-38100000D03*
X40640000Y-38100000D03*
X43180000Y-38100000D03*
X45720000Y-38100000D03*
%TD*%
D17*
%TO.C,SW1*%
X64894220Y-22001721D03*
X60394220Y-22001721D03*
D16*
X66154220Y-24491721D03*
X59144220Y-24491721D03*
%TD*%
D23*
X71120000Y-26670000D03*
X62168000Y-31688000D03*
X51308000Y-26416000D03*
X69469000Y-26451500D03*
X74168000Y-33020000D03*
X66167000Y-42164000D03*
X72136000Y-38989000D03*
X74168000Y-40386000D03*
X56896000Y-28067000D03*
X68199000Y-41529000D03*
X57150000Y-57531000D03*
X57150000Y-62103000D03*
M02*
