M48
; DRILL file {KiCad 7.0.7-7.0.7~ubuntu22.04.1} date Mon 11 Sep 2023 18:28:59 BST
; FORMAT={-:-/ absolute / inch / decimal}
; #@! TF.CreationDate,2023-09-11T18:28:59+01:00
; #@! TF.GenerationSoftware,Kicad,Pcbnew,7.0.7-7.0.7~ubuntu22.04.1
; #@! TF.FileFunction,Plated,1,4,PTH
FMAT,2
INCH
; #@! TA.AperFunction,Plated,PTH,ViaDrill
T1C0.0118
; #@! TA.AperFunction,Plated,PTH,ComponentDrill
T2C0.0295
; #@! TA.AperFunction,Plated,PTH,ComponentDrill
T3C0.0300
; #@! TA.AperFunction,Plated,PTH,ComponentDrill
T4C0.0354
; #@! TA.AperFunction,Plated,PTH,ComponentDrill
T5C0.0390
; #@! TA.AperFunction,Plated,PTH,ComponentDrill
T6C0.0394
; #@! TA.AperFunction,Plated,PTH,ComponentDrill
T7C0.0469
; #@! TA.AperFunction,Plated,PTH,ComponentDrill
T8C0.0472
; #@! TA.AperFunction,Plated,PTH,ComponentDrill
T9C0.0512
%
G90
G05
T1
X2.02Y-1.04
X2.24Y-1.105
X2.25Y-2.265
X2.25Y-2.445
X2.4476Y-1.2476
X2.605Y-1.66
X2.685Y-1.635
X2.735Y-1.0414
X2.8Y-1.05
X2.84Y-1.535
X2.92Y-1.3
X2.92Y-1.59
T2
X2.0213Y-1.9
X2.1Y-1.9
X2.3228Y-1.9283
X2.4016Y-1.9283
X2.4803Y-1.9283
X2.7165Y-1.9291
X2.7953Y-1.9291
X2.874Y-1.9291
T3
X1.5Y-1.5
X1.6Y-1.5
X1.7Y-1.5
X1.8Y-1.5
T4
X2.8134Y-0.9449
X2.9134Y-0.9449
T5
X1.9764Y-0.8661
X2.1535Y-0.8661
X2.3777Y-0.8662
X2.5549Y-0.8662
T6
X2.0472Y-1.2
X2.0472Y-1.3
X2.0472Y-1.4
X2.0472Y-1.5
X2.0472Y-1.6
X2.0472Y-1.7
T7
X1.55Y-1.7
X1.55Y-1.8
T8
X1.4654Y-2.1122
X1.5323Y-2.3122
X1.5992Y-2.1122
X1.6661Y-2.3122
X1.7331Y-2.1122
X1.8Y-2.3122
X1.8669Y-2.1122
X1.9339Y-2.3122
X2.0008Y-2.1122
X2.0677Y-2.3122
X2.1346Y-2.1122
T9
X1.9272Y-0.9642
X2.2031Y-0.9642
X2.3285Y-0.9642
X2.6045Y-0.9642
T0
M30
