%TF.GenerationSoftware,KiCad,Pcbnew,7.0.7-7.0.7~ubuntu22.04.1*%
%TF.CreationDate,2023-09-11T18:28:41+01:00*%
%TF.ProjectId,Blinder,426c696e-6465-4722-9e6b-696361645f70,rev?*%
%TF.SameCoordinates,Original*%
%TF.FileFunction,Copper,L2,Inr*%
%TF.FilePolarity,Positive*%
%FSLAX46Y46*%
G04 Gerber Fmt 4.6, Leading zero omitted, Abs format (unit mm)*
G04 Created by KiCad (PCBNEW 7.0.7-7.0.7~ubuntu22.04.1) date 2023-09-11 18:28:41*
%MOMM*%
%LPD*%
G01*
G04 APERTURE LIST*
G04 Aperture macros list*
%AMRoundRect*
0 Rectangle with rounded corners*
0 $1 Rounding radius*
0 $2 $3 $4 $5 $6 $7 $8 $9 X,Y pos of 4 corners*
0 Add a 4 corners polygon primitive as box body*
4,1,4,$2,$3,$4,$5,$6,$7,$8,$9,$2,$3,0*
0 Add four circle primitives for the rounded corners*
1,1,$1+$1,$2,$3*
1,1,$1+$1,$4,$5*
1,1,$1+$1,$6,$7*
1,1,$1+$1,$8,$9*
0 Add four rect primitives between the rounded corners*
20,1,$1+$1,$2,$3,$4,$5,0*
20,1,$1+$1,$4,$5,$6,$7,0*
20,1,$1+$1,$6,$7,$8,$9,0*
20,1,$1+$1,$8,$9,$2,$3,0*%
G04 Aperture macros list end*
%TA.AperFunction,ComponentPad*%
%ADD10R,1.800000X1.800000*%
%TD*%
%TA.AperFunction,ComponentPad*%
%ADD11C,1.800000*%
%TD*%
%TA.AperFunction,ComponentPad*%
%ADD12O,1.800000X3.600000*%
%TD*%
%TA.AperFunction,ComponentPad*%
%ADD13RoundRect,0.250000X-0.350000X-0.625000X0.350000X-0.625000X0.350000X0.625000X-0.350000X0.625000X0*%
%TD*%
%TA.AperFunction,ComponentPad*%
%ADD14O,1.200000X1.750000*%
%TD*%
%TA.AperFunction,ComponentPad*%
%ADD15C,2.100000*%
%TD*%
%TA.AperFunction,ComponentPad*%
%ADD16C,1.750000*%
%TD*%
%TA.AperFunction,ComponentPad*%
%ADD17O,1.700000X1.700000*%
%TD*%
%TA.AperFunction,ComponentPad*%
%ADD18R,1.700000X1.700000*%
%TD*%
%TA.AperFunction,ComponentPad*%
%ADD19O,2.190000X1.740000*%
%TD*%
%TA.AperFunction,ComponentPad*%
%ADD20RoundRect,0.250000X-0.845000X0.620000X-0.845000X-0.620000X0.845000X-0.620000X0.845000X0.620000X0*%
%TD*%
%TA.AperFunction,ComponentPad*%
%ADD21C,1.524000*%
%TD*%
%TA.AperFunction,ViaPad*%
%ADD22C,0.600000*%
%TD*%
%TA.AperFunction,Conductor*%
%ADD23C,0.500000*%
%TD*%
G04 APERTURE END LIST*
D10*
%TO.N,GND*%
%TO.C,D1*%
X74000000Y-24000000D03*
D11*
%TO.N,Net-(D1-A)*%
X71460000Y-24000000D03*
%TD*%
D12*
%TO.N,Net-(IC1-ENABLE)*%
%TO.C,IC1*%
X37220000Y-53650000D03*
%TO.N,GND*%
X38920000Y-58730000D03*
%TO.N,Net-(IC1-VREF)*%
X40620000Y-53650000D03*
%TO.N,Net-(IC1-CBOOT2)*%
X42320000Y-58730000D03*
%TO.N,Net-(IC1-IN2)*%
X44020000Y-53650000D03*
%TO.N,GND*%
X45720000Y-58730000D03*
%TO.N,Net-(IC1-IN1)*%
X47420000Y-53650000D03*
%TO.N,Net-(IC1-CBOOT1)*%
X49120000Y-58730000D03*
%TO.N,Net-(IC1-OUT1)*%
X50820000Y-53650000D03*
%TO.N,/12V*%
X52520000Y-58730000D03*
%TO.N,Net-(IC1-OUT2)*%
X54220000Y-53650000D03*
%TD*%
D13*
%TO.N,Net-(IC1-OUT1)*%
%TO.C,J5*%
X51340000Y-48260000D03*
D14*
%TO.N,Net-(IC1-OUT2)*%
X53340000Y-48260000D03*
%TD*%
D15*
%TO.N,*%
%TO.C,SW2*%
X48950000Y-24490000D03*
X55960000Y-24490000D03*
D16*
%TO.N,GND*%
X50200000Y-22000000D03*
%TO.N,Net-(U2-GPIO12)*%
X54700000Y-22000000D03*
%TD*%
D14*
%TO.N,Net-(IC1-IN1)*%
%TO.C,J3*%
X63000000Y-48980000D03*
%TO.N,/GO DOWN*%
X61000000Y-48980000D03*
D13*
%TO.N,/~{CLOSED}*%
X59000000Y-48980000D03*
%TD*%
D17*
%TO.N,GND*%
%TO.C,J2*%
X52000000Y-43180000D03*
%TO.N,/DTR*%
X52000000Y-40640000D03*
%TO.N,/RXD*%
X52000000Y-38100000D03*
%TO.N,/TXD*%
X52000000Y-35560000D03*
%TO.N,/RTS*%
X52000000Y-33020000D03*
D18*
%TO.N,/3V3*%
X52000000Y-30480000D03*
%TD*%
D14*
%TO.N,Net-(IC1-IN2)*%
%TO.C,J4*%
X73000000Y-49000000D03*
%TO.N,/GO UP*%
X71000000Y-49000000D03*
D13*
%TO.N,/~{OPEN}*%
X69000000Y-49000000D03*
%TD*%
D19*
%TO.N,GND*%
%TO.C,J1*%
X39370000Y-45720000D03*
D20*
%TO.N,/12V*%
X39370000Y-43180000D03*
%TD*%
D21*
%TO.N,unconnected-(U1-EN-Pad1)*%
%TO.C,U1*%
X38100000Y-38100000D03*
%TO.N,/12V*%
X40640000Y-38100000D03*
%TO.N,GND*%
X43180000Y-38100000D03*
%TO.N,/3V3*%
X45720000Y-38100000D03*
%TD*%
D16*
%TO.N,Net-(U2-GPIO14)*%
%TO.C,SW1*%
X64894220Y-22001721D03*
%TO.N,GND*%
X60394220Y-22001721D03*
D15*
%TO.N,*%
X66154220Y-24491721D03*
X59144220Y-24491721D03*
%TD*%
D22*
%TO.N,Net-(U2-GPIO13)*%
X71120000Y-26670000D03*
X62168000Y-31688000D03*
%TO.N,Net-(U2-EN)*%
X51308000Y-26416000D03*
X69469000Y-26451500D03*
%TO.N,/RTS*%
X74168000Y-33020000D03*
%TO.N,Net-(IC1-ENABLE)*%
X66167000Y-42164000D03*
%TO.N,/TXD*%
X72136000Y-38989000D03*
%TO.N,/RXD*%
X74168000Y-40386000D03*
%TO.N,GND*%
X56896000Y-28067000D03*
%TO.N,/~{OPEN}*%
X68199000Y-41529000D03*
%TO.N,/12V*%
X57150000Y-57531000D03*
%TO.N,GND*%
X57150000Y-62103000D03*
%TD*%
D23*
%TO.N,GND*%
X60394220Y-22001721D02*
X58458499Y-20066000D01*
X58458499Y-20066000D02*
X52134000Y-20066000D01*
X52134000Y-20066000D02*
X50200000Y-22000000D01*
X65278000Y-27051000D02*
X65051000Y-27051000D01*
X65051000Y-27051000D02*
X60394220Y-22394220D01*
X60394220Y-22394220D02*
X60394220Y-22001721D01*
X74000000Y-24000000D02*
X74000000Y-25568000D01*
X74000000Y-25568000D02*
X71568000Y-28000000D01*
X71568000Y-28000000D02*
X66227000Y-28000000D01*
X66227000Y-28000000D02*
X65278000Y-27051000D01*
X49155000Y-20955000D02*
X50200000Y-22000000D01*
X41783000Y-36703000D02*
X41783000Y-27813000D01*
X43180000Y-38100000D02*
X41783000Y-36703000D01*
X41783000Y-27813000D02*
X48641000Y-20955000D01*
X48641000Y-20955000D02*
X49155000Y-20955000D01*
X56896000Y-28067000D02*
X57912000Y-27051000D01*
X57912000Y-27051000D02*
X65278000Y-27051000D01*
X43180000Y-38100000D02*
X42037000Y-39243000D01*
X42037000Y-44958000D02*
X41275000Y-45720000D01*
X42037000Y-39243000D02*
X42037000Y-44958000D01*
X41275000Y-45720000D02*
X39370000Y-45720000D01*
X43180000Y-38100000D02*
X48260000Y-43180000D01*
X48260000Y-43180000D02*
X52000000Y-43180000D01*
X38920000Y-58730000D02*
X42293000Y-62103000D01*
X42293000Y-62103000D02*
X57150000Y-62103000D01*
X39370000Y-45720000D02*
X39370000Y-50673000D01*
X39370000Y-50673000D02*
X38920000Y-51123000D01*
X38920000Y-51123000D02*
X38920000Y-58730000D01*
%TD*%
%TA.AperFunction,Conductor*%
%TO.N,GND*%
G36*
X74002208Y-19500657D02*
G01*
X74204561Y-19515130D01*
X74222063Y-19517647D01*
X74413797Y-19559355D01*
X74430755Y-19564334D01*
X74614609Y-19632909D01*
X74630701Y-19640259D01*
X74802904Y-19734288D01*
X74817784Y-19743849D01*
X74950312Y-19843059D01*
X74992182Y-19898992D01*
X75000000Y-19942325D01*
X75000000Y-22476000D01*
X74980315Y-22543039D01*
X74927511Y-22588794D01*
X74876000Y-22600000D01*
X74250000Y-22600000D01*
X74250000Y-23438178D01*
X74230315Y-23505217D01*
X74177511Y-23550972D01*
X74108353Y-23560916D01*
X74089454Y-23556670D01*
X74067829Y-23550000D01*
X74067827Y-23550000D01*
X73966276Y-23550000D01*
X73966268Y-23550000D01*
X73892481Y-23561122D01*
X73823256Y-23551649D01*
X73770143Y-23506254D01*
X73750003Y-23439350D01*
X73750000Y-23438507D01*
X73750000Y-22600000D01*
X73052155Y-22600000D01*
X72992627Y-22606401D01*
X72992620Y-22606403D01*
X72857913Y-22656645D01*
X72857906Y-22656649D01*
X72742812Y-22742809D01*
X72742809Y-22742812D01*
X72656649Y-22857906D01*
X72656646Y-22857911D01*
X72627924Y-22934920D01*
X72586052Y-22990853D01*
X72520588Y-23015270D01*
X72452315Y-23000418D01*
X72420514Y-22975571D01*
X72411784Y-22966087D01*
X72411779Y-22966083D01*
X72411777Y-22966081D01*
X72228634Y-22823535D01*
X72228628Y-22823531D01*
X72024504Y-22713064D01*
X72024495Y-22713061D01*
X71804984Y-22637702D01*
X71617404Y-22606401D01*
X71576049Y-22599500D01*
X71343951Y-22599500D01*
X71302596Y-22606401D01*
X71115015Y-22637702D01*
X70895504Y-22713061D01*
X70895495Y-22713064D01*
X70691371Y-22823531D01*
X70691365Y-22823535D01*
X70508222Y-22966081D01*
X70508219Y-22966084D01*
X70508216Y-22966086D01*
X70508216Y-22966087D01*
X70476612Y-23000418D01*
X70351016Y-23136852D01*
X70224075Y-23331151D01*
X70130842Y-23543699D01*
X70073866Y-23768691D01*
X70073864Y-23768702D01*
X70054700Y-23999993D01*
X70054700Y-24000006D01*
X70073864Y-24231297D01*
X70073866Y-24231308D01*
X70130842Y-24456300D01*
X70224075Y-24668848D01*
X70351016Y-24863147D01*
X70351019Y-24863151D01*
X70351021Y-24863153D01*
X70508216Y-25033913D01*
X70508219Y-25033915D01*
X70508222Y-25033918D01*
X70691365Y-25176464D01*
X70691371Y-25176468D01*
X70691374Y-25176470D01*
X70895497Y-25286936D01*
X71009487Y-25326068D01*
X71115015Y-25362297D01*
X71115017Y-25362297D01*
X71115019Y-25362298D01*
X71343951Y-25400500D01*
X71343952Y-25400500D01*
X71576048Y-25400500D01*
X71576049Y-25400500D01*
X71804981Y-25362298D01*
X72024503Y-25286936D01*
X72228626Y-25176470D01*
X72411784Y-25033913D01*
X72420511Y-25024432D01*
X72480394Y-24988441D01*
X72550232Y-24990538D01*
X72607850Y-25030060D01*
X72627924Y-25065080D01*
X72656645Y-25142086D01*
X72656649Y-25142093D01*
X72742809Y-25257187D01*
X72742812Y-25257190D01*
X72857906Y-25343350D01*
X72857913Y-25343354D01*
X72992620Y-25393596D01*
X72992627Y-25393598D01*
X73052155Y-25399999D01*
X73052172Y-25400000D01*
X73750000Y-25400000D01*
X73750000Y-24561821D01*
X73769685Y-24494782D01*
X73822489Y-24449027D01*
X73891647Y-24439083D01*
X73910547Y-24443329D01*
X73932173Y-24450000D01*
X74033723Y-24450000D01*
X74033724Y-24450000D01*
X74107519Y-24438877D01*
X74176742Y-24448350D01*
X74229857Y-24493744D01*
X74249997Y-24560648D01*
X74250000Y-24561492D01*
X74250000Y-25400000D01*
X74876000Y-25400000D01*
X74943039Y-25419685D01*
X74988794Y-25472489D01*
X75000000Y-25524000D01*
X75000000Y-32420559D01*
X74980315Y-32487598D01*
X74927511Y-32533353D01*
X74858353Y-32543297D01*
X74794797Y-32514272D01*
X74788319Y-32508241D01*
X74753446Y-32473368D01*
X74670262Y-32390184D01*
X74593847Y-32342169D01*
X74517523Y-32294211D01*
X74347254Y-32234631D01*
X74347249Y-32234630D01*
X74168004Y-32214435D01*
X74167996Y-32214435D01*
X73988750Y-32234630D01*
X73988745Y-32234631D01*
X73818476Y-32294211D01*
X73665737Y-32390184D01*
X73538184Y-32517737D01*
X73442211Y-32670476D01*
X73382631Y-32840745D01*
X73382630Y-32840750D01*
X73362435Y-33019996D01*
X73362435Y-33020003D01*
X73382630Y-33199249D01*
X73382631Y-33199254D01*
X73442211Y-33369523D01*
X73513931Y-33483664D01*
X73538184Y-33522262D01*
X73665738Y-33649816D01*
X73818478Y-33745789D01*
X73988744Y-33805368D01*
X73988745Y-33805368D01*
X73988750Y-33805369D01*
X74167996Y-33825565D01*
X74168000Y-33825565D01*
X74168004Y-33825565D01*
X74347249Y-33805369D01*
X74347252Y-33805368D01*
X74347255Y-33805368D01*
X74517522Y-33745789D01*
X74670262Y-33649816D01*
X74788322Y-33531755D01*
X74849641Y-33498273D01*
X74919333Y-33503257D01*
X74975267Y-33545128D01*
X74999684Y-33610592D01*
X75000000Y-33619439D01*
X75000000Y-39786560D01*
X74980315Y-39853599D01*
X74927511Y-39899354D01*
X74858353Y-39909298D01*
X74794797Y-39880273D01*
X74788319Y-39874241D01*
X74670262Y-39756184D01*
X74517523Y-39660211D01*
X74347254Y-39600631D01*
X74347249Y-39600630D01*
X74168004Y-39580435D01*
X74167996Y-39580435D01*
X73988750Y-39600630D01*
X73988745Y-39600631D01*
X73818476Y-39660211D01*
X73665737Y-39756184D01*
X73538184Y-39883737D01*
X73442211Y-40036476D01*
X73382631Y-40206745D01*
X73382630Y-40206750D01*
X73362435Y-40385996D01*
X73362435Y-40386003D01*
X73382630Y-40565249D01*
X73382631Y-40565254D01*
X73442211Y-40735523D01*
X73484743Y-40803211D01*
X73538184Y-40888262D01*
X73665738Y-41015816D01*
X73756080Y-41072582D01*
X73805545Y-41103663D01*
X73818478Y-41111789D01*
X73988744Y-41171367D01*
X73988745Y-41171368D01*
X73988750Y-41171369D01*
X74167996Y-41191565D01*
X74168000Y-41191565D01*
X74168004Y-41191565D01*
X74347249Y-41171369D01*
X74347252Y-41171368D01*
X74347255Y-41171368D01*
X74517522Y-41111789D01*
X74670262Y-41015816D01*
X74788319Y-40897759D01*
X74849642Y-40864274D01*
X74919334Y-40869258D01*
X74975267Y-40911130D01*
X74999684Y-40976594D01*
X75000000Y-40985440D01*
X75000000Y-52375500D01*
X74980315Y-52442539D01*
X74927511Y-52488294D01*
X74876000Y-52499500D01*
X67848746Y-52499500D01*
X67742021Y-52512459D01*
X67548449Y-52535963D01*
X67399459Y-52572685D01*
X67254728Y-52608358D01*
X66971886Y-52715627D01*
X66777219Y-52817797D01*
X66719593Y-52832000D01*
X66167000Y-52832000D01*
X66160595Y-53260274D01*
X66139910Y-53327012D01*
X66129424Y-53340647D01*
X66028052Y-53455072D01*
X66028047Y-53455078D01*
X65856212Y-53704026D01*
X65856206Y-53704035D01*
X65715628Y-53971882D01*
X65608358Y-54254727D01*
X65578200Y-54377085D01*
X65535963Y-54548449D01*
X65530453Y-54593827D01*
X65499499Y-54848745D01*
X65499499Y-54988861D01*
X65499500Y-54988866D01*
X65499500Y-63375500D01*
X65479815Y-63442539D01*
X65427011Y-63488294D01*
X65375500Y-63499500D01*
X34624500Y-63499500D01*
X34557461Y-63479815D01*
X34511706Y-63427011D01*
X34500500Y-63375500D01*
X34500500Y-59689478D01*
X37520000Y-59689478D01*
X37535147Y-59867450D01*
X37535148Y-59867453D01*
X37595197Y-60098078D01*
X37693360Y-60315241D01*
X37693362Y-60315244D01*
X37826812Y-60512688D01*
X37826814Y-60512690D01*
X37991706Y-60684736D01*
X38183316Y-60826450D01*
X38396115Y-60933741D01*
X38623987Y-61003526D01*
X38623985Y-61003526D01*
X38670000Y-61009418D01*
X38670000Y-59443658D01*
X38689685Y-59376619D01*
X38742489Y-59330864D01*
X38810184Y-59320719D01*
X38880677Y-59330000D01*
X38880684Y-59330000D01*
X38959316Y-59330000D01*
X38959323Y-59330000D01*
X39029815Y-59320719D01*
X39098849Y-59331484D01*
X39151105Y-59377864D01*
X39170000Y-59443658D01*
X39170000Y-61008264D01*
X39331434Y-60973473D01*
X39552562Y-60884616D01*
X39755494Y-60759666D01*
X39934389Y-60602219D01*
X39934396Y-60602213D01*
X40084102Y-60416805D01*
X40084109Y-60416795D01*
X40200331Y-60208751D01*
X40279722Y-59984052D01*
X40279726Y-59984038D01*
X40319999Y-59749167D01*
X40320000Y-59749156D01*
X40320000Y-59689502D01*
X40919500Y-59689502D01*
X40934652Y-59867536D01*
X40994724Y-60098248D01*
X41092919Y-60315480D01*
X41092924Y-60315488D01*
X41226413Y-60512993D01*
X41226418Y-60512998D01*
X41226421Y-60513003D01*
X41391379Y-60685118D01*
X41583053Y-60826879D01*
X41795926Y-60934207D01*
X42023877Y-61004016D01*
X42260346Y-61034298D01*
X42498532Y-61024180D01*
X42731581Y-60973954D01*
X42952790Y-60885064D01*
X43155795Y-60760069D01*
X43334755Y-60602564D01*
X43484523Y-60417080D01*
X43600790Y-60208954D01*
X43680211Y-59984171D01*
X43700224Y-59867453D01*
X43720499Y-59749209D01*
X43720499Y-59749205D01*
X43720500Y-59749200D01*
X43720500Y-59689478D01*
X44320000Y-59689478D01*
X44335147Y-59867450D01*
X44335148Y-59867453D01*
X44395197Y-60098078D01*
X44493360Y-60315241D01*
X44493362Y-60315244D01*
X44626812Y-60512688D01*
X44626814Y-60512690D01*
X44791706Y-60684736D01*
X44983316Y-60826450D01*
X45196115Y-60933741D01*
X45423987Y-61003526D01*
X45423985Y-61003526D01*
X45470000Y-61009418D01*
X45470000Y-59443658D01*
X45489685Y-59376619D01*
X45542489Y-59330864D01*
X45610184Y-59320719D01*
X45680677Y-59330000D01*
X45680684Y-59330000D01*
X45759316Y-59330000D01*
X45759323Y-59330000D01*
X45829815Y-59320719D01*
X45898848Y-59331484D01*
X45951104Y-59377863D01*
X45969999Y-59443658D01*
X45969999Y-61008264D01*
X46131434Y-60973473D01*
X46352562Y-60884616D01*
X46555494Y-60759666D01*
X46734389Y-60602219D01*
X46734396Y-60602213D01*
X46884102Y-60416805D01*
X46884109Y-60416795D01*
X47000331Y-60208751D01*
X47079722Y-59984052D01*
X47079726Y-59984038D01*
X47119999Y-59749167D01*
X47120000Y-59749156D01*
X47120000Y-59689502D01*
X47719500Y-59689502D01*
X47734652Y-59867536D01*
X47794724Y-60098248D01*
X47892919Y-60315480D01*
X47892924Y-60315488D01*
X48026413Y-60512993D01*
X48026418Y-60512998D01*
X48026421Y-60513003D01*
X48191379Y-60685118D01*
X48383053Y-60826879D01*
X48595926Y-60934207D01*
X48823877Y-61004016D01*
X49060346Y-61034298D01*
X49298532Y-61024180D01*
X49531581Y-60973954D01*
X49752790Y-60885064D01*
X49955795Y-60760069D01*
X50134755Y-60602564D01*
X50284523Y-60417080D01*
X50400790Y-60208954D01*
X50480211Y-59984171D01*
X50500224Y-59867453D01*
X50520499Y-59749209D01*
X50520499Y-59749205D01*
X50520500Y-59749200D01*
X50520500Y-59689502D01*
X51119500Y-59689502D01*
X51134652Y-59867536D01*
X51194724Y-60098248D01*
X51292919Y-60315480D01*
X51292924Y-60315488D01*
X51426413Y-60512993D01*
X51426418Y-60512998D01*
X51426421Y-60513003D01*
X51591379Y-60685118D01*
X51783053Y-60826879D01*
X51995926Y-60934207D01*
X52223877Y-61004016D01*
X52460346Y-61034298D01*
X52698532Y-61024180D01*
X52931581Y-60973954D01*
X53152790Y-60885064D01*
X53355795Y-60760069D01*
X53534755Y-60602564D01*
X53684523Y-60417080D01*
X53800790Y-60208954D01*
X53880211Y-59984171D01*
X53900224Y-59867453D01*
X53920499Y-59749209D01*
X53920499Y-59749205D01*
X53920500Y-59749200D01*
X53920500Y-57770503D01*
X53907524Y-57618044D01*
X53905347Y-57592463D01*
X53889344Y-57531003D01*
X56344435Y-57531003D01*
X56364630Y-57710249D01*
X56364631Y-57710254D01*
X56424211Y-57880523D01*
X56509552Y-58016341D01*
X56520184Y-58033262D01*
X56647738Y-58160816D01*
X56800478Y-58256789D01*
X56929898Y-58302075D01*
X56970745Y-58316368D01*
X56970750Y-58316369D01*
X57149996Y-58336565D01*
X57150000Y-58336565D01*
X57150004Y-58336565D01*
X57329249Y-58316369D01*
X57329252Y-58316368D01*
X57329255Y-58316368D01*
X57499522Y-58256789D01*
X57652262Y-58160816D01*
X57779816Y-58033262D01*
X57875789Y-57880522D01*
X57935368Y-57710255D01*
X57935369Y-57710249D01*
X57955565Y-57531003D01*
X57955565Y-57530996D01*
X57935369Y-57351750D01*
X57935368Y-57351745D01*
X57912999Y-57287819D01*
X57875789Y-57181478D01*
X57779816Y-57028738D01*
X57652262Y-56901184D01*
X57568241Y-56848390D01*
X57499523Y-56805211D01*
X57329254Y-56745631D01*
X57329249Y-56745630D01*
X57150004Y-56725435D01*
X57149996Y-56725435D01*
X56970750Y-56745630D01*
X56970745Y-56745631D01*
X56800476Y-56805211D01*
X56647737Y-56901184D01*
X56520184Y-57028737D01*
X56424211Y-57181476D01*
X56364631Y-57351745D01*
X56364630Y-57351750D01*
X56344435Y-57530996D01*
X56344435Y-57531003D01*
X53889344Y-57531003D01*
X53889343Y-57531000D01*
X53845275Y-57361751D01*
X53811856Y-57287820D01*
X53747080Y-57144519D01*
X53747075Y-57144511D01*
X53613586Y-56947006D01*
X53613582Y-56947001D01*
X53613579Y-56946997D01*
X53448621Y-56774882D01*
X53256947Y-56633121D01*
X53044074Y-56525793D01*
X52914283Y-56486045D01*
X52816121Y-56455983D01*
X52579647Y-56425701D01*
X52341471Y-56435819D01*
X52341467Y-56435819D01*
X52108419Y-56486045D01*
X51887211Y-56574935D01*
X51684203Y-56699932D01*
X51505245Y-56857435D01*
X51432676Y-56947311D01*
X51355477Y-57042920D01*
X51355475Y-57042922D01*
X51355476Y-57042922D01*
X51239210Y-57251044D01*
X51159788Y-57475829D01*
X51119500Y-57710790D01*
X51119500Y-59689502D01*
X50520500Y-59689502D01*
X50520500Y-57770503D01*
X50507524Y-57618044D01*
X50505347Y-57592463D01*
X50489343Y-57531000D01*
X50445275Y-57361751D01*
X50411856Y-57287820D01*
X50347080Y-57144519D01*
X50347075Y-57144511D01*
X50213586Y-56947006D01*
X50213582Y-56947001D01*
X50213579Y-56946997D01*
X50048621Y-56774882D01*
X49856947Y-56633121D01*
X49644074Y-56525793D01*
X49514283Y-56486045D01*
X49416121Y-56455983D01*
X49179647Y-56425701D01*
X48941471Y-56435819D01*
X48941467Y-56435819D01*
X48708419Y-56486045D01*
X48487211Y-56574935D01*
X48284203Y-56699932D01*
X48105245Y-56857435D01*
X48032676Y-56947311D01*
X47955477Y-57042920D01*
X47955475Y-57042922D01*
X47955476Y-57042922D01*
X47839210Y-57251044D01*
X47759788Y-57475829D01*
X47719500Y-57710790D01*
X47719500Y-59689502D01*
X47120000Y-59689502D01*
X47120000Y-58980000D01*
X46433658Y-58980000D01*
X46366619Y-58960315D01*
X46320864Y-58907511D01*
X46310719Y-58839816D01*
X46325177Y-58730000D01*
X46310719Y-58620183D01*
X46321484Y-58551151D01*
X46367864Y-58498895D01*
X46433658Y-58480000D01*
X47120000Y-58480000D01*
X47120000Y-57770522D01*
X47104852Y-57592549D01*
X47104851Y-57592546D01*
X47044802Y-57361921D01*
X46946639Y-57144758D01*
X46946637Y-57144755D01*
X46813187Y-56947311D01*
X46813185Y-56947309D01*
X46648293Y-56775263D01*
X46456683Y-56633549D01*
X46243884Y-56526257D01*
X46016020Y-56456475D01*
X45969999Y-56450581D01*
X45969999Y-58016341D01*
X45950314Y-58083381D01*
X45897510Y-58129135D01*
X45829814Y-58139280D01*
X45759333Y-58130001D01*
X45759328Y-58130000D01*
X45759323Y-58130000D01*
X45680677Y-58130000D01*
X45680671Y-58130000D01*
X45680666Y-58130001D01*
X45610185Y-58139280D01*
X45541150Y-58128514D01*
X45488894Y-58082134D01*
X45470000Y-58016341D01*
X45470000Y-56451734D01*
X45469999Y-56451734D01*
X45308566Y-56486525D01*
X45087437Y-56575383D01*
X44884505Y-56700333D01*
X44705610Y-56857780D01*
X44705603Y-56857786D01*
X44555897Y-57043194D01*
X44555890Y-57043204D01*
X44439668Y-57251248D01*
X44360277Y-57475947D01*
X44360273Y-57475961D01*
X44320000Y-57710832D01*
X44320000Y-58480000D01*
X45006342Y-58480000D01*
X45073381Y-58499685D01*
X45119136Y-58552489D01*
X45129280Y-58620183D01*
X45114823Y-58730000D01*
X45129280Y-58839816D01*
X45118516Y-58908849D01*
X45072136Y-58961105D01*
X45006342Y-58980000D01*
X44320000Y-58980000D01*
X44320000Y-59689478D01*
X43720500Y-59689478D01*
X43720500Y-57770503D01*
X43707524Y-57618044D01*
X43705347Y-57592463D01*
X43689343Y-57531000D01*
X43645275Y-57361751D01*
X43611856Y-57287820D01*
X43547080Y-57144519D01*
X43547075Y-57144511D01*
X43413586Y-56947006D01*
X43413582Y-56947001D01*
X43413579Y-56946997D01*
X43248621Y-56774882D01*
X43056947Y-56633121D01*
X42844074Y-56525793D01*
X42714283Y-56486045D01*
X42616121Y-56455983D01*
X42379647Y-56425701D01*
X42141471Y-56435819D01*
X42141467Y-56435819D01*
X41908419Y-56486045D01*
X41687211Y-56574935D01*
X41484203Y-56699932D01*
X41305245Y-56857435D01*
X41232676Y-56947311D01*
X41155477Y-57042920D01*
X41155475Y-57042922D01*
X41155476Y-57042922D01*
X41039210Y-57251044D01*
X40959788Y-57475829D01*
X40919500Y-57710790D01*
X40919500Y-59689502D01*
X40320000Y-59689502D01*
X40320000Y-58980000D01*
X39633658Y-58980000D01*
X39566619Y-58960315D01*
X39520864Y-58907511D01*
X39510719Y-58839816D01*
X39525177Y-58730000D01*
X39510719Y-58620183D01*
X39521484Y-58551151D01*
X39567864Y-58498895D01*
X39633658Y-58480000D01*
X40320000Y-58480000D01*
X40320000Y-57770522D01*
X40304852Y-57592549D01*
X40304851Y-57592546D01*
X40244802Y-57361921D01*
X40146639Y-57144758D01*
X40146637Y-57144755D01*
X40013187Y-56947311D01*
X40013185Y-56947309D01*
X39848293Y-56775263D01*
X39656683Y-56633549D01*
X39443884Y-56526257D01*
X39216020Y-56456475D01*
X39170000Y-56450581D01*
X39170000Y-58016341D01*
X39150315Y-58083380D01*
X39097511Y-58129135D01*
X39029815Y-58139280D01*
X38959333Y-58130001D01*
X38959328Y-58130000D01*
X38959323Y-58130000D01*
X38880677Y-58130000D01*
X38880671Y-58130000D01*
X38880666Y-58130001D01*
X38810185Y-58139280D01*
X38741150Y-58128514D01*
X38688894Y-58082134D01*
X38670000Y-58016341D01*
X38670000Y-56451734D01*
X38669999Y-56451734D01*
X38508566Y-56486525D01*
X38287437Y-56575383D01*
X38084505Y-56700333D01*
X37905610Y-56857780D01*
X37905603Y-56857786D01*
X37755897Y-57043194D01*
X37755890Y-57043204D01*
X37639668Y-57251248D01*
X37560277Y-57475947D01*
X37560273Y-57475961D01*
X37520000Y-57710832D01*
X37520000Y-58480000D01*
X38206342Y-58480000D01*
X38273381Y-58499685D01*
X38319136Y-58552489D01*
X38329280Y-58620183D01*
X38314823Y-58730000D01*
X38329280Y-58839816D01*
X38318516Y-58908849D01*
X38272136Y-58961105D01*
X38206342Y-58980000D01*
X37520000Y-58980000D01*
X37520000Y-59689478D01*
X34500500Y-59689478D01*
X34500500Y-56067763D01*
X60145787Y-56067763D01*
X60175413Y-56337013D01*
X60175415Y-56337024D01*
X60243926Y-56599082D01*
X60243928Y-56599088D01*
X60349870Y-56848390D01*
X60410055Y-56947006D01*
X60490979Y-57079605D01*
X60490986Y-57079615D01*
X60664253Y-57287819D01*
X60664259Y-57287824D01*
X60735605Y-57351750D01*
X60865998Y-57468582D01*
X61091910Y-57618044D01*
X61337176Y-57733020D01*
X61337183Y-57733022D01*
X61337185Y-57733023D01*
X61596557Y-57811057D01*
X61596564Y-57811058D01*
X61596569Y-57811060D01*
X61864561Y-57850500D01*
X61864566Y-57850500D01*
X62067636Y-57850500D01*
X62119133Y-57846730D01*
X62270156Y-57835677D01*
X62382758Y-57810593D01*
X62534546Y-57776782D01*
X62534548Y-57776781D01*
X62534553Y-57776780D01*
X62787558Y-57680014D01*
X63023777Y-57547441D01*
X63238177Y-57381888D01*
X63426186Y-57186881D01*
X63583799Y-56966579D01*
X63682358Y-56774881D01*
X63707649Y-56725690D01*
X63707651Y-56725684D01*
X63707656Y-56725675D01*
X63795118Y-56469305D01*
X63844319Y-56202933D01*
X63854212Y-55932235D01*
X63824586Y-55662982D01*
X63756072Y-55400912D01*
X63650130Y-55151610D01*
X63509018Y-54920390D01*
X63507845Y-54918981D01*
X63335746Y-54712180D01*
X63335740Y-54712175D01*
X63134002Y-54531418D01*
X62908092Y-54381957D01*
X62897699Y-54377085D01*
X62662824Y-54266980D01*
X62662819Y-54266978D01*
X62662814Y-54266976D01*
X62403442Y-54188942D01*
X62403428Y-54188939D01*
X62287791Y-54171921D01*
X62135439Y-54149500D01*
X61932369Y-54149500D01*
X61932364Y-54149500D01*
X61729844Y-54164323D01*
X61729831Y-54164325D01*
X61465453Y-54223217D01*
X61465446Y-54223220D01*
X61212439Y-54319987D01*
X60976226Y-54452557D01*
X60761822Y-54618112D01*
X60573822Y-54813109D01*
X60573816Y-54813116D01*
X60416202Y-55033419D01*
X60416199Y-55033424D01*
X60292350Y-55274309D01*
X60292343Y-55274327D01*
X60204884Y-55530685D01*
X60204881Y-55530699D01*
X60155681Y-55797068D01*
X60155680Y-55797075D01*
X60145787Y-56067763D01*
X34500500Y-56067763D01*
X34500500Y-54609502D01*
X35819500Y-54609502D01*
X35834652Y-54787536D01*
X35894724Y-55018248D01*
X35992919Y-55235480D01*
X35992924Y-55235488D01*
X36126413Y-55432993D01*
X36126418Y-55432998D01*
X36126421Y-55433003D01*
X36291379Y-55605118D01*
X36483053Y-55746879D01*
X36695926Y-55854207D01*
X36923877Y-55924016D01*
X37160346Y-55954298D01*
X37398532Y-55944180D01*
X37631581Y-55893954D01*
X37852790Y-55805064D01*
X38055795Y-55680069D01*
X38234755Y-55522564D01*
X38384523Y-55337080D01*
X38500790Y-55128954D01*
X38580211Y-54904171D01*
X38600210Y-54787536D01*
X38620499Y-54669209D01*
X38620500Y-54669198D01*
X38620500Y-54609502D01*
X39219500Y-54609502D01*
X39234652Y-54787536D01*
X39294724Y-55018248D01*
X39392919Y-55235480D01*
X39392924Y-55235488D01*
X39526413Y-55432993D01*
X39526418Y-55432998D01*
X39526421Y-55433003D01*
X39691379Y-55605118D01*
X39883053Y-55746879D01*
X40095926Y-55854207D01*
X40323877Y-55924016D01*
X40560346Y-55954298D01*
X40798532Y-55944180D01*
X41031581Y-55893954D01*
X41252790Y-55805064D01*
X41455795Y-55680069D01*
X41634755Y-55522564D01*
X41784523Y-55337080D01*
X41900790Y-55128954D01*
X41980211Y-54904171D01*
X42000210Y-54787536D01*
X42020499Y-54669209D01*
X42020499Y-54669205D01*
X42020500Y-54669200D01*
X42020500Y-54609502D01*
X42619500Y-54609502D01*
X42634652Y-54787536D01*
X42694724Y-55018248D01*
X42792919Y-55235480D01*
X42792924Y-55235488D01*
X42926413Y-55432993D01*
X42926418Y-55432998D01*
X42926421Y-55433003D01*
X43091379Y-55605118D01*
X43283053Y-55746879D01*
X43495926Y-55854207D01*
X43723877Y-55924016D01*
X43960346Y-55954298D01*
X44198532Y-55944180D01*
X44431581Y-55893954D01*
X44652790Y-55805064D01*
X44855795Y-55680069D01*
X45034755Y-55522564D01*
X45184523Y-55337080D01*
X45300790Y-55128954D01*
X45380211Y-54904171D01*
X45400210Y-54787536D01*
X45420499Y-54669209D01*
X45420499Y-54669205D01*
X45420500Y-54669200D01*
X45420500Y-54609502D01*
X46019500Y-54609502D01*
X46034652Y-54787536D01*
X46094724Y-55018248D01*
X46192919Y-55235480D01*
X46192924Y-55235488D01*
X46326413Y-55432993D01*
X46326418Y-55432998D01*
X46326421Y-55433003D01*
X46491379Y-55605118D01*
X46683053Y-55746879D01*
X46895926Y-55854207D01*
X47123877Y-55924016D01*
X47360346Y-55954298D01*
X47598532Y-55944180D01*
X47831581Y-55893954D01*
X48052790Y-55805064D01*
X48255795Y-55680069D01*
X48434755Y-55522564D01*
X48584523Y-55337080D01*
X48700790Y-55128954D01*
X48780211Y-54904171D01*
X48800210Y-54787536D01*
X48820499Y-54669209D01*
X48820499Y-54669205D01*
X48820500Y-54669200D01*
X48820500Y-54609502D01*
X49419500Y-54609502D01*
X49434652Y-54787536D01*
X49494724Y-55018248D01*
X49592919Y-55235480D01*
X49592924Y-55235488D01*
X49726413Y-55432993D01*
X49726418Y-55432998D01*
X49726421Y-55433003D01*
X49891379Y-55605118D01*
X50083053Y-55746879D01*
X50295926Y-55854207D01*
X50523877Y-55924016D01*
X50760346Y-55954298D01*
X50998532Y-55944180D01*
X51231581Y-55893954D01*
X51452790Y-55805064D01*
X51655795Y-55680069D01*
X51834755Y-55522564D01*
X51984523Y-55337080D01*
X52100790Y-55128954D01*
X52180211Y-54904171D01*
X52200210Y-54787536D01*
X52220499Y-54669209D01*
X52220499Y-54669205D01*
X52220500Y-54669200D01*
X52220500Y-54609502D01*
X52819500Y-54609502D01*
X52834652Y-54787536D01*
X52894724Y-55018248D01*
X52992919Y-55235480D01*
X52992924Y-55235488D01*
X53126413Y-55432993D01*
X53126418Y-55432998D01*
X53126421Y-55433003D01*
X53291379Y-55605118D01*
X53483053Y-55746879D01*
X53695926Y-55854207D01*
X53923877Y-55924016D01*
X54160346Y-55954298D01*
X54398532Y-55944180D01*
X54631581Y-55893954D01*
X54852790Y-55805064D01*
X55055795Y-55680069D01*
X55234755Y-55522564D01*
X55384523Y-55337080D01*
X55500790Y-55128954D01*
X55580211Y-54904171D01*
X55600210Y-54787536D01*
X55620499Y-54669209D01*
X55620499Y-54669205D01*
X55620500Y-54669200D01*
X55620500Y-52690503D01*
X55607347Y-52535963D01*
X55605347Y-52512463D01*
X55545275Y-52281751D01*
X55447080Y-52064519D01*
X55447075Y-52064511D01*
X55313586Y-51867006D01*
X55313582Y-51867001D01*
X55313579Y-51866997D01*
X55148621Y-51694882D01*
X54956947Y-51553121D01*
X54744074Y-51445793D01*
X54614283Y-51406045D01*
X54516121Y-51375983D01*
X54279647Y-51345701D01*
X54041471Y-51355819D01*
X54041467Y-51355819D01*
X53808419Y-51406045D01*
X53587211Y-51494935D01*
X53384203Y-51619932D01*
X53205245Y-51777435D01*
X53132929Y-51866997D01*
X53055477Y-51962920D01*
X53055475Y-51962922D01*
X53055476Y-51962922D01*
X52939210Y-52171044D01*
X52859788Y-52395829D01*
X52819500Y-52630790D01*
X52819500Y-54609502D01*
X52220500Y-54609502D01*
X52220500Y-52690503D01*
X52207347Y-52535963D01*
X52205347Y-52512463D01*
X52145275Y-52281751D01*
X52047080Y-52064519D01*
X52047075Y-52064511D01*
X51913586Y-51867006D01*
X51913582Y-51867001D01*
X51913579Y-51866997D01*
X51748621Y-51694882D01*
X51556947Y-51553121D01*
X51344074Y-51445793D01*
X51214283Y-51406045D01*
X51116121Y-51375983D01*
X50879647Y-51345701D01*
X50641471Y-51355819D01*
X50641467Y-51355819D01*
X50408419Y-51406045D01*
X50187211Y-51494935D01*
X49984203Y-51619932D01*
X49805245Y-51777435D01*
X49732929Y-51866997D01*
X49655477Y-51962920D01*
X49655475Y-51962922D01*
X49655476Y-51962922D01*
X49539210Y-52171044D01*
X49459788Y-52395829D01*
X49419500Y-52630790D01*
X49419500Y-54609502D01*
X48820500Y-54609502D01*
X48820500Y-52690503D01*
X48807347Y-52535963D01*
X48805347Y-52512463D01*
X48745275Y-52281751D01*
X48647080Y-52064519D01*
X48647075Y-52064511D01*
X48513586Y-51867006D01*
X48513582Y-51867001D01*
X48513579Y-51866997D01*
X48348621Y-51694882D01*
X48156947Y-51553121D01*
X47944074Y-51445793D01*
X47814283Y-51406045D01*
X47716121Y-51375983D01*
X47479647Y-51345701D01*
X47241471Y-51355819D01*
X47241467Y-51355819D01*
X47008419Y-51406045D01*
X46787211Y-51494935D01*
X46584203Y-51619932D01*
X46405245Y-51777435D01*
X46332929Y-51866997D01*
X46255477Y-51962920D01*
X46255475Y-51962922D01*
X46255476Y-51962922D01*
X46139210Y-52171044D01*
X46059788Y-52395829D01*
X46019500Y-52630790D01*
X46019500Y-54609502D01*
X45420500Y-54609502D01*
X45420500Y-52690503D01*
X45407347Y-52535963D01*
X45405347Y-52512463D01*
X45345275Y-52281751D01*
X45247080Y-52064519D01*
X45247075Y-52064511D01*
X45113586Y-51867006D01*
X45113582Y-51867001D01*
X45113579Y-51866997D01*
X44948621Y-51694882D01*
X44756947Y-51553121D01*
X44544074Y-51445793D01*
X44414283Y-51406045D01*
X44316121Y-51375983D01*
X44079647Y-51345701D01*
X43841471Y-51355819D01*
X43841467Y-51355819D01*
X43608419Y-51406045D01*
X43387211Y-51494935D01*
X43184203Y-51619932D01*
X43005245Y-51777435D01*
X42932929Y-51866997D01*
X42855477Y-51962920D01*
X42855475Y-51962922D01*
X42855476Y-51962922D01*
X42739210Y-52171044D01*
X42659788Y-52395829D01*
X42619500Y-52630790D01*
X42619500Y-54609502D01*
X42020500Y-54609502D01*
X42020500Y-52690503D01*
X42007347Y-52535963D01*
X42005347Y-52512463D01*
X41945275Y-52281751D01*
X41847080Y-52064519D01*
X41847075Y-52064511D01*
X41713586Y-51867006D01*
X41713582Y-51867001D01*
X41713579Y-51866997D01*
X41548621Y-51694882D01*
X41356947Y-51553121D01*
X41144074Y-51445793D01*
X41014283Y-51406045D01*
X40916121Y-51375983D01*
X40679647Y-51345701D01*
X40441471Y-51355819D01*
X40441467Y-51355819D01*
X40208419Y-51406045D01*
X39987211Y-51494935D01*
X39784203Y-51619932D01*
X39605245Y-51777435D01*
X39532929Y-51866997D01*
X39455477Y-51962920D01*
X39455475Y-51962922D01*
X39455476Y-51962922D01*
X39339210Y-52171044D01*
X39259788Y-52395829D01*
X39219500Y-52630790D01*
X39219500Y-54609502D01*
X38620500Y-54609502D01*
X38620500Y-52690498D01*
X38605347Y-52512463D01*
X38545275Y-52281751D01*
X38447080Y-52064519D01*
X38447075Y-52064511D01*
X38313586Y-51867006D01*
X38313582Y-51867001D01*
X38313579Y-51866997D01*
X38148621Y-51694882D01*
X37956947Y-51553121D01*
X37744074Y-51445793D01*
X37614283Y-51406045D01*
X37516121Y-51375983D01*
X37279647Y-51345701D01*
X37041471Y-51355819D01*
X37041467Y-51355819D01*
X36808419Y-51406045D01*
X36587211Y-51494935D01*
X36384203Y-51619932D01*
X36205245Y-51777435D01*
X36132929Y-51866997D01*
X36055477Y-51962920D01*
X36055475Y-51962922D01*
X36055476Y-51962922D01*
X35939210Y-52171044D01*
X35859788Y-52395829D01*
X35819500Y-52630790D01*
X35819500Y-54609502D01*
X34500500Y-54609502D01*
X34500500Y-49655001D01*
X57899500Y-49655001D01*
X57899501Y-49655018D01*
X57910000Y-49757796D01*
X57910001Y-49757799D01*
X57940986Y-49851303D01*
X57965186Y-49924334D01*
X58057288Y-50073656D01*
X58181344Y-50197712D01*
X58330666Y-50289814D01*
X58497203Y-50344999D01*
X58599991Y-50355500D01*
X59400008Y-50355499D01*
X59400016Y-50355498D01*
X59400019Y-50355498D01*
X59461143Y-50349254D01*
X59502797Y-50344999D01*
X59669334Y-50289814D01*
X59818656Y-50197712D01*
X59942712Y-50073656D01*
X59981815Y-50010258D01*
X60033761Y-49963535D01*
X60102723Y-49952312D01*
X60166806Y-49980155D01*
X60184824Y-49998705D01*
X60199907Y-50017885D01*
X60199909Y-50017887D01*
X60358746Y-50155521D01*
X60540750Y-50260601D01*
X60540752Y-50260601D01*
X60540756Y-50260604D01*
X60739367Y-50329344D01*
X60947398Y-50359254D01*
X61157330Y-50349254D01*
X61361576Y-50299704D01*
X61447199Y-50260601D01*
X61552743Y-50212401D01*
X61552746Y-50212399D01*
X61552753Y-50212396D01*
X61723952Y-50090486D01*
X61739999Y-50073657D01*
X61868986Y-49938378D01*
X61878010Y-49924336D01*
X61895540Y-49897058D01*
X61948343Y-49851303D01*
X62017502Y-49841359D01*
X62081058Y-49870383D01*
X62097326Y-49887444D01*
X62199909Y-50017887D01*
X62358746Y-50155521D01*
X62540750Y-50260601D01*
X62540752Y-50260601D01*
X62540756Y-50260604D01*
X62739367Y-50329344D01*
X62947398Y-50359254D01*
X63157330Y-50349254D01*
X63361576Y-50299704D01*
X63447199Y-50260601D01*
X63552743Y-50212401D01*
X63552746Y-50212399D01*
X63552753Y-50212396D01*
X63723952Y-50090486D01*
X63739999Y-50073657D01*
X63868985Y-49938379D01*
X63878010Y-49924336D01*
X63982613Y-49761572D01*
X64017271Y-49675001D01*
X67899500Y-49675001D01*
X67899501Y-49675018D01*
X67910000Y-49777796D01*
X67910001Y-49777799D01*
X67952962Y-49907444D01*
X67965186Y-49944334D01*
X68057288Y-50093656D01*
X68181344Y-50217712D01*
X68330666Y-50309814D01*
X68497203Y-50364999D01*
X68599991Y-50375500D01*
X69400008Y-50375499D01*
X69400016Y-50375498D01*
X69400019Y-50375498D01*
X69461143Y-50369254D01*
X69502797Y-50364999D01*
X69669334Y-50309814D01*
X69818656Y-50217712D01*
X69942712Y-50093656D01*
X69981815Y-50030258D01*
X70033761Y-49983535D01*
X70102723Y-49972312D01*
X70166806Y-50000155D01*
X70184824Y-50018705D01*
X70199907Y-50037885D01*
X70199909Y-50037887D01*
X70358746Y-50175521D01*
X70540750Y-50280601D01*
X70540752Y-50280601D01*
X70540756Y-50280604D01*
X70739367Y-50349344D01*
X70947398Y-50379254D01*
X71157330Y-50369254D01*
X71361576Y-50319704D01*
X71447199Y-50280601D01*
X71552743Y-50232401D01*
X71552746Y-50232399D01*
X71552753Y-50232396D01*
X71723952Y-50110486D01*
X71739999Y-50093657D01*
X71868986Y-49958378D01*
X71878010Y-49944336D01*
X71895540Y-49917058D01*
X71948343Y-49871303D01*
X72017502Y-49861359D01*
X72081058Y-49890383D01*
X72097326Y-49907444D01*
X72162904Y-49990832D01*
X72184180Y-50017887D01*
X72199909Y-50037887D01*
X72358746Y-50175521D01*
X72540750Y-50280601D01*
X72540752Y-50280601D01*
X72540756Y-50280604D01*
X72739367Y-50349344D01*
X72947398Y-50379254D01*
X73157330Y-50369254D01*
X73361576Y-50319704D01*
X73447199Y-50280601D01*
X73552743Y-50232401D01*
X73552746Y-50232399D01*
X73552753Y-50232396D01*
X73723952Y-50110486D01*
X73739999Y-50093657D01*
X73868985Y-49958379D01*
X73878010Y-49944336D01*
X73982613Y-49781572D01*
X74060725Y-49586457D01*
X74100500Y-49380085D01*
X74100500Y-48672575D01*
X74085528Y-48515782D01*
X74026316Y-48314125D01*
X73930011Y-48127318D01*
X73930009Y-48127316D01*
X73930008Y-48127313D01*
X73800094Y-47962116D01*
X73800090Y-47962112D01*
X73641253Y-47824478D01*
X73459249Y-47719398D01*
X73459245Y-47719396D01*
X73459244Y-47719396D01*
X73260633Y-47650656D01*
X73052602Y-47620746D01*
X73052598Y-47620746D01*
X72842672Y-47630745D01*
X72638421Y-47680296D01*
X72638417Y-47680298D01*
X72447256Y-47767598D01*
X72447251Y-47767601D01*
X72276046Y-47889515D01*
X72276040Y-47889520D01*
X72131016Y-48041618D01*
X72104458Y-48082943D01*
X72051653Y-48128697D01*
X71982494Y-48138640D01*
X71918939Y-48109614D01*
X71902673Y-48092554D01*
X71800094Y-47962116D01*
X71800090Y-47962112D01*
X71641253Y-47824478D01*
X71459249Y-47719398D01*
X71459245Y-47719396D01*
X71459244Y-47719396D01*
X71260633Y-47650656D01*
X71052602Y-47620746D01*
X71052598Y-47620746D01*
X70842672Y-47630745D01*
X70638421Y-47680296D01*
X70638417Y-47680298D01*
X70447256Y-47767598D01*
X70447251Y-47767601D01*
X70276046Y-47889515D01*
X70276045Y-47889515D01*
X70178249Y-47992082D01*
X70117740Y-48027017D01*
X70047949Y-48023692D01*
X69991035Y-47983164D01*
X69982967Y-47971608D01*
X69958891Y-47932575D01*
X69942712Y-47906344D01*
X69818656Y-47782288D01*
X69725888Y-47725069D01*
X69669336Y-47690187D01*
X69669331Y-47690185D01*
X69639488Y-47680296D01*
X69502797Y-47635001D01*
X69502795Y-47635000D01*
X69400010Y-47624500D01*
X68599998Y-47624500D01*
X68599980Y-47624501D01*
X68497203Y-47635000D01*
X68497200Y-47635001D01*
X68330668Y-47690185D01*
X68330663Y-47690187D01*
X68181342Y-47782289D01*
X68057289Y-47906342D01*
X67965187Y-48055663D01*
X67965185Y-48055668D01*
X67948072Y-48107313D01*
X67910001Y-48222203D01*
X67910001Y-48222204D01*
X67910000Y-48222204D01*
X67899500Y-48324983D01*
X67899500Y-49675001D01*
X64017271Y-49675001D01*
X64060725Y-49566457D01*
X64100500Y-49360085D01*
X64100500Y-48652575D01*
X64085528Y-48495782D01*
X64026316Y-48294125D01*
X63930011Y-48107318D01*
X63930009Y-48107316D01*
X63930008Y-48107313D01*
X63800094Y-47942116D01*
X63800090Y-47942112D01*
X63641253Y-47804478D01*
X63459249Y-47699398D01*
X63459245Y-47699396D01*
X63459244Y-47699396D01*
X63260633Y-47630656D01*
X63052602Y-47600746D01*
X63052598Y-47600746D01*
X62842672Y-47610745D01*
X62638421Y-47660296D01*
X62638417Y-47660298D01*
X62447256Y-47747598D01*
X62447251Y-47747601D01*
X62276046Y-47869515D01*
X62276040Y-47869520D01*
X62131016Y-48021618D01*
X62104458Y-48062943D01*
X62051653Y-48108697D01*
X61982494Y-48118640D01*
X61918939Y-48089614D01*
X61902673Y-48072554D01*
X61800094Y-47942116D01*
X61800090Y-47942112D01*
X61641253Y-47804478D01*
X61459249Y-47699398D01*
X61459245Y-47699396D01*
X61459244Y-47699396D01*
X61260633Y-47630656D01*
X61052602Y-47600746D01*
X61052598Y-47600746D01*
X60842672Y-47610745D01*
X60638421Y-47660296D01*
X60638417Y-47660298D01*
X60447256Y-47747598D01*
X60447251Y-47747601D01*
X60276046Y-47869515D01*
X60276045Y-47869515D01*
X60178249Y-47972082D01*
X60117740Y-48007017D01*
X60047949Y-48003692D01*
X59991035Y-47963164D01*
X59982967Y-47951608D01*
X59971227Y-47932575D01*
X59942712Y-47886344D01*
X59818656Y-47762288D01*
X59725888Y-47705068D01*
X59669336Y-47670187D01*
X59669331Y-47670185D01*
X59610396Y-47650656D01*
X59502797Y-47615001D01*
X59502795Y-47615000D01*
X59400010Y-47604500D01*
X58599998Y-47604500D01*
X58599980Y-47604501D01*
X58497203Y-47615000D01*
X58497200Y-47615001D01*
X58330668Y-47670185D01*
X58330663Y-47670187D01*
X58181342Y-47762289D01*
X58057289Y-47886342D01*
X57965187Y-48035663D01*
X57965185Y-48035668D01*
X57949520Y-48082943D01*
X57910001Y-48202203D01*
X57910001Y-48202204D01*
X57910000Y-48202204D01*
X57899500Y-48304983D01*
X57899500Y-49655001D01*
X34500500Y-49655001D01*
X34500500Y-48935001D01*
X50239500Y-48935001D01*
X50239501Y-48935018D01*
X50250000Y-49037796D01*
X50250001Y-49037799D01*
X50281443Y-49132682D01*
X50305186Y-49204334D01*
X50397288Y-49353656D01*
X50521344Y-49477712D01*
X50670666Y-49569814D01*
X50837203Y-49624999D01*
X50939991Y-49635500D01*
X51740008Y-49635499D01*
X51740016Y-49635498D01*
X51740019Y-49635498D01*
X51801143Y-49629254D01*
X51842797Y-49624999D01*
X52009334Y-49569814D01*
X52158656Y-49477712D01*
X52282712Y-49353656D01*
X52321815Y-49290258D01*
X52373761Y-49243535D01*
X52442723Y-49232312D01*
X52506806Y-49260155D01*
X52524824Y-49278705D01*
X52539907Y-49297885D01*
X52539909Y-49297887D01*
X52698746Y-49435521D01*
X52880750Y-49540601D01*
X52880752Y-49540601D01*
X52880756Y-49540604D01*
X53079367Y-49609344D01*
X53287398Y-49639254D01*
X53497330Y-49629254D01*
X53701576Y-49579704D01*
X53787199Y-49540601D01*
X53892743Y-49492401D01*
X53892746Y-49492399D01*
X53892753Y-49492396D01*
X54063952Y-49370486D01*
X54073870Y-49360085D01*
X54208985Y-49218379D01*
X54218010Y-49204336D01*
X54322613Y-49041572D01*
X54400725Y-48846457D01*
X54440500Y-48640085D01*
X54440500Y-47932575D01*
X54425528Y-47775782D01*
X54366316Y-47574125D01*
X54270011Y-47387318D01*
X54270009Y-47387316D01*
X54270008Y-47387313D01*
X54140094Y-47222116D01*
X54140090Y-47222112D01*
X53981253Y-47084478D01*
X53799249Y-46979398D01*
X53799245Y-46979396D01*
X53799244Y-46979396D01*
X53600633Y-46910656D01*
X53392602Y-46880746D01*
X53392598Y-46880746D01*
X53182672Y-46890745D01*
X52978421Y-46940296D01*
X52978417Y-46940298D01*
X52787256Y-47027598D01*
X52787251Y-47027601D01*
X52616046Y-47149515D01*
X52616045Y-47149515D01*
X52518249Y-47252082D01*
X52457740Y-47287017D01*
X52387949Y-47283692D01*
X52331035Y-47243164D01*
X52322967Y-47231608D01*
X52317110Y-47222112D01*
X52282712Y-47166344D01*
X52158656Y-47042288D01*
X52065888Y-46985068D01*
X52009336Y-46950187D01*
X52009331Y-46950185D01*
X51979488Y-46940296D01*
X51842797Y-46895001D01*
X51842795Y-46895000D01*
X51740010Y-46884500D01*
X50939998Y-46884500D01*
X50939980Y-46884501D01*
X50837203Y-46895000D01*
X50837200Y-46895001D01*
X50670668Y-46950185D01*
X50670663Y-46950187D01*
X50521342Y-47042289D01*
X50397289Y-47166342D01*
X50305187Y-47315663D01*
X50305185Y-47315666D01*
X50305186Y-47315666D01*
X50250001Y-47482203D01*
X50250001Y-47482204D01*
X50250000Y-47482204D01*
X50239500Y-47584983D01*
X50239500Y-48935001D01*
X34500500Y-48935001D01*
X34500500Y-43850001D01*
X37774500Y-43850001D01*
X37774501Y-43850018D01*
X37785000Y-43952796D01*
X37785001Y-43952799D01*
X37817569Y-44051082D01*
X37840186Y-44119334D01*
X37932288Y-44268656D01*
X38056344Y-44392712D01*
X38205666Y-44484814D01*
X38205669Y-44484815D01*
X38208419Y-44486097D01*
X38209991Y-44487481D01*
X38211813Y-44488605D01*
X38211621Y-44488916D01*
X38260861Y-44532267D01*
X38280016Y-44599460D01*
X38259803Y-44666342D01*
X38241821Y-44688004D01*
X38112860Y-44811603D01*
X38112859Y-44811604D01*
X37974189Y-44999097D01*
X37869196Y-45207338D01*
X37800906Y-45430329D01*
X37795826Y-45469999D01*
X37795827Y-45470000D01*
X38661384Y-45470000D01*
X38728423Y-45489685D01*
X38774178Y-45542489D01*
X38784323Y-45610185D01*
X38769866Y-45719998D01*
X38769866Y-45720001D01*
X38784323Y-45829815D01*
X38773557Y-45898850D01*
X38727177Y-45951106D01*
X38661384Y-45970000D01*
X37797424Y-45970000D01*
X37830316Y-46122619D01*
X37830316Y-46122620D01*
X37917267Y-46339005D01*
X38039541Y-46537592D01*
X38193617Y-46712656D01*
X38193621Y-46712660D01*
X38375054Y-46859157D01*
X38375060Y-46859161D01*
X38578653Y-46972895D01*
X38798538Y-47050585D01*
X38798546Y-47050587D01*
X39028387Y-47089999D01*
X39028396Y-47090000D01*
X39120000Y-47090000D01*
X39120000Y-46428615D01*
X39139685Y-46361576D01*
X39192489Y-46315821D01*
X39260183Y-46305676D01*
X39331003Y-46315000D01*
X39331010Y-46315000D01*
X39408990Y-46315000D01*
X39408997Y-46315000D01*
X39479816Y-46305676D01*
X39548849Y-46316441D01*
X39601105Y-46362820D01*
X39620000Y-46428615D01*
X39620000Y-47090000D01*
X39653201Y-47090000D01*
X39827363Y-47075177D01*
X40053051Y-47016412D01*
X40265552Y-46920356D01*
X40265560Y-46920351D01*
X40458771Y-46789764D01*
X40627139Y-46628396D01*
X40627140Y-46628395D01*
X40765810Y-46440902D01*
X40870803Y-46232661D01*
X40939093Y-46009670D01*
X40944173Y-45970000D01*
X40078616Y-45970000D01*
X40011577Y-45950315D01*
X39965822Y-45897511D01*
X39955677Y-45829815D01*
X39970134Y-45720001D01*
X39970134Y-45719998D01*
X39955677Y-45610185D01*
X39966443Y-45541150D01*
X40012823Y-45488894D01*
X40078616Y-45470000D01*
X40942576Y-45470000D01*
X40942575Y-45469999D01*
X40909683Y-45317380D01*
X40909683Y-45317379D01*
X40822732Y-45100994D01*
X40700458Y-44902407D01*
X40546383Y-44727344D01*
X40506202Y-44694900D01*
X40466410Y-44637469D01*
X40463984Y-44567642D01*
X40499694Y-44507587D01*
X40531714Y-44486034D01*
X40534321Y-44484818D01*
X40534334Y-44484814D01*
X40683656Y-44392712D01*
X40807712Y-44268656D01*
X40899814Y-44119334D01*
X40954999Y-43952797D01*
X40965500Y-43850009D01*
X40965499Y-42509992D01*
X40954999Y-42407203D01*
X40899814Y-42240666D01*
X40807712Y-42091344D01*
X40683656Y-41967288D01*
X40554791Y-41887804D01*
X40534336Y-41875187D01*
X40534331Y-41875185D01*
X40532862Y-41874698D01*
X40367797Y-41820001D01*
X40367795Y-41820000D01*
X40265010Y-41809500D01*
X38474998Y-41809500D01*
X38474981Y-41809501D01*
X38372203Y-41820000D01*
X38372200Y-41820001D01*
X38205668Y-41875185D01*
X38205663Y-41875187D01*
X38056342Y-41967289D01*
X37932289Y-42091342D01*
X37840187Y-42240663D01*
X37840185Y-42240668D01*
X37815763Y-42314369D01*
X37785001Y-42407203D01*
X37785001Y-42407204D01*
X37785000Y-42407204D01*
X37774500Y-42509983D01*
X37774500Y-43850001D01*
X34500500Y-43850001D01*
X34500500Y-40640000D01*
X50644341Y-40640000D01*
X50664936Y-40875403D01*
X50664938Y-40875413D01*
X50726094Y-41103655D01*
X50726096Y-41103659D01*
X50726097Y-41103663D01*
X50825965Y-41317829D01*
X50825965Y-41317830D01*
X50825967Y-41317834D01*
X50961501Y-41511395D01*
X50961506Y-41511402D01*
X51128597Y-41678493D01*
X51128603Y-41678498D01*
X51314594Y-41808730D01*
X51358219Y-41863307D01*
X51365413Y-41932805D01*
X51333890Y-41995160D01*
X51314595Y-42011880D01*
X51128922Y-42141890D01*
X51128920Y-42141891D01*
X50961891Y-42308920D01*
X50961886Y-42308926D01*
X50826400Y-42502420D01*
X50826399Y-42502422D01*
X50726570Y-42716507D01*
X50726567Y-42716513D01*
X50669364Y-42929999D01*
X50669364Y-42930000D01*
X51386653Y-42930000D01*
X51453692Y-42949685D01*
X51499447Y-43002489D01*
X51509391Y-43071647D01*
X51505631Y-43088933D01*
X51500000Y-43108111D01*
X51500000Y-43251888D01*
X51505631Y-43271067D01*
X51505630Y-43340936D01*
X51467855Y-43399714D01*
X51404299Y-43428738D01*
X51386653Y-43430000D01*
X50669364Y-43430000D01*
X50726567Y-43643486D01*
X50726570Y-43643492D01*
X50826399Y-43857578D01*
X50961894Y-44051082D01*
X51128917Y-44218105D01*
X51322421Y-44353600D01*
X51536507Y-44453429D01*
X51536516Y-44453433D01*
X51750000Y-44510634D01*
X51750000Y-43792301D01*
X51769685Y-43725262D01*
X51822489Y-43679507D01*
X51891647Y-43669563D01*
X51964237Y-43680000D01*
X51964238Y-43680000D01*
X52035762Y-43680000D01*
X52035763Y-43680000D01*
X52108352Y-43669563D01*
X52177510Y-43679507D01*
X52230314Y-43725261D01*
X52249999Y-43792301D01*
X52249999Y-44510633D01*
X52463483Y-44453433D01*
X52463492Y-44453429D01*
X52677578Y-44353600D01*
X52871082Y-44218105D01*
X53038105Y-44051082D01*
X53173600Y-43857578D01*
X53273429Y-43643492D01*
X53273432Y-43643486D01*
X53330636Y-43430000D01*
X52613347Y-43430000D01*
X52546308Y-43410315D01*
X52500553Y-43357511D01*
X52490609Y-43288353D01*
X52494369Y-43271067D01*
X52500000Y-43251888D01*
X52500000Y-43108111D01*
X52494369Y-43088933D01*
X52494370Y-43019064D01*
X52532145Y-42960286D01*
X52595701Y-42931262D01*
X52613347Y-42930000D01*
X53330636Y-42930000D01*
X53330635Y-42929999D01*
X53273432Y-42716513D01*
X53273429Y-42716507D01*
X53173600Y-42502422D01*
X53173599Y-42502420D01*
X53038113Y-42308926D01*
X53038108Y-42308920D01*
X52893191Y-42164003D01*
X65361435Y-42164003D01*
X65381630Y-42343249D01*
X65381631Y-42343254D01*
X65441211Y-42513523D01*
X65537183Y-42666261D01*
X65537184Y-42666262D01*
X65664738Y-42793816D01*
X65817478Y-42889789D01*
X65936001Y-42931262D01*
X65987745Y-42949368D01*
X65987750Y-42949369D01*
X66166996Y-42969565D01*
X66167000Y-42969565D01*
X66167004Y-42969565D01*
X66346249Y-42949369D01*
X66346252Y-42949368D01*
X66346255Y-42949368D01*
X66516522Y-42889789D01*
X66669262Y-42793816D01*
X66796816Y-42666262D01*
X66892789Y-42513522D01*
X66952368Y-42343255D01*
X66963927Y-42240666D01*
X66972565Y-42164003D01*
X66972565Y-42163996D01*
X66952369Y-41984750D01*
X66952368Y-41984745D01*
X66914032Y-41875187D01*
X66892789Y-41814478D01*
X66889177Y-41808730D01*
X66853581Y-41752080D01*
X66796816Y-41661738D01*
X66669262Y-41534184D01*
X66661017Y-41529003D01*
X67393435Y-41529003D01*
X67413630Y-41708249D01*
X67413631Y-41708254D01*
X67473211Y-41878523D01*
X67546813Y-41995659D01*
X67569184Y-42031262D01*
X67696738Y-42158816D01*
X67787080Y-42215582D01*
X67827004Y-42240668D01*
X67849478Y-42254789D01*
X68004176Y-42308920D01*
X68019745Y-42314368D01*
X68019750Y-42314369D01*
X68198996Y-42334565D01*
X68199000Y-42334565D01*
X68199004Y-42334565D01*
X68378249Y-42314369D01*
X68378252Y-42314368D01*
X68378255Y-42314368D01*
X68548522Y-42254789D01*
X68701262Y-42158816D01*
X68828816Y-42031262D01*
X68924789Y-41878522D01*
X68984368Y-41708255D01*
X68987721Y-41678495D01*
X69004565Y-41529003D01*
X69004565Y-41528996D01*
X68984369Y-41349750D01*
X68984368Y-41349745D01*
X68924788Y-41179476D01*
X68882257Y-41111789D01*
X68828816Y-41026738D01*
X68701262Y-40899184D01*
X68645703Y-40864274D01*
X68548523Y-40803211D01*
X68378254Y-40743631D01*
X68378249Y-40743630D01*
X68199004Y-40723435D01*
X68198996Y-40723435D01*
X68019750Y-40743630D01*
X68019745Y-40743631D01*
X67849476Y-40803211D01*
X67696737Y-40899184D01*
X67569184Y-41026737D01*
X67473211Y-41179476D01*
X67413631Y-41349745D01*
X67413630Y-41349750D01*
X67393435Y-41528996D01*
X67393435Y-41529003D01*
X66661017Y-41529003D01*
X66516523Y-41438211D01*
X66346254Y-41378631D01*
X66346249Y-41378630D01*
X66167004Y-41358435D01*
X66166996Y-41358435D01*
X65987750Y-41378630D01*
X65987745Y-41378631D01*
X65817476Y-41438211D01*
X65664737Y-41534184D01*
X65537184Y-41661737D01*
X65441211Y-41814476D01*
X65381631Y-41984745D01*
X65381630Y-41984750D01*
X65361435Y-42163996D01*
X65361435Y-42164003D01*
X52893191Y-42164003D01*
X52871078Y-42141890D01*
X52685405Y-42011879D01*
X52641780Y-41957302D01*
X52634588Y-41887804D01*
X52666110Y-41825449D01*
X52685406Y-41808730D01*
X52828899Y-41708255D01*
X52871401Y-41678495D01*
X53038495Y-41511401D01*
X53174035Y-41317830D01*
X53273903Y-41103663D01*
X53335063Y-40875408D01*
X53355659Y-40640000D01*
X53335063Y-40404592D01*
X53273903Y-40176337D01*
X53174035Y-39962171D01*
X53130051Y-39899354D01*
X53038494Y-39768597D01*
X52871402Y-39601506D01*
X52871396Y-39601501D01*
X52685842Y-39471575D01*
X52642217Y-39416998D01*
X52635023Y-39347500D01*
X52666546Y-39285145D01*
X52685842Y-39268425D01*
X52708026Y-39252891D01*
X52871401Y-39138495D01*
X53020893Y-38989003D01*
X71330435Y-38989003D01*
X71350630Y-39168249D01*
X71350631Y-39168254D01*
X71410211Y-39338523D01*
X71483308Y-39454855D01*
X71506184Y-39491262D01*
X71633738Y-39618816D01*
X71786478Y-39714789D01*
X71940258Y-39768599D01*
X71956745Y-39774368D01*
X71956750Y-39774369D01*
X72135996Y-39794565D01*
X72136000Y-39794565D01*
X72136004Y-39794565D01*
X72315249Y-39774369D01*
X72315252Y-39774368D01*
X72315255Y-39774368D01*
X72485522Y-39714789D01*
X72638262Y-39618816D01*
X72765816Y-39491262D01*
X72861789Y-39338522D01*
X72921368Y-39168255D01*
X72924721Y-39138495D01*
X72941565Y-38989003D01*
X72941565Y-38988996D01*
X72921369Y-38809750D01*
X72921368Y-38809745D01*
X72894657Y-38733409D01*
X72861789Y-38639478D01*
X72765816Y-38486738D01*
X72638262Y-38359184D01*
X72600415Y-38335403D01*
X72485523Y-38263211D01*
X72315254Y-38203631D01*
X72315249Y-38203630D01*
X72136004Y-38183435D01*
X72135996Y-38183435D01*
X71956750Y-38203630D01*
X71956745Y-38203631D01*
X71786476Y-38263211D01*
X71633737Y-38359184D01*
X71506184Y-38486737D01*
X71410211Y-38639476D01*
X71350631Y-38809745D01*
X71350630Y-38809750D01*
X71330435Y-38988996D01*
X71330435Y-38989003D01*
X53020893Y-38989003D01*
X53038495Y-38971401D01*
X53174035Y-38777830D01*
X53273903Y-38563663D01*
X53335063Y-38335408D01*
X53355659Y-38100000D01*
X53335063Y-37864592D01*
X53282000Y-37666554D01*
X53273905Y-37636344D01*
X53273904Y-37636343D01*
X53273903Y-37636337D01*
X53174035Y-37422171D01*
X53078254Y-37285380D01*
X53038494Y-37228597D01*
X52871402Y-37061506D01*
X52871396Y-37061501D01*
X52685842Y-36931575D01*
X52642217Y-36876998D01*
X52635023Y-36807500D01*
X52666546Y-36745145D01*
X52685842Y-36728425D01*
X52708026Y-36712891D01*
X52871401Y-36598495D01*
X53038495Y-36431401D01*
X53174035Y-36237830D01*
X53273903Y-36023663D01*
X53335063Y-35795408D01*
X53355659Y-35560000D01*
X53335063Y-35324592D01*
X53273903Y-35096337D01*
X53174035Y-34882171D01*
X53038495Y-34688599D01*
X53038494Y-34688597D01*
X52871402Y-34521506D01*
X52871396Y-34521501D01*
X52685842Y-34391575D01*
X52642217Y-34336998D01*
X52635023Y-34267500D01*
X52666546Y-34205145D01*
X52685842Y-34188425D01*
X52708026Y-34172891D01*
X52871401Y-34058495D01*
X53038495Y-33891401D01*
X53174035Y-33697830D01*
X53273903Y-33483663D01*
X53335063Y-33255408D01*
X53355659Y-33020000D01*
X53335063Y-32784592D01*
X53273903Y-32556337D01*
X53174035Y-32342171D01*
X53140453Y-32294211D01*
X53038496Y-32148600D01*
X53038496Y-32148599D01*
X52916567Y-32026671D01*
X52883084Y-31965351D01*
X52888068Y-31895659D01*
X52929939Y-31839725D01*
X52960915Y-31822810D01*
X53092331Y-31773796D01*
X53206936Y-31688003D01*
X61362435Y-31688003D01*
X61382630Y-31867249D01*
X61382631Y-31867254D01*
X61442211Y-32037523D01*
X61512005Y-32148599D01*
X61538184Y-32190262D01*
X61665738Y-32317816D01*
X61818478Y-32413789D01*
X61837826Y-32420559D01*
X61988745Y-32473368D01*
X61988750Y-32473369D01*
X62167996Y-32493565D01*
X62168000Y-32493565D01*
X62168004Y-32493565D01*
X62347249Y-32473369D01*
X62347252Y-32473368D01*
X62347255Y-32473368D01*
X62517522Y-32413789D01*
X62670262Y-32317816D01*
X62797816Y-32190262D01*
X62893789Y-32037522D01*
X62953368Y-31867255D01*
X62956470Y-31839725D01*
X62973565Y-31688003D01*
X62973565Y-31687996D01*
X62953369Y-31508750D01*
X62953368Y-31508745D01*
X62907574Y-31377873D01*
X62893789Y-31338478D01*
X62797816Y-31185738D01*
X62670262Y-31058184D01*
X62517523Y-30962211D01*
X62347254Y-30902631D01*
X62347249Y-30902630D01*
X62168004Y-30882435D01*
X62167996Y-30882435D01*
X61988750Y-30902630D01*
X61988745Y-30902631D01*
X61818476Y-30962211D01*
X61665737Y-31058184D01*
X61538184Y-31185737D01*
X61442211Y-31338476D01*
X61382631Y-31508745D01*
X61382630Y-31508750D01*
X61362435Y-31687996D01*
X61362435Y-31688003D01*
X53206936Y-31688003D01*
X53207546Y-31687546D01*
X53293796Y-31572331D01*
X53344091Y-31437483D01*
X53350500Y-31377873D01*
X53350499Y-29582128D01*
X53344091Y-29522517D01*
X53293796Y-29387669D01*
X53293795Y-29387668D01*
X53293793Y-29387664D01*
X53207547Y-29272455D01*
X53207544Y-29272452D01*
X53092335Y-29186206D01*
X53092328Y-29186202D01*
X52957482Y-29135908D01*
X52957483Y-29135908D01*
X52897883Y-29129501D01*
X52897881Y-29129500D01*
X52897873Y-29129500D01*
X52897864Y-29129500D01*
X51102129Y-29129500D01*
X51102123Y-29129501D01*
X51042516Y-29135908D01*
X50907671Y-29186202D01*
X50907664Y-29186206D01*
X50792455Y-29272452D01*
X50792452Y-29272455D01*
X50706206Y-29387664D01*
X50706202Y-29387671D01*
X50655908Y-29522517D01*
X50649501Y-29582116D01*
X50649501Y-29582123D01*
X50649500Y-29582135D01*
X50649500Y-31377870D01*
X50649501Y-31377876D01*
X50655908Y-31437483D01*
X50706202Y-31572328D01*
X50706206Y-31572335D01*
X50792452Y-31687544D01*
X50792455Y-31687547D01*
X50907664Y-31773793D01*
X50907671Y-31773797D01*
X51039081Y-31822810D01*
X51095015Y-31864681D01*
X51119432Y-31930145D01*
X51104580Y-31998418D01*
X51083430Y-32026673D01*
X50961503Y-32148600D01*
X50825965Y-32342169D01*
X50825964Y-32342171D01*
X50726098Y-32556335D01*
X50726094Y-32556344D01*
X50664938Y-32784586D01*
X50664936Y-32784596D01*
X50644341Y-33019999D01*
X50644341Y-33020000D01*
X50664936Y-33255403D01*
X50664938Y-33255413D01*
X50726094Y-33483655D01*
X50726096Y-33483659D01*
X50726097Y-33483663D01*
X50754759Y-33545128D01*
X50825965Y-33697830D01*
X50825967Y-33697834D01*
X50961501Y-33891395D01*
X50961506Y-33891402D01*
X51128597Y-34058493D01*
X51128603Y-34058498D01*
X51314158Y-34188425D01*
X51357783Y-34243002D01*
X51364977Y-34312500D01*
X51333454Y-34374855D01*
X51314158Y-34391575D01*
X51128597Y-34521505D01*
X50961505Y-34688597D01*
X50825965Y-34882169D01*
X50825964Y-34882171D01*
X50726098Y-35096335D01*
X50726094Y-35096344D01*
X50664938Y-35324586D01*
X50664936Y-35324596D01*
X50644341Y-35559999D01*
X50644341Y-35560000D01*
X50664936Y-35795403D01*
X50664938Y-35795413D01*
X50726094Y-36023655D01*
X50726096Y-36023659D01*
X50726097Y-36023663D01*
X50825965Y-36237829D01*
X50825965Y-36237830D01*
X50825967Y-36237834D01*
X50961501Y-36431395D01*
X50961506Y-36431402D01*
X51128597Y-36598493D01*
X51128603Y-36598498D01*
X51314158Y-36728425D01*
X51357783Y-36783002D01*
X51364977Y-36852500D01*
X51333454Y-36914855D01*
X51314158Y-36931575D01*
X51128597Y-37061505D01*
X50961505Y-37228597D01*
X50825965Y-37422169D01*
X50825964Y-37422171D01*
X50726098Y-37636335D01*
X50726094Y-37636344D01*
X50664938Y-37864586D01*
X50664936Y-37864596D01*
X50644341Y-38099999D01*
X50644341Y-38100000D01*
X50664936Y-38335403D01*
X50664938Y-38335413D01*
X50726094Y-38563655D01*
X50726096Y-38563659D01*
X50726097Y-38563663D01*
X50805250Y-38733407D01*
X50825965Y-38777830D01*
X50825967Y-38777834D01*
X50961501Y-38971395D01*
X50961506Y-38971402D01*
X51128597Y-39138493D01*
X51128603Y-39138498D01*
X51314158Y-39268425D01*
X51357783Y-39323002D01*
X51364977Y-39392500D01*
X51333454Y-39454855D01*
X51314158Y-39471575D01*
X51128597Y-39601505D01*
X50961505Y-39768597D01*
X50825965Y-39962169D01*
X50825964Y-39962171D01*
X50726098Y-40176335D01*
X50726094Y-40176344D01*
X50664938Y-40404586D01*
X50664936Y-40404596D01*
X50644341Y-40639999D01*
X50644341Y-40640000D01*
X34500500Y-40640000D01*
X34500500Y-38100002D01*
X36832677Y-38100002D01*
X36851929Y-38320062D01*
X36851930Y-38320070D01*
X36909104Y-38533445D01*
X36909105Y-38533447D01*
X36909106Y-38533450D01*
X37002347Y-38733407D01*
X37002466Y-38733662D01*
X37002468Y-38733666D01*
X37129170Y-38914615D01*
X37129175Y-38914621D01*
X37285378Y-39070824D01*
X37285384Y-39070829D01*
X37466333Y-39197531D01*
X37466335Y-39197532D01*
X37466338Y-39197534D01*
X37666550Y-39290894D01*
X37879932Y-39348070D01*
X38037123Y-39361822D01*
X38099998Y-39367323D01*
X38100000Y-39367323D01*
X38100002Y-39367323D01*
X38155017Y-39362509D01*
X38320068Y-39348070D01*
X38533450Y-39290894D01*
X38733662Y-39197534D01*
X38914620Y-39070826D01*
X39070826Y-38914620D01*
X39197534Y-38733662D01*
X39257617Y-38604811D01*
X39303790Y-38552371D01*
X39370983Y-38533219D01*
X39437865Y-38553435D01*
X39482382Y-38604811D01*
X39542464Y-38733658D01*
X39542468Y-38733666D01*
X39669170Y-38914615D01*
X39669175Y-38914621D01*
X39825378Y-39070824D01*
X39825384Y-39070829D01*
X40006333Y-39197531D01*
X40006335Y-39197532D01*
X40006338Y-39197534D01*
X40206550Y-39290894D01*
X40419932Y-39348070D01*
X40577123Y-39361822D01*
X40639998Y-39367323D01*
X40640000Y-39367323D01*
X40640002Y-39367323D01*
X40695017Y-39362509D01*
X40860068Y-39348070D01*
X41073450Y-39290894D01*
X41273662Y-39197534D01*
X41454620Y-39070826D01*
X41610826Y-38914620D01*
X41737534Y-38733662D01*
X41797894Y-38604218D01*
X41844066Y-38551779D01*
X41911259Y-38532627D01*
X41978141Y-38552843D01*
X42022658Y-38604219D01*
X42082899Y-38733407D01*
X42082900Y-38733409D01*
X42128258Y-38798187D01*
X42657050Y-38269395D01*
X42718373Y-38235910D01*
X42788064Y-38240894D01*
X42843998Y-38282765D01*
X42848539Y-38289254D01*
X42895813Y-38361612D01*
X42996157Y-38439713D01*
X42996160Y-38439714D01*
X42996511Y-38439987D01*
X43037324Y-38496697D01*
X43040999Y-38566470D01*
X43008030Y-38625522D01*
X42481811Y-39151741D01*
X42546582Y-39197094D01*
X42546592Y-39197100D01*
X42746715Y-39290419D01*
X42746729Y-39290424D01*
X42960013Y-39347573D01*
X42960023Y-39347575D01*
X43179999Y-39366821D01*
X43180001Y-39366821D01*
X43399976Y-39347575D01*
X43399986Y-39347573D01*
X43613270Y-39290424D01*
X43613284Y-39290419D01*
X43813408Y-39197100D01*
X43813420Y-39197093D01*
X43878186Y-39151742D01*
X43878187Y-39151740D01*
X43349276Y-38622829D01*
X43315791Y-38561506D01*
X43320775Y-38491814D01*
X43362647Y-38435881D01*
X43377933Y-38426097D01*
X43417251Y-38404820D01*
X43503371Y-38311269D01*
X43504083Y-38309643D01*
X43505652Y-38307777D01*
X43508992Y-38302666D01*
X43509609Y-38303069D01*
X43549036Y-38256158D01*
X43615770Y-38235464D01*
X43683099Y-38254135D01*
X43705322Y-38271769D01*
X44231740Y-38798187D01*
X44231742Y-38798186D01*
X44277093Y-38733420D01*
X44277100Y-38733408D01*
X44337342Y-38604219D01*
X44383514Y-38551779D01*
X44450707Y-38532627D01*
X44517588Y-38552842D01*
X44562106Y-38604219D01*
X44622464Y-38733658D01*
X44622468Y-38733666D01*
X44749170Y-38914615D01*
X44749175Y-38914621D01*
X44905378Y-39070824D01*
X44905384Y-39070829D01*
X45086333Y-39197531D01*
X45086335Y-39197532D01*
X45086338Y-39197534D01*
X45286550Y-39290894D01*
X45499932Y-39348070D01*
X45657123Y-39361822D01*
X45719998Y-39367323D01*
X45720000Y-39367323D01*
X45720002Y-39367323D01*
X45775017Y-39362509D01*
X45940068Y-39348070D01*
X46153450Y-39290894D01*
X46353662Y-39197534D01*
X46534620Y-39070826D01*
X46690826Y-38914620D01*
X46817534Y-38733662D01*
X46910894Y-38533450D01*
X46968070Y-38320068D01*
X46987323Y-38100000D01*
X46984532Y-38068102D01*
X46979027Y-38005177D01*
X46968070Y-37879932D01*
X46910894Y-37666550D01*
X46817534Y-37466339D01*
X46690826Y-37285380D01*
X46534620Y-37129174D01*
X46534616Y-37129171D01*
X46534615Y-37129170D01*
X46353666Y-37002468D01*
X46353662Y-37002466D01*
X46353662Y-37002465D01*
X46153450Y-36909106D01*
X46153447Y-36909105D01*
X46153445Y-36909104D01*
X45940070Y-36851930D01*
X45940062Y-36851929D01*
X45720002Y-36832677D01*
X45719998Y-36832677D01*
X45499937Y-36851929D01*
X45499929Y-36851930D01*
X45286554Y-36909104D01*
X45286548Y-36909107D01*
X45086340Y-37002465D01*
X45086338Y-37002466D01*
X44905377Y-37129175D01*
X44749175Y-37285377D01*
X44622467Y-37466337D01*
X44622466Y-37466339D01*
X44622348Y-37466593D01*
X44562105Y-37595782D01*
X44515932Y-37648221D01*
X44448738Y-37667372D01*
X44381857Y-37647156D01*
X44337341Y-37595780D01*
X44277100Y-37466593D01*
X44277099Y-37466591D01*
X44231740Y-37401811D01*
X43702949Y-37930602D01*
X43641626Y-37964087D01*
X43571934Y-37959103D01*
X43516001Y-37917231D01*
X43511460Y-37910743D01*
X43464189Y-37838391D01*
X43464187Y-37838388D01*
X43408673Y-37795180D01*
X43363843Y-37760287D01*
X43363840Y-37760285D01*
X43363488Y-37760012D01*
X43322675Y-37703301D01*
X43319000Y-37633529D01*
X43351969Y-37574477D01*
X43878187Y-37048258D01*
X43813409Y-37002900D01*
X43813407Y-37002899D01*
X43613284Y-36909580D01*
X43613270Y-36909575D01*
X43399986Y-36852426D01*
X43399976Y-36852424D01*
X43180001Y-36833179D01*
X43179999Y-36833179D01*
X42960023Y-36852424D01*
X42960013Y-36852426D01*
X42746729Y-36909575D01*
X42746720Y-36909579D01*
X42546586Y-37002903D01*
X42481812Y-37048257D01*
X42481811Y-37048258D01*
X43010723Y-37577170D01*
X43044208Y-37638493D01*
X43039224Y-37708185D01*
X42997352Y-37764118D01*
X42982059Y-37773906D01*
X42942749Y-37795179D01*
X42942748Y-37795179D01*
X42856626Y-37888733D01*
X42856626Y-37888734D01*
X42855911Y-37890365D01*
X42854340Y-37892233D01*
X42851008Y-37897334D01*
X42850391Y-37896931D01*
X42810952Y-37943849D01*
X42744215Y-37964535D01*
X42676888Y-37945857D01*
X42654677Y-37928230D01*
X42128258Y-37401811D01*
X42128257Y-37401812D01*
X42082903Y-37466586D01*
X42022658Y-37595781D01*
X41976485Y-37648220D01*
X41909292Y-37667372D01*
X41842411Y-37647156D01*
X41797894Y-37595781D01*
X41737652Y-37466593D01*
X41737534Y-37466339D01*
X41610826Y-37285380D01*
X41454620Y-37129174D01*
X41454616Y-37129171D01*
X41454615Y-37129170D01*
X41273666Y-37002468D01*
X41273662Y-37002466D01*
X41273662Y-37002465D01*
X41073450Y-36909106D01*
X41073447Y-36909105D01*
X41073445Y-36909104D01*
X40860070Y-36851930D01*
X40860062Y-36851929D01*
X40640002Y-36832677D01*
X40639998Y-36832677D01*
X40419937Y-36851929D01*
X40419929Y-36851930D01*
X40206554Y-36909104D01*
X40206548Y-36909107D01*
X40006340Y-37002465D01*
X40006338Y-37002466D01*
X39825377Y-37129175D01*
X39669175Y-37285377D01*
X39542466Y-37466338D01*
X39542465Y-37466340D01*
X39482382Y-37595189D01*
X39436209Y-37647628D01*
X39369016Y-37666780D01*
X39302135Y-37646564D01*
X39257618Y-37595189D01*
X39197652Y-37466593D01*
X39197534Y-37466339D01*
X39070826Y-37285380D01*
X38914620Y-37129174D01*
X38914616Y-37129171D01*
X38914615Y-37129170D01*
X38733666Y-37002468D01*
X38733662Y-37002466D01*
X38733662Y-37002465D01*
X38533450Y-36909106D01*
X38533447Y-36909105D01*
X38533445Y-36909104D01*
X38320070Y-36851930D01*
X38320062Y-36851929D01*
X38100002Y-36832677D01*
X38099998Y-36832677D01*
X37879937Y-36851929D01*
X37879929Y-36851930D01*
X37666554Y-36909104D01*
X37666548Y-36909107D01*
X37466340Y-37002465D01*
X37466338Y-37002466D01*
X37285377Y-37129175D01*
X37129175Y-37285377D01*
X37002466Y-37466338D01*
X37002465Y-37466340D01*
X36909107Y-37666548D01*
X36909104Y-37666554D01*
X36851930Y-37879929D01*
X36851929Y-37879937D01*
X36832677Y-38099997D01*
X36832677Y-38100002D01*
X34500500Y-38100002D01*
X34500500Y-26416003D01*
X50502435Y-26416003D01*
X50522630Y-26595249D01*
X50522631Y-26595254D01*
X50582211Y-26765523D01*
X50634820Y-26849249D01*
X50678184Y-26918262D01*
X50805738Y-27045816D01*
X50958478Y-27141789D01*
X51128744Y-27201368D01*
X51128745Y-27201368D01*
X51128750Y-27201369D01*
X51307996Y-27221565D01*
X51308000Y-27221565D01*
X51308004Y-27221565D01*
X51487249Y-27201369D01*
X51487252Y-27201368D01*
X51487255Y-27201368D01*
X51657522Y-27141789D01*
X51810262Y-27045816D01*
X51937816Y-26918262D01*
X52033789Y-26765522D01*
X52093368Y-26595255D01*
X52105143Y-26490750D01*
X52109565Y-26451503D01*
X68663435Y-26451503D01*
X68683630Y-26630749D01*
X68683631Y-26630754D01*
X68743211Y-26801023D01*
X68801222Y-26893346D01*
X68839184Y-26953762D01*
X68966738Y-27081316D01*
X69057080Y-27138081D01*
X69111477Y-27172262D01*
X69119478Y-27177289D01*
X69188292Y-27201368D01*
X69289745Y-27236868D01*
X69289750Y-27236869D01*
X69468996Y-27257065D01*
X69469000Y-27257065D01*
X69469004Y-27257065D01*
X69648249Y-27236869D01*
X69648252Y-27236868D01*
X69648255Y-27236868D01*
X69818522Y-27177289D01*
X69971262Y-27081316D01*
X70098816Y-26953762D01*
X70136780Y-26893342D01*
X70189110Y-26847055D01*
X70258164Y-26836405D01*
X70322012Y-26864780D01*
X70358812Y-26918362D01*
X70394209Y-27019519D01*
X70394211Y-27019522D01*
X70490184Y-27172262D01*
X70617738Y-27299816D01*
X70770478Y-27395789D01*
X70940745Y-27455368D01*
X70940750Y-27455369D01*
X71119996Y-27475565D01*
X71120000Y-27475565D01*
X71120004Y-27475565D01*
X71299249Y-27455369D01*
X71299252Y-27455368D01*
X71299255Y-27455368D01*
X71469522Y-27395789D01*
X71622262Y-27299816D01*
X71749816Y-27172262D01*
X71845789Y-27019522D01*
X71905368Y-26849255D01*
X71906816Y-26836405D01*
X71925565Y-26670003D01*
X71925565Y-26669996D01*
X71905369Y-26490750D01*
X71905368Y-26490745D01*
X71879215Y-26416003D01*
X71845789Y-26320478D01*
X71749816Y-26167738D01*
X71622262Y-26040184D01*
X71599921Y-26026146D01*
X71469523Y-25944211D01*
X71299254Y-25884631D01*
X71299249Y-25884630D01*
X71120004Y-25864435D01*
X71119996Y-25864435D01*
X70940750Y-25884630D01*
X70940745Y-25884631D01*
X70770476Y-25944211D01*
X70617737Y-26040184D01*
X70490184Y-26167737D01*
X70452222Y-26228154D01*
X70399887Y-26274445D01*
X70330833Y-26285093D01*
X70266985Y-26256718D01*
X70230186Y-26203137D01*
X70194788Y-26101976D01*
X70148222Y-26027867D01*
X70098816Y-25949238D01*
X69971262Y-25821684D01*
X69971262Y-25821683D01*
X69818523Y-25725711D01*
X69648254Y-25666131D01*
X69648249Y-25666130D01*
X69469004Y-25645935D01*
X69468996Y-25645935D01*
X69289750Y-25666130D01*
X69289745Y-25666131D01*
X69119476Y-25725711D01*
X68966737Y-25821684D01*
X68839184Y-25949237D01*
X68743211Y-26101976D01*
X68683631Y-26272245D01*
X68683630Y-26272250D01*
X68663435Y-26451496D01*
X68663435Y-26451503D01*
X52109565Y-26451503D01*
X52113565Y-26416003D01*
X52113565Y-26415996D01*
X52093369Y-26236750D01*
X52093368Y-26236745D01*
X52033788Y-26066476D01*
X51973727Y-25970890D01*
X51937816Y-25913738D01*
X51810262Y-25786184D01*
X51657523Y-25690211D01*
X51487254Y-25630631D01*
X51487249Y-25630630D01*
X51308004Y-25610435D01*
X51307996Y-25610435D01*
X51128750Y-25630630D01*
X51128745Y-25630631D01*
X50958476Y-25690211D01*
X50805737Y-25786184D01*
X50678184Y-25913737D01*
X50582211Y-26066476D01*
X50522631Y-26236745D01*
X50522630Y-26236750D01*
X50502435Y-26415996D01*
X50502435Y-26416003D01*
X34500500Y-26416003D01*
X34500500Y-24490000D01*
X47394706Y-24490000D01*
X47413853Y-24733297D01*
X47413853Y-24733300D01*
X47413854Y-24733302D01*
X47470042Y-24967340D01*
X47470830Y-24970619D01*
X47564222Y-25196089D01*
X47691737Y-25404173D01*
X47691738Y-25404176D01*
X47704984Y-25419685D01*
X47850241Y-25589759D01*
X47993897Y-25712453D01*
X48035823Y-25748261D01*
X48035825Y-25748261D01*
X48038633Y-25749982D01*
X48243910Y-25875777D01*
X48469381Y-25969169D01*
X48469378Y-25969169D01*
X48469384Y-25969170D01*
X48469388Y-25969172D01*
X48706698Y-26026146D01*
X48950000Y-26045294D01*
X49193302Y-26026146D01*
X49430612Y-25969172D01*
X49656089Y-25875777D01*
X49864179Y-25748259D01*
X50049759Y-25589759D01*
X50208259Y-25404179D01*
X50335777Y-25196089D01*
X50429172Y-24970612D01*
X50486146Y-24733302D01*
X50505294Y-24490000D01*
X50486146Y-24246698D01*
X50429172Y-24009388D01*
X50425286Y-24000006D01*
X50335777Y-23783910D01*
X50208264Y-23575829D01*
X50208260Y-23575823D01*
X50208259Y-23575821D01*
X50208253Y-23575814D01*
X50205405Y-23571894D01*
X50181920Y-23506090D01*
X50197739Y-23438034D01*
X50247841Y-23389335D01*
X50305717Y-23375000D01*
X50313935Y-23375000D01*
X50538701Y-23337492D01*
X50754219Y-23263504D01*
X50754230Y-23263499D01*
X50954633Y-23155047D01*
X50980982Y-23134537D01*
X50980982Y-23134536D01*
X50455460Y-22609013D01*
X50421975Y-22547690D01*
X50426959Y-22477998D01*
X50464651Y-22427647D01*
X50463666Y-22426510D01*
X50470369Y-22420702D01*
X50577943Y-22327489D01*
X50613334Y-22272418D01*
X50666136Y-22226664D01*
X50735294Y-22216720D01*
X50798850Y-22245744D01*
X50805330Y-22251777D01*
X51333125Y-22779571D01*
X51413420Y-22656669D01*
X51504954Y-22447993D01*
X51560894Y-22227093D01*
X51560896Y-22227085D01*
X51579712Y-22000006D01*
X53319786Y-22000006D01*
X53338608Y-22227168D01*
X53338610Y-22227179D01*
X53394569Y-22448155D01*
X53486137Y-22656908D01*
X53610814Y-22847742D01*
X53639711Y-22879132D01*
X53760947Y-23010830D01*
X53765208Y-23015458D01*
X53765212Y-23015461D01*
X53921175Y-23136852D01*
X53945094Y-23155469D01*
X53945096Y-23155470D01*
X53945099Y-23155472D01*
X54061646Y-23218543D01*
X54145574Y-23263963D01*
X54257529Y-23302397D01*
X54361173Y-23337979D01*
X54361175Y-23337979D01*
X54361177Y-23337980D01*
X54586023Y-23375500D01*
X54586024Y-23375500D01*
X54603919Y-23375500D01*
X54670958Y-23395185D01*
X54716713Y-23447989D01*
X54726657Y-23517147D01*
X54704235Y-23572388D01*
X54701739Y-23575822D01*
X54574222Y-23783910D01*
X54480830Y-24009380D01*
X54423853Y-24246702D01*
X54404706Y-24490000D01*
X54423853Y-24733297D01*
X54423853Y-24733300D01*
X54423854Y-24733302D01*
X54480042Y-24967340D01*
X54480830Y-24970619D01*
X54574222Y-25196089D01*
X54701737Y-25404173D01*
X54701738Y-25404176D01*
X54714984Y-25419685D01*
X54860241Y-25589759D01*
X55003897Y-25712453D01*
X55045823Y-25748261D01*
X55045825Y-25748261D01*
X55048633Y-25749982D01*
X55253910Y-25875777D01*
X55479381Y-25969169D01*
X55479378Y-25969169D01*
X55479384Y-25969170D01*
X55479388Y-25969172D01*
X55716698Y-26026146D01*
X55960000Y-26045294D01*
X56203302Y-26026146D01*
X56440612Y-25969172D01*
X56666089Y-25875777D01*
X56874179Y-25748259D01*
X57059759Y-25589759D01*
X57218259Y-25404179D01*
X57345777Y-25196089D01*
X57353904Y-25176470D01*
X57437192Y-24975393D01*
X57481033Y-24920989D01*
X57547327Y-24898924D01*
X57615026Y-24916203D01*
X57662637Y-24967340D01*
X57666314Y-24975392D01*
X57758442Y-25197810D01*
X57885957Y-25405894D01*
X57885958Y-25405897D01*
X57885961Y-25405900D01*
X58044461Y-25591480D01*
X58188117Y-25714174D01*
X58230043Y-25749982D01*
X58230046Y-25749983D01*
X58438130Y-25877498D01*
X58663601Y-25970890D01*
X58663598Y-25970890D01*
X58663604Y-25970891D01*
X58663608Y-25970893D01*
X58900918Y-26027867D01*
X59144220Y-26047015D01*
X59387522Y-26027867D01*
X59624832Y-25970893D01*
X59850309Y-25877498D01*
X60058399Y-25749980D01*
X60243979Y-25591480D01*
X60402479Y-25405900D01*
X60529997Y-25197810D01*
X60623392Y-24972333D01*
X60680366Y-24735023D01*
X60699514Y-24491721D01*
X60680366Y-24248419D01*
X60623392Y-24011109D01*
X60604704Y-23965992D01*
X60529997Y-23785631D01*
X60402484Y-23577550D01*
X60402480Y-23577544D01*
X60402479Y-23577542D01*
X60402473Y-23577535D01*
X60399625Y-23573615D01*
X60376140Y-23507811D01*
X60391959Y-23439755D01*
X60442061Y-23391056D01*
X60499937Y-23376721D01*
X60508155Y-23376721D01*
X60732921Y-23339213D01*
X60948439Y-23265225D01*
X60948450Y-23265220D01*
X61148853Y-23156768D01*
X61175202Y-23136258D01*
X61175202Y-23136257D01*
X60649680Y-22610734D01*
X60616195Y-22549411D01*
X60621179Y-22479719D01*
X60658871Y-22429368D01*
X60657886Y-22428231D01*
X60666575Y-22420702D01*
X60772163Y-22329210D01*
X60807554Y-22274139D01*
X60860356Y-22228385D01*
X60929514Y-22218441D01*
X60993070Y-22247465D01*
X60999550Y-22253498D01*
X61527345Y-22781292D01*
X61607640Y-22658390D01*
X61699174Y-22449714D01*
X61755114Y-22228814D01*
X61755116Y-22228806D01*
X61773932Y-22001727D01*
X63514006Y-22001727D01*
X63532828Y-22228889D01*
X63532830Y-22228900D01*
X63588789Y-22449876D01*
X63680357Y-22658629D01*
X63805034Y-22849463D01*
X63865385Y-22915021D01*
X63957670Y-23015270D01*
X63959428Y-23017179D01*
X63959432Y-23017182D01*
X64113177Y-23136847D01*
X64139314Y-23157190D01*
X64139316Y-23157191D01*
X64139319Y-23157193D01*
X64255866Y-23220264D01*
X64339794Y-23265684D01*
X64451749Y-23304118D01*
X64555393Y-23339700D01*
X64555395Y-23339700D01*
X64555397Y-23339701D01*
X64780243Y-23377221D01*
X64780244Y-23377221D01*
X64798139Y-23377221D01*
X64865178Y-23396906D01*
X64910933Y-23449710D01*
X64920877Y-23518868D01*
X64898455Y-23574109D01*
X64895959Y-23577543D01*
X64768442Y-23785631D01*
X64675050Y-24011101D01*
X64618073Y-24248423D01*
X64598926Y-24491721D01*
X64618073Y-24735018D01*
X64618073Y-24735021D01*
X64618074Y-24735023D01*
X64674636Y-24970619D01*
X64675050Y-24972340D01*
X64768442Y-25197810D01*
X64895957Y-25405894D01*
X64895958Y-25405897D01*
X64895961Y-25405900D01*
X65054461Y-25591480D01*
X65198117Y-25714174D01*
X65240043Y-25749982D01*
X65240046Y-25749983D01*
X65448130Y-25877498D01*
X65673601Y-25970890D01*
X65673598Y-25970890D01*
X65673604Y-25970891D01*
X65673608Y-25970893D01*
X65910918Y-26027867D01*
X66154220Y-26047015D01*
X66397522Y-26027867D01*
X66634832Y-25970893D01*
X66860309Y-25877498D01*
X67068399Y-25749980D01*
X67253979Y-25591480D01*
X67412479Y-25405900D01*
X67539997Y-25197810D01*
X67633392Y-24972333D01*
X67690366Y-24735023D01*
X67709514Y-24491721D01*
X67690366Y-24248419D01*
X67633392Y-24011109D01*
X67614704Y-23965992D01*
X67539997Y-23785631D01*
X67412482Y-23577547D01*
X67412481Y-23577544D01*
X67301830Y-23447989D01*
X67253979Y-23391962D01*
X67105583Y-23265220D01*
X67068396Y-23233459D01*
X67068393Y-23233458D01*
X66860309Y-23105943D01*
X66634838Y-23012551D01*
X66634841Y-23012551D01*
X66529212Y-22987191D01*
X66397522Y-22955575D01*
X66397520Y-22955574D01*
X66397517Y-22955574D01*
X66221497Y-22941721D01*
X66154220Y-22936427D01*
X66154218Y-22936427D01*
X66149363Y-22936045D01*
X66149477Y-22934593D01*
X66088682Y-22916742D01*
X66042927Y-22863938D01*
X66032983Y-22794780D01*
X66051912Y-22744606D01*
X66081976Y-22698588D01*
X66108082Y-22658630D01*
X66199650Y-22449876D01*
X66255610Y-22228897D01*
X66255618Y-22228806D01*
X66274434Y-22001727D01*
X66274434Y-22001714D01*
X66255611Y-21774552D01*
X66255609Y-21774541D01*
X66199650Y-21553565D01*
X66108082Y-21344812D01*
X65983405Y-21153978D01*
X65841657Y-20999999D01*
X65829014Y-20986265D01*
X65829013Y-20986264D01*
X65829011Y-20986262D01*
X65829007Y-20986259D01*
X65649129Y-20846254D01*
X65649120Y-20846248D01*
X65448652Y-20737761D01*
X65448649Y-20737760D01*
X65448646Y-20737758D01*
X65448640Y-20737756D01*
X65448638Y-20737755D01*
X65233046Y-20663741D01*
X65064408Y-20635601D01*
X65008197Y-20626221D01*
X64780243Y-20626221D01*
X64735273Y-20633725D01*
X64555393Y-20663741D01*
X64339801Y-20737755D01*
X64339787Y-20737761D01*
X64139319Y-20846248D01*
X64139310Y-20846254D01*
X63959432Y-20986259D01*
X63959428Y-20986262D01*
X63805034Y-21153978D01*
X63680357Y-21344812D01*
X63588789Y-21553565D01*
X63532830Y-21774541D01*
X63532828Y-21774552D01*
X63514006Y-22001714D01*
X63514006Y-22001727D01*
X61773932Y-22001727D01*
X61773932Y-22001714D01*
X61755116Y-21774635D01*
X61755114Y-21774627D01*
X61699174Y-21553727D01*
X61607640Y-21345051D01*
X61527344Y-21222148D01*
X60999550Y-21749942D01*
X60938227Y-21783427D01*
X60868535Y-21778443D01*
X60812602Y-21736571D01*
X60807554Y-21729301D01*
X60772164Y-21674234D01*
X60772163Y-21674232D01*
X60664589Y-21581019D01*
X60664588Y-21581018D01*
X60657886Y-21575211D01*
X60659989Y-21572783D01*
X60624556Y-21531876D01*
X60614627Y-21462716D01*
X60643664Y-21399166D01*
X60649680Y-21392706D01*
X61175203Y-20867182D01*
X61148852Y-20846673D01*
X61148847Y-20846670D01*
X60948450Y-20738221D01*
X60948439Y-20738216D01*
X60732921Y-20664228D01*
X60508155Y-20626721D01*
X60280285Y-20626721D01*
X60055518Y-20664228D01*
X59840000Y-20738216D01*
X59839989Y-20738221D01*
X59639593Y-20846669D01*
X59613236Y-20867183D01*
X60138759Y-21392707D01*
X60172244Y-21454030D01*
X60167260Y-21523722D01*
X60129567Y-21574072D01*
X60130554Y-21575211D01*
X60016275Y-21674234D01*
X59980885Y-21729302D01*
X59928081Y-21775057D01*
X59858922Y-21785000D01*
X59795367Y-21755975D01*
X59788889Y-21749943D01*
X59261094Y-21222149D01*
X59180798Y-21345054D01*
X59180797Y-21345056D01*
X59089265Y-21553727D01*
X59033325Y-21774627D01*
X59033323Y-21774635D01*
X59014508Y-22001714D01*
X59014508Y-22001727D01*
X59033323Y-22228806D01*
X59033325Y-22228814D01*
X59089265Y-22449714D01*
X59180799Y-22658390D01*
X59237421Y-22745057D01*
X59257609Y-22811947D01*
X59238428Y-22879132D01*
X59185969Y-22925282D01*
X59143341Y-22936496D01*
X58900922Y-22955574D01*
X58857133Y-22966087D01*
X58670777Y-23010828D01*
X58663600Y-23012551D01*
X58438130Y-23105943D01*
X58230046Y-23233458D01*
X58230043Y-23233459D01*
X58044461Y-23391962D01*
X57885958Y-23577544D01*
X57885957Y-23577547D01*
X57758442Y-23785631D01*
X57667027Y-24006328D01*
X57623186Y-24060731D01*
X57556892Y-24082796D01*
X57489192Y-24065517D01*
X57441582Y-24014379D01*
X57437905Y-24006328D01*
X57345777Y-23783910D01*
X57226938Y-23589984D01*
X57218261Y-23575825D01*
X57218261Y-23575823D01*
X57158703Y-23506090D01*
X57059759Y-23390241D01*
X56911363Y-23263499D01*
X56874176Y-23231738D01*
X56874173Y-23231737D01*
X56666089Y-23104222D01*
X56440618Y-23010830D01*
X56440621Y-23010830D01*
X56254255Y-22966087D01*
X56203302Y-22953854D01*
X56203300Y-22953853D01*
X56203297Y-22953853D01*
X56027277Y-22940000D01*
X55960000Y-22934706D01*
X55959998Y-22934706D01*
X55955143Y-22934324D01*
X55955257Y-22932872D01*
X55894462Y-22915021D01*
X55848707Y-22862217D01*
X55838763Y-22793059D01*
X55857692Y-22742885D01*
X55887756Y-22696867D01*
X55913862Y-22656909D01*
X56005430Y-22448155D01*
X56061390Y-22227176D01*
X56061398Y-22227085D01*
X56080214Y-22000006D01*
X56080214Y-21999993D01*
X56061391Y-21772831D01*
X56061389Y-21772820D01*
X56005430Y-21551844D01*
X55913862Y-21343091D01*
X55789185Y-21152257D01*
X55709680Y-21065892D01*
X55634794Y-20984544D01*
X55634793Y-20984543D01*
X55634791Y-20984541D01*
X55634787Y-20984538D01*
X55454909Y-20844533D01*
X55454900Y-20844527D01*
X55254432Y-20736040D01*
X55254429Y-20736039D01*
X55254426Y-20736037D01*
X55254420Y-20736035D01*
X55254418Y-20736034D01*
X55038826Y-20662020D01*
X54870188Y-20633880D01*
X54813977Y-20624500D01*
X54586023Y-20624500D01*
X54541053Y-20632004D01*
X54361173Y-20662020D01*
X54145581Y-20736034D01*
X54145567Y-20736040D01*
X53945099Y-20844527D01*
X53945090Y-20844533D01*
X53765212Y-20984538D01*
X53765208Y-20984541D01*
X53610814Y-21152257D01*
X53486137Y-21343091D01*
X53394569Y-21551844D01*
X53338610Y-21772820D01*
X53338608Y-21772831D01*
X53319786Y-21999993D01*
X53319786Y-22000006D01*
X51579712Y-22000006D01*
X51579712Y-21999993D01*
X51560896Y-21772914D01*
X51560894Y-21772906D01*
X51504954Y-21552006D01*
X51413420Y-21343330D01*
X51333124Y-21220427D01*
X50805330Y-21748221D01*
X50744007Y-21781706D01*
X50674315Y-21776722D01*
X50618382Y-21734850D01*
X50613334Y-21727580D01*
X50577944Y-21672513D01*
X50577943Y-21672511D01*
X50470369Y-21579298D01*
X50470368Y-21579297D01*
X50463666Y-21573490D01*
X50465769Y-21571062D01*
X50430336Y-21530155D01*
X50420407Y-21460995D01*
X50449444Y-21397445D01*
X50455460Y-21390985D01*
X50980983Y-20865461D01*
X50954632Y-20844952D01*
X50954627Y-20844949D01*
X50754230Y-20736500D01*
X50754219Y-20736495D01*
X50538701Y-20662507D01*
X50313935Y-20625000D01*
X50086065Y-20625000D01*
X49861298Y-20662507D01*
X49645780Y-20736495D01*
X49645769Y-20736500D01*
X49445373Y-20844948D01*
X49419016Y-20865462D01*
X49944539Y-21390986D01*
X49978024Y-21452309D01*
X49973040Y-21522001D01*
X49935347Y-21572351D01*
X49936334Y-21573490D01*
X49822055Y-21672513D01*
X49786665Y-21727581D01*
X49733861Y-21773336D01*
X49664702Y-21783279D01*
X49601147Y-21754254D01*
X49594669Y-21748222D01*
X49066874Y-21220428D01*
X48986578Y-21343333D01*
X48986577Y-21343335D01*
X48895045Y-21552006D01*
X48839105Y-21772906D01*
X48839103Y-21772914D01*
X48820288Y-21999993D01*
X48820288Y-22000006D01*
X48839103Y-22227085D01*
X48839105Y-22227093D01*
X48895045Y-22447993D01*
X48986579Y-22656669D01*
X49043201Y-22743336D01*
X49063389Y-22810226D01*
X49044208Y-22877411D01*
X48991749Y-22923561D01*
X48949121Y-22934775D01*
X48706702Y-22953853D01*
X48469380Y-23010830D01*
X48243910Y-23104222D01*
X48035826Y-23231737D01*
X48035823Y-23231738D01*
X47850241Y-23390241D01*
X47691738Y-23575823D01*
X47691737Y-23575826D01*
X47564222Y-23783910D01*
X47470830Y-24009380D01*
X47413853Y-24246702D01*
X47394706Y-24490000D01*
X34500500Y-24490000D01*
X34500500Y-21002212D01*
X34500658Y-20997788D01*
X34501482Y-20986265D01*
X34515130Y-20795436D01*
X34517646Y-20777938D01*
X34559356Y-20586199D01*
X34564333Y-20569248D01*
X34632911Y-20385385D01*
X34640259Y-20369298D01*
X34702815Y-20254734D01*
X34734291Y-20197089D01*
X34743845Y-20182221D01*
X34861448Y-20025123D01*
X34873020Y-20011769D01*
X35011769Y-19873020D01*
X35025123Y-19861448D01*
X35182221Y-19743845D01*
X35197089Y-19734291D01*
X35369298Y-19640258D01*
X35385385Y-19632911D01*
X35569248Y-19564333D01*
X35586199Y-19559356D01*
X35777938Y-19517646D01*
X35795436Y-19515130D01*
X35997791Y-19500657D01*
X36002214Y-19500500D01*
X36065892Y-19500500D01*
X73934108Y-19500500D01*
X73997786Y-19500500D01*
X74002208Y-19500657D01*
G37*
%TD.AperFunction*%
%TD*%
M02*
