%TF.GenerationSoftware,KiCad,Pcbnew,7.0.7-7.0.7~ubuntu22.04.1*%
%TF.CreationDate,2023-09-11T18:28:41+01:00*%
%TF.ProjectId,Blinder,426c696e-6465-4722-9e6b-696361645f70,rev?*%
%TF.SameCoordinates,Original*%
%TF.FileFunction,Copper,L3,Inr*%
%TF.FilePolarity,Positive*%
%FSLAX46Y46*%
G04 Gerber Fmt 4.6, Leading zero omitted, Abs format (unit mm)*
G04 Created by KiCad (PCBNEW 7.0.7-7.0.7~ubuntu22.04.1) date 2023-09-11 18:28:41*
%MOMM*%
%LPD*%
G01*
G04 APERTURE LIST*
G04 Aperture macros list*
%AMRoundRect*
0 Rectangle with rounded corners*
0 $1 Rounding radius*
0 $2 $3 $4 $5 $6 $7 $8 $9 X,Y pos of 4 corners*
0 Add a 4 corners polygon primitive as box body*
4,1,4,$2,$3,$4,$5,$6,$7,$8,$9,$2,$3,0*
0 Add four circle primitives for the rounded corners*
1,1,$1+$1,$2,$3*
1,1,$1+$1,$4,$5*
1,1,$1+$1,$6,$7*
1,1,$1+$1,$8,$9*
0 Add four rect primitives between the rounded corners*
20,1,$1+$1,$2,$3,$4,$5,0*
20,1,$1+$1,$4,$5,$6,$7,0*
20,1,$1+$1,$6,$7,$8,$9,0*
20,1,$1+$1,$8,$9,$2,$3,0*%
G04 Aperture macros list end*
%TA.AperFunction,ComponentPad*%
%ADD10R,1.800000X1.800000*%
%TD*%
%TA.AperFunction,ComponentPad*%
%ADD11C,1.800000*%
%TD*%
%TA.AperFunction,ComponentPad*%
%ADD12O,1.800000X3.600000*%
%TD*%
%TA.AperFunction,ComponentPad*%
%ADD13RoundRect,0.250000X-0.350000X-0.625000X0.350000X-0.625000X0.350000X0.625000X-0.350000X0.625000X0*%
%TD*%
%TA.AperFunction,ComponentPad*%
%ADD14O,1.200000X1.750000*%
%TD*%
%TA.AperFunction,ComponentPad*%
%ADD15C,2.100000*%
%TD*%
%TA.AperFunction,ComponentPad*%
%ADD16C,1.750000*%
%TD*%
%TA.AperFunction,ComponentPad*%
%ADD17O,1.700000X1.700000*%
%TD*%
%TA.AperFunction,ComponentPad*%
%ADD18R,1.700000X1.700000*%
%TD*%
%TA.AperFunction,ComponentPad*%
%ADD19O,2.190000X1.740000*%
%TD*%
%TA.AperFunction,ComponentPad*%
%ADD20RoundRect,0.250000X-0.845000X0.620000X-0.845000X-0.620000X0.845000X-0.620000X0.845000X0.620000X0*%
%TD*%
%TA.AperFunction,ComponentPad*%
%ADD21C,1.524000*%
%TD*%
%TA.AperFunction,ViaPad*%
%ADD22C,0.600000*%
%TD*%
%TA.AperFunction,Conductor*%
%ADD23C,0.500000*%
%TD*%
G04 APERTURE END LIST*
D10*
%TO.N,GND*%
%TO.C,D1*%
X74000000Y-24000000D03*
D11*
%TO.N,Net-(D1-A)*%
X71460000Y-24000000D03*
%TD*%
D12*
%TO.N,Net-(IC1-ENABLE)*%
%TO.C,IC1*%
X37220000Y-53650000D03*
%TO.N,GND*%
X38920000Y-58730000D03*
%TO.N,Net-(IC1-VREF)*%
X40620000Y-53650000D03*
%TO.N,Net-(IC1-CBOOT2)*%
X42320000Y-58730000D03*
%TO.N,Net-(IC1-IN2)*%
X44020000Y-53650000D03*
%TO.N,GND*%
X45720000Y-58730000D03*
%TO.N,Net-(IC1-IN1)*%
X47420000Y-53650000D03*
%TO.N,Net-(IC1-CBOOT1)*%
X49120000Y-58730000D03*
%TO.N,Net-(IC1-OUT1)*%
X50820000Y-53650000D03*
%TO.N,/12V*%
X52520000Y-58730000D03*
%TO.N,Net-(IC1-OUT2)*%
X54220000Y-53650000D03*
%TD*%
D13*
%TO.N,Net-(IC1-OUT1)*%
%TO.C,J5*%
X51340000Y-48260000D03*
D14*
%TO.N,Net-(IC1-OUT2)*%
X53340000Y-48260000D03*
%TD*%
D15*
%TO.N,*%
%TO.C,SW2*%
X48950000Y-24490000D03*
X55960000Y-24490000D03*
D16*
%TO.N,GND*%
X50200000Y-22000000D03*
%TO.N,Net-(U2-GPIO12)*%
X54700000Y-22000000D03*
%TD*%
D14*
%TO.N,Net-(IC1-IN1)*%
%TO.C,J3*%
X63000000Y-48980000D03*
%TO.N,/GO DOWN*%
X61000000Y-48980000D03*
D13*
%TO.N,/~{CLOSED}*%
X59000000Y-48980000D03*
%TD*%
D17*
%TO.N,GND*%
%TO.C,J2*%
X52000000Y-43180000D03*
%TO.N,/DTR*%
X52000000Y-40640000D03*
%TO.N,/RXD*%
X52000000Y-38100000D03*
%TO.N,/TXD*%
X52000000Y-35560000D03*
%TO.N,/RTS*%
X52000000Y-33020000D03*
D18*
%TO.N,/3V3*%
X52000000Y-30480000D03*
%TD*%
D14*
%TO.N,Net-(IC1-IN2)*%
%TO.C,J4*%
X73000000Y-49000000D03*
%TO.N,/GO UP*%
X71000000Y-49000000D03*
D13*
%TO.N,/~{OPEN}*%
X69000000Y-49000000D03*
%TD*%
D19*
%TO.N,GND*%
%TO.C,J1*%
X39370000Y-45720000D03*
D20*
%TO.N,/12V*%
X39370000Y-43180000D03*
%TD*%
D21*
%TO.N,unconnected-(U1-EN-Pad1)*%
%TO.C,U1*%
X38100000Y-38100000D03*
%TO.N,/12V*%
X40640000Y-38100000D03*
%TO.N,GND*%
X43180000Y-38100000D03*
%TO.N,/3V3*%
X45720000Y-38100000D03*
%TD*%
D16*
%TO.N,Net-(U2-GPIO14)*%
%TO.C,SW1*%
X64894220Y-22001721D03*
%TO.N,GND*%
X60394220Y-22001721D03*
D15*
%TO.N,*%
X66154220Y-24491721D03*
X59144220Y-24491721D03*
%TD*%
D22*
%TO.N,Net-(U2-GPIO13)*%
X71120000Y-26670000D03*
X62168000Y-31688000D03*
%TO.N,Net-(U2-EN)*%
X51308000Y-26416000D03*
X69469000Y-26451500D03*
%TO.N,/RTS*%
X74168000Y-33020000D03*
%TO.N,Net-(IC1-ENABLE)*%
X66167000Y-42164000D03*
%TO.N,/TXD*%
X72136000Y-38989000D03*
%TO.N,/RXD*%
X74168000Y-40386000D03*
%TO.N,GND*%
X56896000Y-28067000D03*
%TO.N,/~{OPEN}*%
X68199000Y-41529000D03*
%TO.N,/12V*%
X57150000Y-57531000D03*
%TO.N,GND*%
X57150000Y-62103000D03*
%TD*%
D23*
%TO.N,/12V*%
X40640000Y-38100000D02*
X39370000Y-39370000D01*
X39370000Y-39370000D02*
X39370000Y-43180000D01*
X57150000Y-57531000D02*
X55951000Y-58730000D01*
X55951000Y-58730000D02*
X52520000Y-58730000D01*
X52520000Y-58730000D02*
X52520000Y-51631000D01*
X52520000Y-51631000D02*
X44069000Y-43180000D01*
X44069000Y-43180000D02*
X39370000Y-43180000D01*
%TD*%
%TA.AperFunction,Conductor*%
%TO.N,/12V*%
G36*
X65943039Y-19520185D02*
G01*
X65988794Y-19572989D01*
X66000000Y-19624500D01*
X65999999Y-20865702D01*
X65980314Y-20932742D01*
X65927510Y-20978496D01*
X65858352Y-20988440D01*
X65799837Y-20963555D01*
X65649129Y-20846254D01*
X65649120Y-20846248D01*
X65448652Y-20737761D01*
X65448649Y-20737760D01*
X65448646Y-20737758D01*
X65448640Y-20737756D01*
X65448638Y-20737755D01*
X65233046Y-20663741D01*
X65064408Y-20635601D01*
X65008197Y-20626221D01*
X64780243Y-20626221D01*
X64735273Y-20633725D01*
X64555393Y-20663741D01*
X64339801Y-20737755D01*
X64339787Y-20737761D01*
X64139319Y-20846248D01*
X64139310Y-20846254D01*
X63959432Y-20986259D01*
X63959428Y-20986262D01*
X63805034Y-21153978D01*
X63680357Y-21344812D01*
X63588789Y-21553565D01*
X63532830Y-21774541D01*
X63532828Y-21774552D01*
X63514006Y-22001714D01*
X63514006Y-22001727D01*
X63532828Y-22228889D01*
X63532830Y-22228900D01*
X63588789Y-22449876D01*
X63680357Y-22658629D01*
X63805034Y-22849463D01*
X63832388Y-22879177D01*
X63955167Y-23012551D01*
X63959428Y-23017179D01*
X63959432Y-23017182D01*
X64139314Y-23157190D01*
X64139316Y-23157191D01*
X64139319Y-23157193D01*
X64255866Y-23220264D01*
X64339794Y-23265684D01*
X64451749Y-23304118D01*
X64555393Y-23339700D01*
X64555395Y-23339700D01*
X64555397Y-23339701D01*
X64780243Y-23377221D01*
X64780244Y-23377221D01*
X64798139Y-23377221D01*
X64865178Y-23396906D01*
X64910933Y-23449710D01*
X64920877Y-23518868D01*
X64898455Y-23574109D01*
X64895959Y-23577543D01*
X64768442Y-23785631D01*
X64675050Y-24011101D01*
X64618073Y-24248423D01*
X64598926Y-24491721D01*
X64618073Y-24735018D01*
X64618073Y-24735021D01*
X64618074Y-24735023D01*
X64674636Y-24970619D01*
X64675050Y-24972340D01*
X64768442Y-25197810D01*
X64895957Y-25405894D01*
X64895958Y-25405897D01*
X64895961Y-25405900D01*
X65054461Y-25591480D01*
X65198117Y-25714174D01*
X65240043Y-25749982D01*
X65240046Y-25749983D01*
X65448130Y-25877498D01*
X65673601Y-25970890D01*
X65673598Y-25970890D01*
X65673604Y-25970891D01*
X65673608Y-25970893D01*
X65904950Y-26026434D01*
X65965539Y-26061224D01*
X65997703Y-26123251D01*
X66000000Y-26147007D01*
X65999999Y-41286361D01*
X65980314Y-41353400D01*
X65927510Y-41399155D01*
X65916953Y-41403403D01*
X65817478Y-41438210D01*
X65664737Y-41534184D01*
X65537184Y-41661737D01*
X65441211Y-41814476D01*
X65381631Y-41984745D01*
X65381630Y-41984750D01*
X65361435Y-42163996D01*
X65361435Y-42164003D01*
X65381630Y-42343249D01*
X65381631Y-42343254D01*
X65441211Y-42513523D01*
X65533418Y-42660269D01*
X65537184Y-42666262D01*
X65664738Y-42793816D01*
X65801792Y-42879933D01*
X65817478Y-42889789D01*
X65916954Y-42924597D01*
X65973730Y-42965319D01*
X65999478Y-43030271D01*
X66000000Y-43041639D01*
X65999999Y-53457073D01*
X65980314Y-53524112D01*
X65978049Y-53527512D01*
X65856217Y-53704018D01*
X65856206Y-53704035D01*
X65715628Y-53971882D01*
X65608358Y-54254727D01*
X65578200Y-54377085D01*
X65535963Y-54548449D01*
X65530453Y-54593827D01*
X65499499Y-54848745D01*
X65499499Y-54988861D01*
X65499500Y-54988866D01*
X65499500Y-63375500D01*
X65479815Y-63442539D01*
X65427011Y-63488294D01*
X65375500Y-63499500D01*
X34624500Y-63499500D01*
X34557461Y-63479815D01*
X34511706Y-63427011D01*
X34500500Y-63375500D01*
X34500500Y-62103003D01*
X56344435Y-62103003D01*
X56364630Y-62282249D01*
X56364631Y-62282254D01*
X56424211Y-62452523D01*
X56520184Y-62605261D01*
X56520184Y-62605262D01*
X56647738Y-62732816D01*
X56800478Y-62828789D01*
X56970745Y-62888368D01*
X56970750Y-62888369D01*
X57149996Y-62908565D01*
X57150000Y-62908565D01*
X57150004Y-62908565D01*
X57329249Y-62888369D01*
X57329252Y-62888368D01*
X57329255Y-62888368D01*
X57499522Y-62828789D01*
X57652262Y-62732816D01*
X57779816Y-62605262D01*
X57875789Y-62452522D01*
X57935368Y-62282255D01*
X57955565Y-62103000D01*
X57935368Y-61923745D01*
X57875789Y-61753478D01*
X57779816Y-61600738D01*
X57652262Y-61473184D01*
X57652262Y-61473183D01*
X57499523Y-61377211D01*
X57329254Y-61317631D01*
X57329249Y-61317630D01*
X57150004Y-61297435D01*
X57149996Y-61297435D01*
X56970750Y-61317630D01*
X56970745Y-61317631D01*
X56800476Y-61377211D01*
X56647737Y-61473184D01*
X56520184Y-61600737D01*
X56424211Y-61753476D01*
X56364631Y-61923745D01*
X56364630Y-61923750D01*
X56344435Y-62102996D01*
X56344435Y-62103003D01*
X34500500Y-62103003D01*
X34500500Y-59689502D01*
X37519500Y-59689502D01*
X37534652Y-59867536D01*
X37594724Y-60098248D01*
X37692919Y-60315480D01*
X37692924Y-60315488D01*
X37826413Y-60512993D01*
X37826418Y-60512998D01*
X37826421Y-60513003D01*
X37991379Y-60685118D01*
X38183053Y-60826879D01*
X38395926Y-60934207D01*
X38623877Y-61004016D01*
X38860346Y-61034298D01*
X39098532Y-61024180D01*
X39331581Y-60973954D01*
X39552790Y-60885064D01*
X39755795Y-60760069D01*
X39934755Y-60602564D01*
X40084523Y-60417080D01*
X40200790Y-60208954D01*
X40280211Y-59984171D01*
X40300224Y-59867453D01*
X40320499Y-59749209D01*
X40320500Y-59749198D01*
X40320500Y-59689502D01*
X40919500Y-59689502D01*
X40934652Y-59867536D01*
X40994724Y-60098248D01*
X41092919Y-60315480D01*
X41092924Y-60315488D01*
X41226413Y-60512993D01*
X41226418Y-60512998D01*
X41226421Y-60513003D01*
X41391379Y-60685118D01*
X41583053Y-60826879D01*
X41795926Y-60934207D01*
X42023877Y-61004016D01*
X42260346Y-61034298D01*
X42498532Y-61024180D01*
X42731581Y-60973954D01*
X42952790Y-60885064D01*
X43155795Y-60760069D01*
X43334755Y-60602564D01*
X43484523Y-60417080D01*
X43600790Y-60208954D01*
X43680211Y-59984171D01*
X43700224Y-59867453D01*
X43720499Y-59749209D01*
X43720499Y-59749205D01*
X43720500Y-59749200D01*
X43720500Y-59689502D01*
X44319500Y-59689502D01*
X44334652Y-59867536D01*
X44394724Y-60098248D01*
X44492919Y-60315480D01*
X44492924Y-60315488D01*
X44626413Y-60512993D01*
X44626418Y-60512998D01*
X44626421Y-60513003D01*
X44791379Y-60685118D01*
X44983053Y-60826879D01*
X45195926Y-60934207D01*
X45423877Y-61004016D01*
X45660346Y-61034298D01*
X45898532Y-61024180D01*
X46131581Y-60973954D01*
X46352790Y-60885064D01*
X46555795Y-60760069D01*
X46734755Y-60602564D01*
X46884523Y-60417080D01*
X47000790Y-60208954D01*
X47080211Y-59984171D01*
X47100224Y-59867453D01*
X47120499Y-59749209D01*
X47120499Y-59749205D01*
X47120500Y-59749200D01*
X47120500Y-59689502D01*
X47719500Y-59689502D01*
X47734652Y-59867536D01*
X47794724Y-60098248D01*
X47892919Y-60315480D01*
X47892924Y-60315488D01*
X48026413Y-60512993D01*
X48026418Y-60512998D01*
X48026421Y-60513003D01*
X48191379Y-60685118D01*
X48383053Y-60826879D01*
X48595926Y-60934207D01*
X48823877Y-61004016D01*
X49060346Y-61034298D01*
X49298532Y-61024180D01*
X49531581Y-60973954D01*
X49752790Y-60885064D01*
X49955795Y-60760069D01*
X50134755Y-60602564D01*
X50284523Y-60417080D01*
X50400790Y-60208954D01*
X50480211Y-59984171D01*
X50500224Y-59867453D01*
X50520499Y-59749209D01*
X50520499Y-59749205D01*
X50520500Y-59749200D01*
X50520500Y-59689478D01*
X51120000Y-59689478D01*
X51135147Y-59867450D01*
X51135148Y-59867453D01*
X51195197Y-60098078D01*
X51293360Y-60315241D01*
X51293362Y-60315244D01*
X51426812Y-60512688D01*
X51426814Y-60512690D01*
X51591706Y-60684736D01*
X51783316Y-60826450D01*
X51996115Y-60933741D01*
X52223987Y-61003526D01*
X52223985Y-61003526D01*
X52270000Y-61009418D01*
X52270000Y-59443658D01*
X52289685Y-59376619D01*
X52342489Y-59330864D01*
X52410184Y-59320719D01*
X52480677Y-59330000D01*
X52480684Y-59330000D01*
X52559316Y-59330000D01*
X52559323Y-59330000D01*
X52629815Y-59320719D01*
X52698849Y-59331484D01*
X52751105Y-59377864D01*
X52770000Y-59443658D01*
X52770000Y-61008264D01*
X52931434Y-60973473D01*
X53152562Y-60884616D01*
X53355494Y-60759666D01*
X53534389Y-60602219D01*
X53534396Y-60602213D01*
X53684102Y-60416805D01*
X53684109Y-60416795D01*
X53800331Y-60208751D01*
X53879722Y-59984052D01*
X53879726Y-59984038D01*
X53919999Y-59749167D01*
X53920000Y-59749156D01*
X53920000Y-58980000D01*
X53233658Y-58980000D01*
X53166619Y-58960315D01*
X53120864Y-58907511D01*
X53110719Y-58839816D01*
X53125177Y-58730000D01*
X53110719Y-58620183D01*
X53121484Y-58551151D01*
X53167864Y-58498895D01*
X53233658Y-58480000D01*
X53920000Y-58480000D01*
X53920000Y-57770522D01*
X53904852Y-57592549D01*
X53904851Y-57592546D01*
X53844802Y-57361921D01*
X53746639Y-57144758D01*
X53746637Y-57144755D01*
X53613187Y-56947311D01*
X53613185Y-56947309D01*
X53448293Y-56775263D01*
X53256683Y-56633549D01*
X53043884Y-56526257D01*
X52816020Y-56456475D01*
X52770000Y-56450581D01*
X52770000Y-58016341D01*
X52750315Y-58083380D01*
X52697511Y-58129135D01*
X52629815Y-58139280D01*
X52559333Y-58130001D01*
X52559328Y-58130000D01*
X52559323Y-58130000D01*
X52480677Y-58130000D01*
X52480671Y-58130000D01*
X52480666Y-58130001D01*
X52410185Y-58139280D01*
X52341150Y-58128514D01*
X52288894Y-58082134D01*
X52270000Y-58016341D01*
X52270000Y-56451734D01*
X52269999Y-56451734D01*
X52108566Y-56486525D01*
X51887437Y-56575383D01*
X51684505Y-56700333D01*
X51505610Y-56857780D01*
X51505603Y-56857786D01*
X51355897Y-57043194D01*
X51355890Y-57043204D01*
X51239668Y-57251248D01*
X51160277Y-57475947D01*
X51160273Y-57475961D01*
X51120000Y-57710832D01*
X51120000Y-58480000D01*
X51806342Y-58480000D01*
X51873381Y-58499685D01*
X51919136Y-58552489D01*
X51929280Y-58620183D01*
X51914823Y-58730000D01*
X51929280Y-58839816D01*
X51918516Y-58908849D01*
X51872136Y-58961105D01*
X51806342Y-58980000D01*
X51120000Y-58980000D01*
X51120000Y-59689478D01*
X50520500Y-59689478D01*
X50520500Y-57770503D01*
X50507524Y-57618044D01*
X50505347Y-57592463D01*
X50445275Y-57361751D01*
X50347080Y-57144519D01*
X50347075Y-57144511D01*
X50213586Y-56947006D01*
X50213582Y-56947001D01*
X50213579Y-56946997D01*
X50048621Y-56774882D01*
X49856947Y-56633121D01*
X49644074Y-56525793D01*
X49514283Y-56486045D01*
X49416121Y-56455983D01*
X49179647Y-56425701D01*
X48941471Y-56435819D01*
X48941467Y-56435819D01*
X48708419Y-56486045D01*
X48487211Y-56574935D01*
X48284203Y-56699932D01*
X48105245Y-56857435D01*
X48032676Y-56947311D01*
X47955477Y-57042920D01*
X47955475Y-57042922D01*
X47955476Y-57042922D01*
X47839210Y-57251044D01*
X47759788Y-57475829D01*
X47719500Y-57710790D01*
X47719500Y-59689502D01*
X47120500Y-59689502D01*
X47120500Y-57770503D01*
X47107524Y-57618044D01*
X47105347Y-57592463D01*
X47045275Y-57361751D01*
X46947080Y-57144519D01*
X46947075Y-57144511D01*
X46813586Y-56947006D01*
X46813582Y-56947001D01*
X46813579Y-56946997D01*
X46648621Y-56774882D01*
X46456947Y-56633121D01*
X46244074Y-56525793D01*
X46114283Y-56486045D01*
X46016121Y-56455983D01*
X45779647Y-56425701D01*
X45541471Y-56435819D01*
X45541467Y-56435819D01*
X45308419Y-56486045D01*
X45087211Y-56574935D01*
X44884203Y-56699932D01*
X44705245Y-56857435D01*
X44632676Y-56947311D01*
X44555477Y-57042920D01*
X44555475Y-57042922D01*
X44555476Y-57042922D01*
X44439210Y-57251044D01*
X44359788Y-57475829D01*
X44319500Y-57710790D01*
X44319500Y-59689502D01*
X43720500Y-59689502D01*
X43720500Y-57770503D01*
X43707524Y-57618044D01*
X43705347Y-57592463D01*
X43645275Y-57361751D01*
X43547080Y-57144519D01*
X43547075Y-57144511D01*
X43413586Y-56947006D01*
X43413582Y-56947001D01*
X43413579Y-56946997D01*
X43248621Y-56774882D01*
X43056947Y-56633121D01*
X42844074Y-56525793D01*
X42714283Y-56486045D01*
X42616121Y-56455983D01*
X42379647Y-56425701D01*
X42141471Y-56435819D01*
X42141467Y-56435819D01*
X41908419Y-56486045D01*
X41687211Y-56574935D01*
X41484203Y-56699932D01*
X41305245Y-56857435D01*
X41232676Y-56947311D01*
X41155477Y-57042920D01*
X41155475Y-57042922D01*
X41155476Y-57042922D01*
X41039210Y-57251044D01*
X40959788Y-57475829D01*
X40919500Y-57710790D01*
X40919500Y-59689502D01*
X40320500Y-59689502D01*
X40320500Y-57770498D01*
X40305347Y-57592463D01*
X40245275Y-57361751D01*
X40147080Y-57144519D01*
X40147075Y-57144511D01*
X40013586Y-56947006D01*
X40013582Y-56947001D01*
X40013579Y-56946997D01*
X39848621Y-56774882D01*
X39656947Y-56633121D01*
X39444074Y-56525793D01*
X39314283Y-56486045D01*
X39216121Y-56455983D01*
X38979647Y-56425701D01*
X38741471Y-56435819D01*
X38741467Y-56435819D01*
X38508419Y-56486045D01*
X38287211Y-56574935D01*
X38084203Y-56699932D01*
X37905245Y-56857435D01*
X37832676Y-56947311D01*
X37755477Y-57042920D01*
X37755475Y-57042922D01*
X37755476Y-57042922D01*
X37639210Y-57251044D01*
X37559788Y-57475829D01*
X37519500Y-57710790D01*
X37519500Y-59689502D01*
X34500500Y-59689502D01*
X34500500Y-56067763D01*
X60145787Y-56067763D01*
X60175413Y-56337013D01*
X60175415Y-56337024D01*
X60243926Y-56599082D01*
X60243928Y-56599088D01*
X60349870Y-56848390D01*
X60410055Y-56947006D01*
X60490979Y-57079605D01*
X60490986Y-57079615D01*
X60664253Y-57287819D01*
X60664259Y-57287824D01*
X60865998Y-57468582D01*
X61091910Y-57618044D01*
X61337176Y-57733020D01*
X61337183Y-57733022D01*
X61337185Y-57733023D01*
X61596557Y-57811057D01*
X61596564Y-57811058D01*
X61596569Y-57811060D01*
X61864561Y-57850500D01*
X61864566Y-57850500D01*
X62067636Y-57850500D01*
X62119133Y-57846730D01*
X62270156Y-57835677D01*
X62382758Y-57810593D01*
X62534546Y-57776782D01*
X62534548Y-57776781D01*
X62534553Y-57776780D01*
X62787558Y-57680014D01*
X63023777Y-57547441D01*
X63238177Y-57381888D01*
X63426186Y-57186881D01*
X63583799Y-56966579D01*
X63682358Y-56774881D01*
X63707649Y-56725690D01*
X63707651Y-56725684D01*
X63707656Y-56725675D01*
X63795118Y-56469305D01*
X63844319Y-56202933D01*
X63854212Y-55932235D01*
X63824586Y-55662982D01*
X63756072Y-55400912D01*
X63650130Y-55151610D01*
X63509018Y-54920390D01*
X63507845Y-54918981D01*
X63335746Y-54712180D01*
X63335740Y-54712175D01*
X63134002Y-54531418D01*
X62908092Y-54381957D01*
X62897699Y-54377085D01*
X62662824Y-54266980D01*
X62662819Y-54266978D01*
X62662814Y-54266976D01*
X62403442Y-54188942D01*
X62403428Y-54188939D01*
X62287791Y-54171921D01*
X62135439Y-54149500D01*
X61932369Y-54149500D01*
X61932364Y-54149500D01*
X61729844Y-54164323D01*
X61729831Y-54164325D01*
X61465453Y-54223217D01*
X61465446Y-54223220D01*
X61212439Y-54319987D01*
X60976226Y-54452557D01*
X60761822Y-54618112D01*
X60573822Y-54813109D01*
X60573816Y-54813116D01*
X60416202Y-55033419D01*
X60416199Y-55033424D01*
X60292350Y-55274309D01*
X60292343Y-55274327D01*
X60204884Y-55530685D01*
X60204881Y-55530699D01*
X60155681Y-55797068D01*
X60155680Y-55797075D01*
X60145787Y-56067763D01*
X34500500Y-56067763D01*
X34500500Y-54609502D01*
X35819500Y-54609502D01*
X35834652Y-54787536D01*
X35894724Y-55018248D01*
X35992919Y-55235480D01*
X35992924Y-55235488D01*
X36126413Y-55432993D01*
X36126418Y-55432998D01*
X36126421Y-55433003D01*
X36291379Y-55605118D01*
X36483053Y-55746879D01*
X36695926Y-55854207D01*
X36923877Y-55924016D01*
X37160346Y-55954298D01*
X37398532Y-55944180D01*
X37631581Y-55893954D01*
X37852790Y-55805064D01*
X38055795Y-55680069D01*
X38234755Y-55522564D01*
X38384523Y-55337080D01*
X38500790Y-55128954D01*
X38580211Y-54904171D01*
X38600210Y-54787536D01*
X38620499Y-54669209D01*
X38620500Y-54669198D01*
X38620500Y-54609502D01*
X39219500Y-54609502D01*
X39234652Y-54787536D01*
X39294724Y-55018248D01*
X39392919Y-55235480D01*
X39392924Y-55235488D01*
X39526413Y-55432993D01*
X39526418Y-55432998D01*
X39526421Y-55433003D01*
X39691379Y-55605118D01*
X39883053Y-55746879D01*
X40095926Y-55854207D01*
X40323877Y-55924016D01*
X40560346Y-55954298D01*
X40798532Y-55944180D01*
X41031581Y-55893954D01*
X41252790Y-55805064D01*
X41455795Y-55680069D01*
X41634755Y-55522564D01*
X41784523Y-55337080D01*
X41900790Y-55128954D01*
X41980211Y-54904171D01*
X42000210Y-54787536D01*
X42020499Y-54669209D01*
X42020499Y-54669205D01*
X42020500Y-54669200D01*
X42020500Y-54609502D01*
X42619500Y-54609502D01*
X42634652Y-54787536D01*
X42694724Y-55018248D01*
X42792919Y-55235480D01*
X42792924Y-55235488D01*
X42926413Y-55432993D01*
X42926418Y-55432998D01*
X42926421Y-55433003D01*
X43091379Y-55605118D01*
X43283053Y-55746879D01*
X43495926Y-55854207D01*
X43723877Y-55924016D01*
X43960346Y-55954298D01*
X44198532Y-55944180D01*
X44431581Y-55893954D01*
X44652790Y-55805064D01*
X44855795Y-55680069D01*
X45034755Y-55522564D01*
X45184523Y-55337080D01*
X45300790Y-55128954D01*
X45380211Y-54904171D01*
X45400210Y-54787536D01*
X45420499Y-54669209D01*
X45420499Y-54669205D01*
X45420500Y-54669200D01*
X45420500Y-54609502D01*
X46019500Y-54609502D01*
X46034652Y-54787536D01*
X46094724Y-55018248D01*
X46192919Y-55235480D01*
X46192924Y-55235488D01*
X46326413Y-55432993D01*
X46326418Y-55432998D01*
X46326421Y-55433003D01*
X46491379Y-55605118D01*
X46683053Y-55746879D01*
X46895926Y-55854207D01*
X47123877Y-55924016D01*
X47360346Y-55954298D01*
X47598532Y-55944180D01*
X47831581Y-55893954D01*
X48052790Y-55805064D01*
X48255795Y-55680069D01*
X48434755Y-55522564D01*
X48584523Y-55337080D01*
X48700790Y-55128954D01*
X48780211Y-54904171D01*
X48800210Y-54787536D01*
X48820499Y-54669209D01*
X48820499Y-54669205D01*
X48820500Y-54669200D01*
X48820500Y-54609502D01*
X49419500Y-54609502D01*
X49434652Y-54787536D01*
X49494724Y-55018248D01*
X49592919Y-55235480D01*
X49592924Y-55235488D01*
X49726413Y-55432993D01*
X49726418Y-55432998D01*
X49726421Y-55433003D01*
X49891379Y-55605118D01*
X50083053Y-55746879D01*
X50295926Y-55854207D01*
X50523877Y-55924016D01*
X50760346Y-55954298D01*
X50998532Y-55944180D01*
X51231581Y-55893954D01*
X51452790Y-55805064D01*
X51655795Y-55680069D01*
X51834755Y-55522564D01*
X51984523Y-55337080D01*
X52100790Y-55128954D01*
X52180211Y-54904171D01*
X52200210Y-54787536D01*
X52220499Y-54669209D01*
X52220499Y-54669205D01*
X52220500Y-54669200D01*
X52220500Y-54609502D01*
X52819500Y-54609502D01*
X52834652Y-54787536D01*
X52894724Y-55018248D01*
X52992919Y-55235480D01*
X52992924Y-55235488D01*
X53126413Y-55432993D01*
X53126418Y-55432998D01*
X53126421Y-55433003D01*
X53291379Y-55605118D01*
X53483053Y-55746879D01*
X53695926Y-55854207D01*
X53923877Y-55924016D01*
X54160346Y-55954298D01*
X54398532Y-55944180D01*
X54631581Y-55893954D01*
X54852790Y-55805064D01*
X55055795Y-55680069D01*
X55234755Y-55522564D01*
X55384523Y-55337080D01*
X55500790Y-55128954D01*
X55580211Y-54904171D01*
X55600210Y-54787536D01*
X55620499Y-54669209D01*
X55620499Y-54669205D01*
X55620500Y-54669200D01*
X55620500Y-52690503D01*
X55607347Y-52535963D01*
X55605347Y-52512463D01*
X55545275Y-52281751D01*
X55447080Y-52064519D01*
X55447075Y-52064511D01*
X55313586Y-51867006D01*
X55313582Y-51867001D01*
X55313579Y-51866997D01*
X55148621Y-51694882D01*
X54956947Y-51553121D01*
X54744074Y-51445793D01*
X54614283Y-51406045D01*
X54516121Y-51375983D01*
X54279647Y-51345701D01*
X54041471Y-51355819D01*
X54041467Y-51355819D01*
X53808419Y-51406045D01*
X53587211Y-51494935D01*
X53384203Y-51619932D01*
X53205245Y-51777435D01*
X53132929Y-51866997D01*
X53055477Y-51962920D01*
X53055475Y-51962922D01*
X53055476Y-51962922D01*
X52939210Y-52171044D01*
X52859788Y-52395829D01*
X52819500Y-52630790D01*
X52819500Y-54609502D01*
X52220500Y-54609502D01*
X52220500Y-52690503D01*
X52207347Y-52535963D01*
X52205347Y-52512463D01*
X52145275Y-52281751D01*
X52047080Y-52064519D01*
X52047075Y-52064511D01*
X51913586Y-51867006D01*
X51913582Y-51867001D01*
X51913579Y-51866997D01*
X51748621Y-51694882D01*
X51556947Y-51553121D01*
X51344074Y-51445793D01*
X51214283Y-51406045D01*
X51116121Y-51375983D01*
X50879647Y-51345701D01*
X50641471Y-51355819D01*
X50641467Y-51355819D01*
X50408419Y-51406045D01*
X50187211Y-51494935D01*
X49984203Y-51619932D01*
X49805245Y-51777435D01*
X49732929Y-51866997D01*
X49655477Y-51962920D01*
X49655475Y-51962922D01*
X49655476Y-51962922D01*
X49539210Y-52171044D01*
X49459788Y-52395829D01*
X49419500Y-52630790D01*
X49419500Y-54609502D01*
X48820500Y-54609502D01*
X48820500Y-52690503D01*
X48807347Y-52535963D01*
X48805347Y-52512463D01*
X48745275Y-52281751D01*
X48647080Y-52064519D01*
X48647075Y-52064511D01*
X48513586Y-51867006D01*
X48513582Y-51867001D01*
X48513579Y-51866997D01*
X48348621Y-51694882D01*
X48156947Y-51553121D01*
X47944074Y-51445793D01*
X47814283Y-51406045D01*
X47716121Y-51375983D01*
X47479647Y-51345701D01*
X47241471Y-51355819D01*
X47241467Y-51355819D01*
X47008419Y-51406045D01*
X46787211Y-51494935D01*
X46584203Y-51619932D01*
X46405245Y-51777435D01*
X46332929Y-51866997D01*
X46255477Y-51962920D01*
X46255475Y-51962922D01*
X46255476Y-51962922D01*
X46139210Y-52171044D01*
X46059788Y-52395829D01*
X46019500Y-52630790D01*
X46019500Y-54609502D01*
X45420500Y-54609502D01*
X45420500Y-52690503D01*
X45407347Y-52535963D01*
X45405347Y-52512463D01*
X45345275Y-52281751D01*
X45247080Y-52064519D01*
X45247075Y-52064511D01*
X45113586Y-51867006D01*
X45113582Y-51867001D01*
X45113579Y-51866997D01*
X44948621Y-51694882D01*
X44756947Y-51553121D01*
X44544074Y-51445793D01*
X44414283Y-51406045D01*
X44316121Y-51375983D01*
X44079647Y-51345701D01*
X43841471Y-51355819D01*
X43841467Y-51355819D01*
X43608419Y-51406045D01*
X43387211Y-51494935D01*
X43184203Y-51619932D01*
X43005245Y-51777435D01*
X42932929Y-51866997D01*
X42855477Y-51962920D01*
X42855475Y-51962922D01*
X42855476Y-51962922D01*
X42739210Y-52171044D01*
X42659788Y-52395829D01*
X42619500Y-52630790D01*
X42619500Y-54609502D01*
X42020500Y-54609502D01*
X42020500Y-52690503D01*
X42007347Y-52535963D01*
X42005347Y-52512463D01*
X41945275Y-52281751D01*
X41847080Y-52064519D01*
X41847075Y-52064511D01*
X41713586Y-51867006D01*
X41713582Y-51867001D01*
X41713579Y-51866997D01*
X41548621Y-51694882D01*
X41356947Y-51553121D01*
X41144074Y-51445793D01*
X41014283Y-51406045D01*
X40916121Y-51375983D01*
X40679647Y-51345701D01*
X40441471Y-51355819D01*
X40441467Y-51355819D01*
X40208419Y-51406045D01*
X39987211Y-51494935D01*
X39784203Y-51619932D01*
X39605245Y-51777435D01*
X39532929Y-51866997D01*
X39455477Y-51962920D01*
X39455475Y-51962922D01*
X39455476Y-51962922D01*
X39339210Y-52171044D01*
X39259788Y-52395829D01*
X39219500Y-52630790D01*
X39219500Y-54609502D01*
X38620500Y-54609502D01*
X38620500Y-52690498D01*
X38605347Y-52512463D01*
X38545275Y-52281751D01*
X38447080Y-52064519D01*
X38447075Y-52064511D01*
X38313586Y-51867006D01*
X38313582Y-51867001D01*
X38313579Y-51866997D01*
X38148621Y-51694882D01*
X37956947Y-51553121D01*
X37744074Y-51445793D01*
X37614283Y-51406045D01*
X37516121Y-51375983D01*
X37279647Y-51345701D01*
X37041471Y-51355819D01*
X37041467Y-51355819D01*
X36808419Y-51406045D01*
X36587211Y-51494935D01*
X36384203Y-51619932D01*
X36205245Y-51777435D01*
X36132929Y-51866997D01*
X36055477Y-51962920D01*
X36055475Y-51962922D01*
X36055476Y-51962922D01*
X35939210Y-52171044D01*
X35859788Y-52395829D01*
X35819500Y-52630790D01*
X35819500Y-54609502D01*
X34500500Y-54609502D01*
X34500500Y-49655001D01*
X57899500Y-49655001D01*
X57899501Y-49655018D01*
X57910000Y-49757796D01*
X57910001Y-49757799D01*
X57940986Y-49851303D01*
X57965186Y-49924334D01*
X58057288Y-50073656D01*
X58181344Y-50197712D01*
X58330666Y-50289814D01*
X58497203Y-50344999D01*
X58599991Y-50355500D01*
X59400008Y-50355499D01*
X59400016Y-50355498D01*
X59400019Y-50355498D01*
X59461143Y-50349254D01*
X59502797Y-50344999D01*
X59669334Y-50289814D01*
X59818656Y-50197712D01*
X59942712Y-50073656D01*
X59981815Y-50010258D01*
X60033761Y-49963535D01*
X60102723Y-49952312D01*
X60166806Y-49980155D01*
X60184824Y-49998705D01*
X60199907Y-50017885D01*
X60199909Y-50017887D01*
X60358746Y-50155521D01*
X60540750Y-50260601D01*
X60540752Y-50260601D01*
X60540756Y-50260604D01*
X60739367Y-50329344D01*
X60947398Y-50359254D01*
X61157330Y-50349254D01*
X61361576Y-50299704D01*
X61447199Y-50260601D01*
X61552743Y-50212401D01*
X61552746Y-50212399D01*
X61552753Y-50212396D01*
X61723952Y-50090486D01*
X61739999Y-50073657D01*
X61868986Y-49938378D01*
X61878010Y-49924336D01*
X61895540Y-49897058D01*
X61948343Y-49851303D01*
X62017502Y-49841359D01*
X62081058Y-49870383D01*
X62097326Y-49887444D01*
X62199909Y-50017887D01*
X62358746Y-50155521D01*
X62540750Y-50260601D01*
X62540752Y-50260601D01*
X62540756Y-50260604D01*
X62739367Y-50329344D01*
X62947398Y-50359254D01*
X63157330Y-50349254D01*
X63361576Y-50299704D01*
X63447199Y-50260601D01*
X63552743Y-50212401D01*
X63552746Y-50212399D01*
X63552753Y-50212396D01*
X63723952Y-50090486D01*
X63739999Y-50073657D01*
X63868985Y-49938379D01*
X63878010Y-49924336D01*
X63982613Y-49761572D01*
X64060725Y-49566457D01*
X64100500Y-49360085D01*
X64100500Y-48652575D01*
X64085528Y-48495782D01*
X64026316Y-48294125D01*
X63930011Y-48107318D01*
X63930009Y-48107316D01*
X63930008Y-48107313D01*
X63800094Y-47942116D01*
X63800090Y-47942112D01*
X63641253Y-47804478D01*
X63459249Y-47699398D01*
X63459245Y-47699396D01*
X63459244Y-47699396D01*
X63260633Y-47630656D01*
X63052602Y-47600746D01*
X63052598Y-47600746D01*
X62842672Y-47610745D01*
X62638421Y-47660296D01*
X62638417Y-47660298D01*
X62447256Y-47747598D01*
X62447251Y-47747601D01*
X62276046Y-47869515D01*
X62276040Y-47869520D01*
X62131016Y-48021618D01*
X62104458Y-48062943D01*
X62051653Y-48108697D01*
X61982494Y-48118640D01*
X61918939Y-48089614D01*
X61902673Y-48072554D01*
X61800094Y-47942116D01*
X61800090Y-47942112D01*
X61641253Y-47804478D01*
X61459249Y-47699398D01*
X61459245Y-47699396D01*
X61459244Y-47699396D01*
X61260633Y-47630656D01*
X61052602Y-47600746D01*
X61052598Y-47600746D01*
X60842672Y-47610745D01*
X60638421Y-47660296D01*
X60638417Y-47660298D01*
X60447256Y-47747598D01*
X60447251Y-47747601D01*
X60276046Y-47869515D01*
X60276045Y-47869515D01*
X60178249Y-47972082D01*
X60117740Y-48007017D01*
X60047949Y-48003692D01*
X59991035Y-47963164D01*
X59982967Y-47951608D01*
X59971227Y-47932575D01*
X59942712Y-47886344D01*
X59818656Y-47762288D01*
X59725888Y-47705068D01*
X59669336Y-47670187D01*
X59669331Y-47670185D01*
X59639488Y-47660296D01*
X59502797Y-47615001D01*
X59502795Y-47615000D01*
X59400010Y-47604500D01*
X58599998Y-47604500D01*
X58599980Y-47604501D01*
X58497203Y-47615000D01*
X58497200Y-47615001D01*
X58330668Y-47670185D01*
X58330663Y-47670187D01*
X58181342Y-47762289D01*
X58057289Y-47886342D01*
X57965187Y-48035663D01*
X57965185Y-48035668D01*
X57947309Y-48089614D01*
X57910001Y-48202203D01*
X57910001Y-48202204D01*
X57910000Y-48202204D01*
X57899500Y-48304983D01*
X57899500Y-49655001D01*
X34500500Y-49655001D01*
X34500500Y-48935001D01*
X50239500Y-48935001D01*
X50239501Y-48935018D01*
X50250000Y-49037796D01*
X50250001Y-49037799D01*
X50281443Y-49132682D01*
X50305186Y-49204334D01*
X50397288Y-49353656D01*
X50521344Y-49477712D01*
X50670666Y-49569814D01*
X50837203Y-49624999D01*
X50939991Y-49635500D01*
X51740008Y-49635499D01*
X51740016Y-49635498D01*
X51740019Y-49635498D01*
X51801143Y-49629254D01*
X51842797Y-49624999D01*
X52009334Y-49569814D01*
X52158656Y-49477712D01*
X52282712Y-49353656D01*
X52321815Y-49290258D01*
X52373761Y-49243535D01*
X52442723Y-49232312D01*
X52506806Y-49260155D01*
X52524824Y-49278705D01*
X52539907Y-49297885D01*
X52539909Y-49297887D01*
X52698746Y-49435521D01*
X52880750Y-49540601D01*
X52880752Y-49540601D01*
X52880756Y-49540604D01*
X53079367Y-49609344D01*
X53287398Y-49639254D01*
X53497330Y-49629254D01*
X53701576Y-49579704D01*
X53787199Y-49540601D01*
X53892743Y-49492401D01*
X53892746Y-49492399D01*
X53892753Y-49492396D01*
X54063952Y-49370486D01*
X54073870Y-49360085D01*
X54208985Y-49218379D01*
X54218010Y-49204336D01*
X54322613Y-49041572D01*
X54400725Y-48846457D01*
X54440500Y-48640085D01*
X54440500Y-47932575D01*
X54425528Y-47775782D01*
X54366316Y-47574125D01*
X54270011Y-47387318D01*
X54270009Y-47387316D01*
X54270008Y-47387313D01*
X54140094Y-47222116D01*
X54140090Y-47222112D01*
X53981253Y-47084478D01*
X53799249Y-46979398D01*
X53799245Y-46979396D01*
X53799244Y-46979396D01*
X53600633Y-46910656D01*
X53392602Y-46880746D01*
X53392598Y-46880746D01*
X53182672Y-46890745D01*
X52978421Y-46940296D01*
X52978417Y-46940298D01*
X52787256Y-47027598D01*
X52787251Y-47027601D01*
X52616046Y-47149515D01*
X52616045Y-47149515D01*
X52518249Y-47252082D01*
X52457740Y-47287017D01*
X52387949Y-47283692D01*
X52331035Y-47243164D01*
X52322967Y-47231608D01*
X52317110Y-47222112D01*
X52282712Y-47166344D01*
X52158656Y-47042288D01*
X52065888Y-46985068D01*
X52009336Y-46950187D01*
X52009331Y-46950185D01*
X51979488Y-46940296D01*
X51842797Y-46895001D01*
X51842795Y-46895000D01*
X51740010Y-46884500D01*
X50939998Y-46884500D01*
X50939980Y-46884501D01*
X50837203Y-46895000D01*
X50837200Y-46895001D01*
X50670668Y-46950185D01*
X50670663Y-46950187D01*
X50521342Y-47042289D01*
X50397289Y-47166342D01*
X50305187Y-47315663D01*
X50305185Y-47315666D01*
X50305186Y-47315666D01*
X50250001Y-47482203D01*
X50250001Y-47482204D01*
X50250000Y-47482204D01*
X50239500Y-47584983D01*
X50239500Y-48935001D01*
X34500500Y-48935001D01*
X34500500Y-45661624D01*
X37770784Y-45661624D01*
X37780685Y-45894700D01*
X37780686Y-45894709D01*
X37829836Y-46122766D01*
X37829837Y-46122769D01*
X37916819Y-46339231D01*
X37916821Y-46339235D01*
X38039138Y-46537891D01*
X38119083Y-46628726D01*
X38193270Y-46713019D01*
X38193273Y-46713022D01*
X38374773Y-46859573D01*
X38374779Y-46859578D01*
X38578445Y-46973353D01*
X38578448Y-46973354D01*
X38798416Y-47051073D01*
X38926725Y-47073074D01*
X39028344Y-47090499D01*
X39028353Y-47090500D01*
X39653221Y-47090500D01*
X39827446Y-47075671D01*
X39827446Y-47075670D01*
X39827453Y-47075670D01*
X40053219Y-47016885D01*
X40265802Y-46920792D01*
X40459088Y-46790153D01*
X40627516Y-46628728D01*
X40766240Y-46441161D01*
X40871270Y-46232847D01*
X40939583Y-46009780D01*
X40969216Y-45778376D01*
X40959314Y-45545293D01*
X40910164Y-45317235D01*
X40823179Y-45100765D01*
X40700862Y-44902109D01*
X40546731Y-44726982D01*
X40546730Y-44726981D01*
X40506272Y-44694313D01*
X40466479Y-44636881D01*
X40464054Y-44567054D01*
X40499765Y-44507000D01*
X40531779Y-44485449D01*
X40534127Y-44484354D01*
X40683345Y-44392315D01*
X40807315Y-44268345D01*
X40899356Y-44119124D01*
X40899358Y-44119119D01*
X40954505Y-43952697D01*
X40954506Y-43952690D01*
X40964999Y-43849986D01*
X40965000Y-43849973D01*
X40965000Y-43430000D01*
X40078616Y-43430000D01*
X40011577Y-43410315D01*
X39965822Y-43357511D01*
X39955677Y-43289815D01*
X39970134Y-43180001D01*
X39970134Y-43180000D01*
X50644341Y-43180000D01*
X50664936Y-43415403D01*
X50664938Y-43415413D01*
X50726094Y-43643655D01*
X50726096Y-43643659D01*
X50726097Y-43643663D01*
X50752242Y-43699731D01*
X50825965Y-43857830D01*
X50825967Y-43857834D01*
X50934281Y-44012521D01*
X50961505Y-44051401D01*
X51128599Y-44218495D01*
X51199792Y-44268345D01*
X51322165Y-44354032D01*
X51322167Y-44354033D01*
X51322170Y-44354035D01*
X51536337Y-44453903D01*
X51764592Y-44515063D01*
X51952918Y-44531539D01*
X51999999Y-44535659D01*
X52000000Y-44535659D01*
X52000001Y-44535659D01*
X52045616Y-44531668D01*
X52235408Y-44515063D01*
X52463663Y-44453903D01*
X52677830Y-44354035D01*
X52871401Y-44218495D01*
X53038495Y-44051401D01*
X53174035Y-43857830D01*
X53273903Y-43643663D01*
X53335063Y-43415408D01*
X53355659Y-43180000D01*
X53335063Y-42944592D01*
X53273903Y-42716337D01*
X53174035Y-42502171D01*
X53107613Y-42407309D01*
X53038494Y-42308597D01*
X52871402Y-42141506D01*
X52871396Y-42141501D01*
X52685842Y-42011575D01*
X52642217Y-41956998D01*
X52635023Y-41887500D01*
X52666546Y-41825145D01*
X52685842Y-41808425D01*
X52708026Y-41792891D01*
X52871401Y-41678495D01*
X53038495Y-41511401D01*
X53174035Y-41317830D01*
X53273903Y-41103663D01*
X53335063Y-40875408D01*
X53355659Y-40640000D01*
X53335063Y-40404592D01*
X53273903Y-40176337D01*
X53174035Y-39962171D01*
X53038495Y-39768599D01*
X53038494Y-39768597D01*
X52871402Y-39601506D01*
X52871396Y-39601501D01*
X52685842Y-39471575D01*
X52642217Y-39416998D01*
X52635023Y-39347500D01*
X52666546Y-39285145D01*
X52685842Y-39268425D01*
X52708026Y-39252891D01*
X52871401Y-39138495D01*
X53038495Y-38971401D01*
X53174035Y-38777830D01*
X53273903Y-38563663D01*
X53335063Y-38335408D01*
X53355659Y-38100000D01*
X53335063Y-37864592D01*
X53282000Y-37666554D01*
X53273905Y-37636344D01*
X53273904Y-37636343D01*
X53273903Y-37636337D01*
X53174035Y-37422171D01*
X53078254Y-37285380D01*
X53038494Y-37228597D01*
X52871402Y-37061506D01*
X52871396Y-37061501D01*
X52685842Y-36931575D01*
X52642217Y-36876998D01*
X52635023Y-36807500D01*
X52666546Y-36745145D01*
X52685842Y-36728425D01*
X52708026Y-36712891D01*
X52871401Y-36598495D01*
X53038495Y-36431401D01*
X53174035Y-36237830D01*
X53273903Y-36023663D01*
X53335063Y-35795408D01*
X53355659Y-35560000D01*
X53335063Y-35324592D01*
X53273903Y-35096337D01*
X53174035Y-34882171D01*
X53038495Y-34688599D01*
X53038494Y-34688597D01*
X52871402Y-34521506D01*
X52871396Y-34521501D01*
X52685842Y-34391575D01*
X52642217Y-34336998D01*
X52635023Y-34267500D01*
X52666546Y-34205145D01*
X52685842Y-34188425D01*
X52708026Y-34172891D01*
X52871401Y-34058495D01*
X53038495Y-33891401D01*
X53174035Y-33697830D01*
X53273903Y-33483663D01*
X53335063Y-33255408D01*
X53355659Y-33020000D01*
X53335063Y-32784592D01*
X53273903Y-32556337D01*
X53174035Y-32342171D01*
X53038495Y-32148599D01*
X52916567Y-32026671D01*
X52883084Y-31965351D01*
X52888068Y-31895659D01*
X52929939Y-31839725D01*
X52960915Y-31822810D01*
X53092331Y-31773796D01*
X53206936Y-31688003D01*
X61362435Y-31688003D01*
X61382630Y-31867249D01*
X61382631Y-31867254D01*
X61442211Y-32037523D01*
X61512005Y-32148599D01*
X61538184Y-32190262D01*
X61665738Y-32317816D01*
X61818478Y-32413789D01*
X61988744Y-32473368D01*
X61988745Y-32473368D01*
X61988750Y-32473369D01*
X62167996Y-32493565D01*
X62168000Y-32493565D01*
X62168004Y-32493565D01*
X62347249Y-32473369D01*
X62347252Y-32473368D01*
X62347255Y-32473368D01*
X62517522Y-32413789D01*
X62670262Y-32317816D01*
X62797816Y-32190262D01*
X62893789Y-32037522D01*
X62953368Y-31867255D01*
X62956470Y-31839725D01*
X62973565Y-31688003D01*
X62973565Y-31687996D01*
X62953369Y-31508750D01*
X62953368Y-31508745D01*
X62907574Y-31377873D01*
X62893789Y-31338478D01*
X62797816Y-31185738D01*
X62670262Y-31058184D01*
X62517523Y-30962211D01*
X62347254Y-30902631D01*
X62347249Y-30902630D01*
X62168004Y-30882435D01*
X62167996Y-30882435D01*
X61988750Y-30902630D01*
X61988745Y-30902631D01*
X61818476Y-30962211D01*
X61665737Y-31058184D01*
X61538184Y-31185737D01*
X61442211Y-31338476D01*
X61382631Y-31508745D01*
X61382630Y-31508750D01*
X61362435Y-31687996D01*
X61362435Y-31688003D01*
X53206936Y-31688003D01*
X53207546Y-31687546D01*
X53293796Y-31572331D01*
X53344091Y-31437483D01*
X53350500Y-31377873D01*
X53350499Y-29582128D01*
X53344091Y-29522517D01*
X53293796Y-29387669D01*
X53293795Y-29387668D01*
X53293793Y-29387664D01*
X53207547Y-29272455D01*
X53207544Y-29272452D01*
X53092335Y-29186206D01*
X53092328Y-29186202D01*
X52957482Y-29135908D01*
X52957483Y-29135908D01*
X52897883Y-29129501D01*
X52897881Y-29129500D01*
X52897873Y-29129500D01*
X52897864Y-29129500D01*
X51102129Y-29129500D01*
X51102123Y-29129501D01*
X51042516Y-29135908D01*
X50907671Y-29186202D01*
X50907664Y-29186206D01*
X50792455Y-29272452D01*
X50792452Y-29272455D01*
X50706206Y-29387664D01*
X50706202Y-29387671D01*
X50655908Y-29522517D01*
X50649501Y-29582116D01*
X50649501Y-29582123D01*
X50649500Y-29582135D01*
X50649500Y-31377870D01*
X50649501Y-31377876D01*
X50655908Y-31437483D01*
X50706202Y-31572328D01*
X50706206Y-31572335D01*
X50792452Y-31687544D01*
X50792455Y-31687547D01*
X50907664Y-31773793D01*
X50907671Y-31773797D01*
X51039081Y-31822810D01*
X51095015Y-31864681D01*
X51119432Y-31930145D01*
X51104580Y-31998418D01*
X51083430Y-32026673D01*
X50961503Y-32148600D01*
X50825965Y-32342169D01*
X50825964Y-32342171D01*
X50726098Y-32556335D01*
X50726094Y-32556344D01*
X50664938Y-32784586D01*
X50664936Y-32784596D01*
X50644341Y-33019999D01*
X50644341Y-33020000D01*
X50664936Y-33255403D01*
X50664938Y-33255413D01*
X50726094Y-33483655D01*
X50726096Y-33483659D01*
X50726097Y-33483663D01*
X50825965Y-33697829D01*
X50825965Y-33697830D01*
X50825967Y-33697834D01*
X50961501Y-33891395D01*
X50961506Y-33891402D01*
X51128597Y-34058493D01*
X51128603Y-34058498D01*
X51314158Y-34188425D01*
X51357783Y-34243002D01*
X51364977Y-34312500D01*
X51333454Y-34374855D01*
X51314158Y-34391575D01*
X51128597Y-34521505D01*
X50961505Y-34688597D01*
X50825965Y-34882169D01*
X50825964Y-34882171D01*
X50726098Y-35096335D01*
X50726094Y-35096344D01*
X50664938Y-35324586D01*
X50664936Y-35324596D01*
X50644341Y-35559999D01*
X50644341Y-35560000D01*
X50664936Y-35795403D01*
X50664938Y-35795413D01*
X50726094Y-36023655D01*
X50726096Y-36023659D01*
X50726097Y-36023663D01*
X50825965Y-36237829D01*
X50825965Y-36237830D01*
X50825967Y-36237834D01*
X50961501Y-36431395D01*
X50961506Y-36431402D01*
X51128597Y-36598493D01*
X51128603Y-36598498D01*
X51314158Y-36728425D01*
X51357783Y-36783002D01*
X51364977Y-36852500D01*
X51333454Y-36914855D01*
X51314158Y-36931575D01*
X51128597Y-37061505D01*
X50961505Y-37228597D01*
X50825965Y-37422169D01*
X50825964Y-37422171D01*
X50726098Y-37636335D01*
X50726094Y-37636344D01*
X50664938Y-37864586D01*
X50664936Y-37864596D01*
X50644341Y-38099999D01*
X50644341Y-38100000D01*
X50664936Y-38335403D01*
X50664938Y-38335413D01*
X50726094Y-38563655D01*
X50726096Y-38563659D01*
X50726097Y-38563663D01*
X50805250Y-38733407D01*
X50825965Y-38777830D01*
X50825967Y-38777834D01*
X50961501Y-38971395D01*
X50961506Y-38971402D01*
X51128597Y-39138493D01*
X51128603Y-39138498D01*
X51314158Y-39268425D01*
X51357783Y-39323002D01*
X51364977Y-39392500D01*
X51333454Y-39454855D01*
X51314158Y-39471575D01*
X51128597Y-39601505D01*
X50961505Y-39768597D01*
X50825965Y-39962169D01*
X50825964Y-39962171D01*
X50726098Y-40176335D01*
X50726094Y-40176344D01*
X50664938Y-40404586D01*
X50664936Y-40404596D01*
X50644341Y-40639999D01*
X50644341Y-40640000D01*
X50664936Y-40875403D01*
X50664938Y-40875413D01*
X50726094Y-41103655D01*
X50726096Y-41103659D01*
X50726097Y-41103663D01*
X50811291Y-41286361D01*
X50825965Y-41317830D01*
X50825967Y-41317834D01*
X50961501Y-41511395D01*
X50961506Y-41511402D01*
X51128597Y-41678493D01*
X51128603Y-41678498D01*
X51314158Y-41808425D01*
X51357783Y-41863002D01*
X51364977Y-41932500D01*
X51333454Y-41994855D01*
X51314158Y-42011575D01*
X51128597Y-42141505D01*
X50961505Y-42308597D01*
X50825965Y-42502169D01*
X50825964Y-42502171D01*
X50726098Y-42716335D01*
X50726094Y-42716344D01*
X50664938Y-42944586D01*
X50664936Y-42944596D01*
X50644341Y-43179999D01*
X50644341Y-43180000D01*
X39970134Y-43180000D01*
X39970134Y-43179998D01*
X39955677Y-43070185D01*
X39966443Y-43001150D01*
X40012823Y-42948894D01*
X40078616Y-42930000D01*
X40964999Y-42930000D01*
X40964999Y-42510028D01*
X40964998Y-42510013D01*
X40954505Y-42407302D01*
X40899358Y-42240880D01*
X40899356Y-42240875D01*
X40807315Y-42091654D01*
X40683345Y-41967684D01*
X40534124Y-41875643D01*
X40534119Y-41875641D01*
X40367697Y-41820494D01*
X40367690Y-41820493D01*
X40264986Y-41810000D01*
X39620000Y-41810000D01*
X39620000Y-42471384D01*
X39600315Y-42538423D01*
X39547511Y-42584178D01*
X39479815Y-42594323D01*
X39409007Y-42585001D01*
X39409002Y-42585000D01*
X39408997Y-42585000D01*
X39331003Y-42585000D01*
X39330997Y-42585000D01*
X39330992Y-42585001D01*
X39260185Y-42594323D01*
X39191150Y-42583557D01*
X39138894Y-42537177D01*
X39120000Y-42471384D01*
X39120000Y-41810000D01*
X38475028Y-41810000D01*
X38475012Y-41810001D01*
X38372302Y-41820494D01*
X38205880Y-41875641D01*
X38205875Y-41875643D01*
X38056654Y-41967684D01*
X37932684Y-42091654D01*
X37840643Y-42240875D01*
X37840641Y-42240880D01*
X37785494Y-42407302D01*
X37785493Y-42407309D01*
X37775000Y-42510013D01*
X37775000Y-42930000D01*
X38661384Y-42930000D01*
X38728423Y-42949685D01*
X38774178Y-43002489D01*
X38784323Y-43070185D01*
X38769866Y-43179998D01*
X38769866Y-43180001D01*
X38784323Y-43289815D01*
X38773557Y-43358850D01*
X38727177Y-43411106D01*
X38661384Y-43430000D01*
X37775001Y-43430000D01*
X37775001Y-43849986D01*
X37785494Y-43952697D01*
X37840641Y-44119119D01*
X37840643Y-44119124D01*
X37932684Y-44268345D01*
X38056654Y-44392315D01*
X38205881Y-44484359D01*
X38208323Y-44485498D01*
X38209717Y-44486725D01*
X38212025Y-44488149D01*
X38211781Y-44488543D01*
X38260764Y-44531668D01*
X38279919Y-44598861D01*
X38259706Y-44665743D01*
X38241724Y-44687404D01*
X38112483Y-44811272D01*
X38112482Y-44811273D01*
X37973762Y-44998834D01*
X37868733Y-45207147D01*
X37868730Y-45207153D01*
X37800416Y-45430223D01*
X37770784Y-45661624D01*
X34500500Y-45661624D01*
X34500500Y-38100002D01*
X36832677Y-38100002D01*
X36851929Y-38320062D01*
X36851930Y-38320070D01*
X36909104Y-38533445D01*
X36909105Y-38533447D01*
X36909106Y-38533450D01*
X36942106Y-38604219D01*
X37002466Y-38733662D01*
X37002468Y-38733666D01*
X37129170Y-38914615D01*
X37129175Y-38914621D01*
X37285378Y-39070824D01*
X37285384Y-39070829D01*
X37466333Y-39197531D01*
X37466335Y-39197532D01*
X37466338Y-39197534D01*
X37666550Y-39290894D01*
X37879932Y-39348070D01*
X38037123Y-39361822D01*
X38099998Y-39367323D01*
X38100000Y-39367323D01*
X38100002Y-39367323D01*
X38155017Y-39362509D01*
X38320068Y-39348070D01*
X38533450Y-39290894D01*
X38733662Y-39197534D01*
X38914620Y-39070826D01*
X39070826Y-38914620D01*
X39197534Y-38733662D01*
X39257894Y-38604218D01*
X39304066Y-38551779D01*
X39371259Y-38532627D01*
X39438141Y-38552843D01*
X39482658Y-38604219D01*
X39542899Y-38733407D01*
X39542900Y-38733409D01*
X39588258Y-38798187D01*
X40117050Y-38269395D01*
X40178373Y-38235910D01*
X40248064Y-38240894D01*
X40303998Y-38282765D01*
X40308539Y-38289254D01*
X40355813Y-38361612D01*
X40456157Y-38439713D01*
X40456160Y-38439714D01*
X40456511Y-38439987D01*
X40497324Y-38496697D01*
X40500999Y-38566470D01*
X40468030Y-38625522D01*
X39941811Y-39151741D01*
X40006582Y-39197094D01*
X40006592Y-39197100D01*
X40206715Y-39290419D01*
X40206729Y-39290424D01*
X40420013Y-39347573D01*
X40420023Y-39347575D01*
X40639999Y-39366821D01*
X40640001Y-39366821D01*
X40859976Y-39347575D01*
X40859986Y-39347573D01*
X41073270Y-39290424D01*
X41073284Y-39290419D01*
X41273408Y-39197100D01*
X41273420Y-39197093D01*
X41338186Y-39151742D01*
X41338187Y-39151740D01*
X40809276Y-38622829D01*
X40775791Y-38561506D01*
X40780775Y-38491814D01*
X40822647Y-38435881D01*
X40837933Y-38426097D01*
X40877251Y-38404820D01*
X40963371Y-38311269D01*
X40964083Y-38309643D01*
X40965652Y-38307777D01*
X40968992Y-38302666D01*
X40969609Y-38303069D01*
X41009036Y-38256158D01*
X41075770Y-38235464D01*
X41143099Y-38254135D01*
X41165322Y-38271769D01*
X41691740Y-38798187D01*
X41691742Y-38798186D01*
X41737093Y-38733420D01*
X41737100Y-38733408D01*
X41797342Y-38604219D01*
X41843514Y-38551779D01*
X41910707Y-38532627D01*
X41977588Y-38552842D01*
X42022106Y-38604219D01*
X42082464Y-38733658D01*
X42082468Y-38733666D01*
X42209170Y-38914615D01*
X42209175Y-38914621D01*
X42365378Y-39070824D01*
X42365384Y-39070829D01*
X42546333Y-39197531D01*
X42546335Y-39197532D01*
X42546338Y-39197534D01*
X42746550Y-39290894D01*
X42959932Y-39348070D01*
X43117123Y-39361822D01*
X43179998Y-39367323D01*
X43180000Y-39367323D01*
X43180002Y-39367323D01*
X43235017Y-39362509D01*
X43400068Y-39348070D01*
X43613450Y-39290894D01*
X43813662Y-39197534D01*
X43994620Y-39070826D01*
X44150826Y-38914620D01*
X44277534Y-38733662D01*
X44337617Y-38604811D01*
X44383790Y-38552371D01*
X44450983Y-38533219D01*
X44517865Y-38553435D01*
X44562382Y-38604811D01*
X44622464Y-38733658D01*
X44622468Y-38733666D01*
X44749170Y-38914615D01*
X44749175Y-38914621D01*
X44905378Y-39070824D01*
X44905384Y-39070829D01*
X45086333Y-39197531D01*
X45086335Y-39197532D01*
X45086338Y-39197534D01*
X45286550Y-39290894D01*
X45499932Y-39348070D01*
X45657123Y-39361822D01*
X45719998Y-39367323D01*
X45720000Y-39367323D01*
X45720002Y-39367323D01*
X45775017Y-39362509D01*
X45940068Y-39348070D01*
X46153450Y-39290894D01*
X46353662Y-39197534D01*
X46534620Y-39070826D01*
X46690826Y-38914620D01*
X46817534Y-38733662D01*
X46910894Y-38533450D01*
X46968070Y-38320068D01*
X46987323Y-38100000D01*
X46984532Y-38068102D01*
X46979027Y-38005177D01*
X46968070Y-37879932D01*
X46910894Y-37666550D01*
X46817534Y-37466339D01*
X46690826Y-37285380D01*
X46534620Y-37129174D01*
X46534616Y-37129171D01*
X46534615Y-37129170D01*
X46353666Y-37002468D01*
X46353662Y-37002466D01*
X46353662Y-37002465D01*
X46153450Y-36909106D01*
X46153447Y-36909105D01*
X46153445Y-36909104D01*
X45940070Y-36851930D01*
X45940062Y-36851929D01*
X45720002Y-36832677D01*
X45719998Y-36832677D01*
X45499937Y-36851929D01*
X45499929Y-36851930D01*
X45286554Y-36909104D01*
X45286548Y-36909107D01*
X45086340Y-37002465D01*
X45086338Y-37002466D01*
X44905377Y-37129175D01*
X44749175Y-37285377D01*
X44622466Y-37466338D01*
X44622465Y-37466340D01*
X44562382Y-37595189D01*
X44516209Y-37647628D01*
X44449016Y-37666780D01*
X44382135Y-37646564D01*
X44337618Y-37595189D01*
X44277652Y-37466593D01*
X44277534Y-37466339D01*
X44150826Y-37285380D01*
X43994620Y-37129174D01*
X43994616Y-37129171D01*
X43994615Y-37129170D01*
X43813666Y-37002468D01*
X43813662Y-37002466D01*
X43813662Y-37002465D01*
X43613450Y-36909106D01*
X43613447Y-36909105D01*
X43613445Y-36909104D01*
X43400070Y-36851930D01*
X43400062Y-36851929D01*
X43180002Y-36832677D01*
X43179998Y-36832677D01*
X42959937Y-36851929D01*
X42959929Y-36851930D01*
X42746554Y-36909104D01*
X42746548Y-36909107D01*
X42546340Y-37002465D01*
X42546338Y-37002466D01*
X42365377Y-37129175D01*
X42209175Y-37285377D01*
X42082467Y-37466337D01*
X42082466Y-37466339D01*
X42082348Y-37466593D01*
X42022105Y-37595782D01*
X41975932Y-37648221D01*
X41908738Y-37667372D01*
X41841857Y-37647156D01*
X41797341Y-37595780D01*
X41737100Y-37466593D01*
X41737099Y-37466591D01*
X41691740Y-37401811D01*
X41162949Y-37930602D01*
X41101626Y-37964087D01*
X41031934Y-37959103D01*
X40976001Y-37917231D01*
X40971460Y-37910743D01*
X40924189Y-37838391D01*
X40924187Y-37838388D01*
X40868673Y-37795180D01*
X40823843Y-37760287D01*
X40823840Y-37760285D01*
X40823488Y-37760012D01*
X40782675Y-37703301D01*
X40779000Y-37633529D01*
X40811969Y-37574477D01*
X41338187Y-37048258D01*
X41273409Y-37002900D01*
X41273407Y-37002899D01*
X41073284Y-36909580D01*
X41073270Y-36909575D01*
X40859986Y-36852426D01*
X40859976Y-36852424D01*
X40640001Y-36833179D01*
X40639999Y-36833179D01*
X40420023Y-36852424D01*
X40420013Y-36852426D01*
X40206729Y-36909575D01*
X40206720Y-36909579D01*
X40006586Y-37002903D01*
X39941812Y-37048257D01*
X39941811Y-37048258D01*
X40470723Y-37577170D01*
X40504208Y-37638493D01*
X40499224Y-37708185D01*
X40457352Y-37764118D01*
X40442059Y-37773906D01*
X40402749Y-37795179D01*
X40402748Y-37795179D01*
X40316626Y-37888733D01*
X40316626Y-37888734D01*
X40315911Y-37890365D01*
X40314340Y-37892233D01*
X40311008Y-37897334D01*
X40310391Y-37896931D01*
X40270952Y-37943849D01*
X40204215Y-37964535D01*
X40136888Y-37945857D01*
X40114677Y-37928230D01*
X39588258Y-37401811D01*
X39588257Y-37401812D01*
X39542903Y-37466586D01*
X39482658Y-37595781D01*
X39436485Y-37648220D01*
X39369292Y-37667372D01*
X39302411Y-37647156D01*
X39257894Y-37595781D01*
X39197652Y-37466593D01*
X39197534Y-37466339D01*
X39070826Y-37285380D01*
X38914620Y-37129174D01*
X38914616Y-37129171D01*
X38914615Y-37129170D01*
X38733666Y-37002468D01*
X38733662Y-37002466D01*
X38733662Y-37002465D01*
X38533450Y-36909106D01*
X38533447Y-36909105D01*
X38533445Y-36909104D01*
X38320070Y-36851930D01*
X38320062Y-36851929D01*
X38100002Y-36832677D01*
X38099998Y-36832677D01*
X37879937Y-36851929D01*
X37879929Y-36851930D01*
X37666554Y-36909104D01*
X37666548Y-36909107D01*
X37466340Y-37002465D01*
X37466338Y-37002466D01*
X37285377Y-37129175D01*
X37129175Y-37285377D01*
X37002466Y-37466338D01*
X37002465Y-37466340D01*
X36909107Y-37666548D01*
X36909104Y-37666554D01*
X36851930Y-37879929D01*
X36851929Y-37879937D01*
X36832677Y-38099997D01*
X36832677Y-38100002D01*
X34500500Y-38100002D01*
X34500500Y-28067003D01*
X56090435Y-28067003D01*
X56110630Y-28246249D01*
X56110631Y-28246254D01*
X56170211Y-28416523D01*
X56266184Y-28569261D01*
X56266184Y-28569262D01*
X56393738Y-28696816D01*
X56546478Y-28792789D01*
X56716744Y-28852368D01*
X56716745Y-28852368D01*
X56716750Y-28852369D01*
X56895996Y-28872565D01*
X56896000Y-28872565D01*
X56896004Y-28872565D01*
X57075249Y-28852369D01*
X57075252Y-28852368D01*
X57075255Y-28852368D01*
X57245522Y-28792789D01*
X57398262Y-28696816D01*
X57525816Y-28569262D01*
X57621789Y-28416522D01*
X57681368Y-28246255D01*
X57701565Y-28067000D01*
X57681368Y-27887745D01*
X57621789Y-27717478D01*
X57525816Y-27564738D01*
X57398262Y-27437184D01*
X57245523Y-27341211D01*
X57075254Y-27281631D01*
X57075249Y-27281630D01*
X56896004Y-27261435D01*
X56895996Y-27261435D01*
X56716750Y-27281630D01*
X56716745Y-27281631D01*
X56546476Y-27341211D01*
X56393737Y-27437184D01*
X56266184Y-27564737D01*
X56170211Y-27717476D01*
X56110631Y-27887745D01*
X56110630Y-27887750D01*
X56090435Y-28066996D01*
X56090435Y-28067003D01*
X34500500Y-28067003D01*
X34500500Y-26416003D01*
X50502435Y-26416003D01*
X50522630Y-26595249D01*
X50522631Y-26595254D01*
X50582211Y-26765523D01*
X50678183Y-26918261D01*
X50678184Y-26918262D01*
X50805738Y-27045816D01*
X50958478Y-27141789D01*
X51128744Y-27201368D01*
X51128745Y-27201368D01*
X51128750Y-27201369D01*
X51307996Y-27221565D01*
X51308000Y-27221565D01*
X51308004Y-27221565D01*
X51487249Y-27201369D01*
X51487252Y-27201368D01*
X51487255Y-27201368D01*
X51657522Y-27141789D01*
X51810262Y-27045816D01*
X51937816Y-26918262D01*
X52033789Y-26765522D01*
X52093368Y-26595255D01*
X52113565Y-26416000D01*
X52093368Y-26236745D01*
X52033789Y-26066478D01*
X51937816Y-25913738D01*
X51810262Y-25786184D01*
X51657523Y-25690211D01*
X51487254Y-25630631D01*
X51487249Y-25630630D01*
X51308004Y-25610435D01*
X51307996Y-25610435D01*
X51128750Y-25630630D01*
X51128745Y-25630631D01*
X50958476Y-25690211D01*
X50805737Y-25786184D01*
X50678184Y-25913737D01*
X50582211Y-26066476D01*
X50522631Y-26236745D01*
X50522630Y-26236750D01*
X50502435Y-26415996D01*
X50502435Y-26416003D01*
X34500500Y-26416003D01*
X34500500Y-24490000D01*
X47394706Y-24490000D01*
X47413853Y-24733297D01*
X47413853Y-24733300D01*
X47413854Y-24733302D01*
X47470042Y-24967340D01*
X47470830Y-24970619D01*
X47564222Y-25196089D01*
X47691737Y-25404173D01*
X47691738Y-25404176D01*
X47745449Y-25467063D01*
X47850241Y-25589759D01*
X47993897Y-25712453D01*
X48035823Y-25748261D01*
X48035825Y-25748261D01*
X48038633Y-25749982D01*
X48243910Y-25875777D01*
X48469381Y-25969169D01*
X48469378Y-25969169D01*
X48469384Y-25969170D01*
X48469388Y-25969172D01*
X48706698Y-26026146D01*
X48950000Y-26045294D01*
X49193302Y-26026146D01*
X49430612Y-25969172D01*
X49656089Y-25875777D01*
X49864179Y-25748259D01*
X50049759Y-25589759D01*
X50208259Y-25404179D01*
X50335777Y-25196089D01*
X50429172Y-24970612D01*
X50486146Y-24733302D01*
X50505294Y-24490000D01*
X50486146Y-24246698D01*
X50429172Y-24009388D01*
X50336490Y-23785632D01*
X50335777Y-23783910D01*
X50208260Y-23575822D01*
X50205765Y-23572388D01*
X50182283Y-23506582D01*
X50198107Y-23438528D01*
X50248211Y-23389832D01*
X50306081Y-23375500D01*
X50313976Y-23375500D01*
X50313977Y-23375500D01*
X50538823Y-23337980D01*
X50754426Y-23263963D01*
X50954906Y-23155469D01*
X51134794Y-23015456D01*
X51289183Y-22847745D01*
X51413862Y-22656909D01*
X51505430Y-22448155D01*
X51561390Y-22227176D01*
X51580071Y-22001727D01*
X51580214Y-22000006D01*
X53319786Y-22000006D01*
X53338608Y-22227168D01*
X53338610Y-22227179D01*
X53394569Y-22448155D01*
X53486137Y-22656908D01*
X53610814Y-22847742D01*
X53612401Y-22849466D01*
X53760947Y-23010830D01*
X53765208Y-23015458D01*
X53765212Y-23015461D01*
X53945090Y-23155466D01*
X53945094Y-23155469D01*
X53945096Y-23155470D01*
X53945099Y-23155472D01*
X54061646Y-23218543D01*
X54145574Y-23263963D01*
X54257529Y-23302397D01*
X54361173Y-23337979D01*
X54361175Y-23337979D01*
X54361177Y-23337980D01*
X54586023Y-23375500D01*
X54586024Y-23375500D01*
X54603919Y-23375500D01*
X54670958Y-23395185D01*
X54716713Y-23447989D01*
X54726657Y-23517147D01*
X54704235Y-23572388D01*
X54701739Y-23575822D01*
X54574222Y-23783910D01*
X54480830Y-24009380D01*
X54423853Y-24246702D01*
X54404706Y-24490000D01*
X54423853Y-24733297D01*
X54423853Y-24733300D01*
X54423854Y-24733302D01*
X54480042Y-24967340D01*
X54480830Y-24970619D01*
X54574222Y-25196089D01*
X54701737Y-25404173D01*
X54701738Y-25404176D01*
X54755449Y-25467063D01*
X54860241Y-25589759D01*
X55003897Y-25712453D01*
X55045823Y-25748261D01*
X55045825Y-25748261D01*
X55048633Y-25749982D01*
X55253910Y-25875777D01*
X55479381Y-25969169D01*
X55479378Y-25969169D01*
X55479384Y-25969170D01*
X55479388Y-25969172D01*
X55716698Y-26026146D01*
X55960000Y-26045294D01*
X56203302Y-26026146D01*
X56440612Y-25969172D01*
X56666089Y-25875777D01*
X56874179Y-25748259D01*
X57059759Y-25589759D01*
X57218259Y-25404179D01*
X57345777Y-25196089D01*
X57437191Y-24975393D01*
X57481033Y-24920989D01*
X57547327Y-24898924D01*
X57615026Y-24916203D01*
X57662637Y-24967340D01*
X57666314Y-24975392D01*
X57758442Y-25197810D01*
X57885957Y-25405894D01*
X57885958Y-25405897D01*
X57885961Y-25405900D01*
X58044461Y-25591480D01*
X58188117Y-25714174D01*
X58230043Y-25749982D01*
X58230046Y-25749983D01*
X58438130Y-25877498D01*
X58663601Y-25970890D01*
X58663598Y-25970890D01*
X58663604Y-25970891D01*
X58663608Y-25970893D01*
X58900918Y-26027867D01*
X59144220Y-26047015D01*
X59387522Y-26027867D01*
X59624832Y-25970893D01*
X59850309Y-25877498D01*
X60058399Y-25749980D01*
X60243979Y-25591480D01*
X60402479Y-25405900D01*
X60529997Y-25197810D01*
X60623392Y-24972333D01*
X60680366Y-24735023D01*
X60699514Y-24491721D01*
X60680366Y-24248419D01*
X60623392Y-24011109D01*
X60529997Y-23785632D01*
X60529997Y-23785631D01*
X60402480Y-23577543D01*
X60399985Y-23574109D01*
X60376503Y-23508303D01*
X60392327Y-23440249D01*
X60442431Y-23391553D01*
X60500301Y-23377221D01*
X60508196Y-23377221D01*
X60508197Y-23377221D01*
X60733043Y-23339701D01*
X60948646Y-23265684D01*
X61149126Y-23157190D01*
X61329014Y-23017177D01*
X61483403Y-22849466D01*
X61608082Y-22658630D01*
X61699650Y-22449876D01*
X61755610Y-22228897D01*
X61755611Y-22228889D01*
X61774434Y-22001727D01*
X61774434Y-22001714D01*
X61755611Y-21774552D01*
X61755609Y-21774541D01*
X61699650Y-21553565D01*
X61608082Y-21344812D01*
X61483405Y-21153978D01*
X61341657Y-20999999D01*
X61329014Y-20986265D01*
X61329013Y-20986264D01*
X61329011Y-20986262D01*
X61329007Y-20986259D01*
X61149129Y-20846254D01*
X61149120Y-20846248D01*
X60948652Y-20737761D01*
X60948649Y-20737760D01*
X60948646Y-20737758D01*
X60948640Y-20737756D01*
X60948638Y-20737755D01*
X60733046Y-20663741D01*
X60564408Y-20635601D01*
X60508197Y-20626221D01*
X60280243Y-20626221D01*
X60235273Y-20633725D01*
X60055393Y-20663741D01*
X59839801Y-20737755D01*
X59839787Y-20737761D01*
X59639319Y-20846248D01*
X59639310Y-20846254D01*
X59459432Y-20986259D01*
X59459428Y-20986262D01*
X59305034Y-21153978D01*
X59180357Y-21344812D01*
X59088789Y-21553565D01*
X59032830Y-21774541D01*
X59032828Y-21774552D01*
X59014006Y-22001714D01*
X59014006Y-22001727D01*
X59032828Y-22228889D01*
X59032830Y-22228900D01*
X59088789Y-22449876D01*
X59180357Y-22658629D01*
X59236852Y-22745102D01*
X59257040Y-22811992D01*
X59237859Y-22879177D01*
X59185400Y-22925327D01*
X59142772Y-22936540D01*
X59128925Y-22937630D01*
X58900922Y-22955574D01*
X58881412Y-22960258D01*
X58670777Y-23010828D01*
X58663600Y-23012551D01*
X58438130Y-23105943D01*
X58230046Y-23233458D01*
X58230043Y-23233459D01*
X58044461Y-23391962D01*
X57885958Y-23577544D01*
X57885957Y-23577547D01*
X57758442Y-23785631D01*
X57667027Y-24006328D01*
X57623186Y-24060731D01*
X57556892Y-24082796D01*
X57489192Y-24065517D01*
X57441582Y-24014379D01*
X57437905Y-24006328D01*
X57345777Y-23783910D01*
X57218262Y-23575826D01*
X57218261Y-23575823D01*
X57109080Y-23447989D01*
X57059759Y-23390241D01*
X56911902Y-23263959D01*
X56874176Y-23231738D01*
X56874173Y-23231737D01*
X56666089Y-23104222D01*
X56440618Y-23010830D01*
X56440621Y-23010830D01*
X56242813Y-22963340D01*
X56203302Y-22953854D01*
X56203300Y-22953853D01*
X56203297Y-22953853D01*
X56027277Y-22940000D01*
X55960000Y-22934706D01*
X55959998Y-22934706D01*
X55955143Y-22934324D01*
X55955257Y-22932872D01*
X55894462Y-22915021D01*
X55848707Y-22862217D01*
X55838763Y-22793059D01*
X55857692Y-22742885D01*
X55887756Y-22696867D01*
X55913862Y-22656909D01*
X56005430Y-22448155D01*
X56061390Y-22227176D01*
X56080071Y-22001727D01*
X56080214Y-22000006D01*
X56080214Y-21999993D01*
X56061391Y-21772831D01*
X56061389Y-21772820D01*
X56005430Y-21551844D01*
X55913862Y-21343091D01*
X55789185Y-21152257D01*
X55727427Y-21085170D01*
X55634794Y-20984544D01*
X55634793Y-20984543D01*
X55634791Y-20984541D01*
X55634787Y-20984538D01*
X55454909Y-20844533D01*
X55454900Y-20844527D01*
X55254432Y-20736040D01*
X55254429Y-20736039D01*
X55254426Y-20736037D01*
X55254420Y-20736035D01*
X55254418Y-20736034D01*
X55038826Y-20662020D01*
X54824290Y-20626221D01*
X54813977Y-20624500D01*
X54586023Y-20624500D01*
X54575710Y-20626221D01*
X54361173Y-20662020D01*
X54145581Y-20736034D01*
X54145567Y-20736040D01*
X53945099Y-20844527D01*
X53945090Y-20844533D01*
X53765212Y-20984538D01*
X53765208Y-20984541D01*
X53610814Y-21152257D01*
X53486137Y-21343091D01*
X53394569Y-21551844D01*
X53338610Y-21772820D01*
X53338608Y-21772831D01*
X53319786Y-21999993D01*
X53319786Y-22000006D01*
X51580214Y-22000006D01*
X51580214Y-21999993D01*
X51561391Y-21772831D01*
X51561389Y-21772820D01*
X51505430Y-21551844D01*
X51413862Y-21343091D01*
X51289185Y-21152257D01*
X51227427Y-21085170D01*
X51134794Y-20984544D01*
X51134793Y-20984543D01*
X51134791Y-20984541D01*
X51134787Y-20984538D01*
X50954909Y-20844533D01*
X50954900Y-20844527D01*
X50754432Y-20736040D01*
X50754429Y-20736039D01*
X50754426Y-20736037D01*
X50754420Y-20736035D01*
X50754418Y-20736034D01*
X50538826Y-20662020D01*
X50324290Y-20626221D01*
X50313977Y-20624500D01*
X50086023Y-20624500D01*
X50075710Y-20626221D01*
X49861173Y-20662020D01*
X49645581Y-20736034D01*
X49645567Y-20736040D01*
X49445099Y-20844527D01*
X49445090Y-20844533D01*
X49265212Y-20984538D01*
X49265208Y-20984541D01*
X49110814Y-21152257D01*
X48986137Y-21343091D01*
X48894569Y-21551844D01*
X48838610Y-21772820D01*
X48838608Y-21772831D01*
X48819786Y-21999993D01*
X48819786Y-22000006D01*
X48838608Y-22227168D01*
X48838610Y-22227179D01*
X48894569Y-22448155D01*
X48986137Y-22656908D01*
X49042632Y-22743381D01*
X49062820Y-22810271D01*
X49043639Y-22877456D01*
X48991180Y-22923606D01*
X48948552Y-22934819D01*
X48934705Y-22935909D01*
X48706702Y-22953853D01*
X48469380Y-23010830D01*
X48243910Y-23104222D01*
X48035826Y-23231737D01*
X48035823Y-23231738D01*
X47850241Y-23390241D01*
X47691738Y-23575823D01*
X47691737Y-23575826D01*
X47564222Y-23783910D01*
X47470830Y-24009380D01*
X47413853Y-24246702D01*
X47394706Y-24490000D01*
X34500500Y-24490000D01*
X34500500Y-21002212D01*
X34500658Y-20997788D01*
X34501482Y-20986265D01*
X34515130Y-20795436D01*
X34517646Y-20777938D01*
X34559356Y-20586199D01*
X34564333Y-20569248D01*
X34632911Y-20385385D01*
X34640259Y-20369298D01*
X34702815Y-20254734D01*
X34734291Y-20197089D01*
X34743845Y-20182221D01*
X34861448Y-20025123D01*
X34873020Y-20011769D01*
X35011769Y-19873020D01*
X35025123Y-19861448D01*
X35182221Y-19743845D01*
X35197089Y-19734291D01*
X35369298Y-19640258D01*
X35385385Y-19632911D01*
X35569248Y-19564333D01*
X35586199Y-19559356D01*
X35777938Y-19517646D01*
X35795436Y-19515130D01*
X35997791Y-19500657D01*
X36002214Y-19500500D01*
X65876000Y-19500500D01*
X65943039Y-19520185D01*
G37*
%TD.AperFunction*%
%TD*%
M02*
