%TF.GenerationSoftware,KiCad,Pcbnew,7.0.7-7.0.7~ubuntu22.04.1*%
%TF.CreationDate,2023-09-11T18:29:08+01:00*%
%TF.ProjectId,Blinder,426c696e-6465-4722-9e6b-696361645f70,rev?*%
%TF.SameCoordinates,Original*%
%TF.FileFunction,Drillmap*%
%TF.FilePolarity,Positive*%
%FSLAX45Y45*%
G04 Gerber Fmt 4.5, Leading zero omitted, Abs format (unit mm)*
G04 Created by KiCad (PCBNEW 7.0.7-7.0.7~ubuntu22.04.1) date 2023-09-11 18:29:08*
%MOMM*%
%LPD*%
G01*
G04 APERTURE LIST*
%ADD10C,0.050000*%
%ADD11C,0.200000*%
%ADD12C,0.320000*%
G04 APERTURE END LIST*
D10*
X6600000Y-5500000D02*
X6600000Y-6300000D01*
X6800000Y-5300000D02*
G75*
G03*
X6600000Y-5500000I0J-200000D01*
G01*
X7600000Y-2100000D02*
G75*
G03*
X7400000Y-1900000I-200000J0D01*
G01*
X7600000Y-2100000D02*
X7600000Y-5300000D01*
X6600000Y-6400000D02*
X6600000Y-6300000D01*
X3400000Y-6400000D02*
X6600000Y-6400000D01*
X3400000Y-6300000D02*
X3400000Y-6400000D01*
X3400000Y-6100000D02*
X3400000Y-6300000D01*
X3400000Y-2100000D02*
X3400000Y-6100000D01*
X3600000Y-1900000D02*
G75*
G03*
X3400000Y-2100000I0J-200000D01*
G01*
X7600000Y-5300000D02*
X6800000Y-5300000D01*
X3600000Y-1900000D02*
X7400000Y-1900000D01*
D11*
D12*
X6040000Y-5440000D02*
X6360000Y-5760000D01*
X6360000Y-5440000D02*
X6040000Y-5760000D01*
D11*
X3658277Y-6713984D02*
X3658277Y-6513984D01*
X3658277Y-6513984D02*
X3705896Y-6513984D01*
X3705896Y-6513984D02*
X3734467Y-6523508D01*
X3734467Y-6523508D02*
X3753515Y-6542555D01*
X3753515Y-6542555D02*
X3763039Y-6561603D01*
X3763039Y-6561603D02*
X3772562Y-6599698D01*
X3772562Y-6599698D02*
X3772562Y-6628269D01*
X3772562Y-6628269D02*
X3763039Y-6666365D01*
X3763039Y-6666365D02*
X3753515Y-6685412D01*
X3753515Y-6685412D02*
X3734467Y-6704460D01*
X3734467Y-6704460D02*
X3705896Y-6713984D01*
X3705896Y-6713984D02*
X3658277Y-6713984D01*
X3858277Y-6713984D02*
X3858277Y-6580650D01*
X3858277Y-6618746D02*
X3867801Y-6599698D01*
X3867801Y-6599698D02*
X3877324Y-6590174D01*
X3877324Y-6590174D02*
X3896372Y-6580650D01*
X3896372Y-6580650D02*
X3915420Y-6580650D01*
X3982086Y-6713984D02*
X3982086Y-6580650D01*
X3982086Y-6513984D02*
X3972562Y-6523508D01*
X3972562Y-6523508D02*
X3982086Y-6533031D01*
X3982086Y-6533031D02*
X3991610Y-6523508D01*
X3991610Y-6523508D02*
X3982086Y-6513984D01*
X3982086Y-6513984D02*
X3982086Y-6533031D01*
X4105896Y-6713984D02*
X4086848Y-6704460D01*
X4086848Y-6704460D02*
X4077324Y-6685412D01*
X4077324Y-6685412D02*
X4077324Y-6513984D01*
X4210658Y-6713984D02*
X4191610Y-6704460D01*
X4191610Y-6704460D02*
X4182086Y-6685412D01*
X4182086Y-6685412D02*
X4182086Y-6513984D01*
X4439229Y-6713984D02*
X4439229Y-6513984D01*
X4439229Y-6513984D02*
X4505896Y-6656841D01*
X4505896Y-6656841D02*
X4572563Y-6513984D01*
X4572563Y-6513984D02*
X4572563Y-6713984D01*
X4753515Y-6713984D02*
X4753515Y-6609222D01*
X4753515Y-6609222D02*
X4743991Y-6590174D01*
X4743991Y-6590174D02*
X4724944Y-6580650D01*
X4724944Y-6580650D02*
X4686848Y-6580650D01*
X4686848Y-6580650D02*
X4667801Y-6590174D01*
X4753515Y-6704460D02*
X4734467Y-6713984D01*
X4734467Y-6713984D02*
X4686848Y-6713984D01*
X4686848Y-6713984D02*
X4667801Y-6704460D01*
X4667801Y-6704460D02*
X4658277Y-6685412D01*
X4658277Y-6685412D02*
X4658277Y-6666365D01*
X4658277Y-6666365D02*
X4667801Y-6647317D01*
X4667801Y-6647317D02*
X4686848Y-6637793D01*
X4686848Y-6637793D02*
X4734467Y-6637793D01*
X4734467Y-6637793D02*
X4753515Y-6628269D01*
X4848753Y-6580650D02*
X4848753Y-6780650D01*
X4848753Y-6590174D02*
X4867801Y-6580650D01*
X4867801Y-6580650D02*
X4905896Y-6580650D01*
X4905896Y-6580650D02*
X4924944Y-6590174D01*
X4924944Y-6590174D02*
X4934467Y-6599698D01*
X4934467Y-6599698D02*
X4943991Y-6618746D01*
X4943991Y-6618746D02*
X4943991Y-6675888D01*
X4943991Y-6675888D02*
X4934467Y-6694936D01*
X4934467Y-6694936D02*
X4924944Y-6704460D01*
X4924944Y-6704460D02*
X4905896Y-6713984D01*
X4905896Y-6713984D02*
X4867801Y-6713984D01*
X4867801Y-6713984D02*
X4848753Y-6704460D01*
X5029705Y-6694936D02*
X5039229Y-6704460D01*
X5039229Y-6704460D02*
X5029705Y-6713984D01*
X5029705Y-6713984D02*
X5020182Y-6704460D01*
X5020182Y-6704460D02*
X5029705Y-6694936D01*
X5029705Y-6694936D02*
X5029705Y-6713984D01*
X5029705Y-6590174D02*
X5039229Y-6599698D01*
X5039229Y-6599698D02*
X5029705Y-6609222D01*
X5029705Y-6609222D02*
X5020182Y-6599698D01*
X5020182Y-6599698D02*
X5029705Y-6590174D01*
X5029705Y-6590174D02*
X5029705Y-6609222D01*
X3197500Y-6942500D02*
X3397500Y-7142500D01*
X3397500Y-6942500D02*
X3197500Y-7142500D01*
X3639229Y-6933984D02*
X3763039Y-6933984D01*
X3763039Y-6933984D02*
X3696372Y-7010174D01*
X3696372Y-7010174D02*
X3724943Y-7010174D01*
X3724943Y-7010174D02*
X3743991Y-7019698D01*
X3743991Y-7019698D02*
X3753515Y-7029222D01*
X3753515Y-7029222D02*
X3763039Y-7048269D01*
X3763039Y-7048269D02*
X3763039Y-7095888D01*
X3763039Y-7095888D02*
X3753515Y-7114936D01*
X3753515Y-7114936D02*
X3743991Y-7124460D01*
X3743991Y-7124460D02*
X3724943Y-7133984D01*
X3724943Y-7133984D02*
X3667801Y-7133984D01*
X3667801Y-7133984D02*
X3648753Y-7124460D01*
X3648753Y-7124460D02*
X3639229Y-7114936D01*
X3848753Y-7114936D02*
X3858277Y-7124460D01*
X3858277Y-7124460D02*
X3848753Y-7133984D01*
X3848753Y-7133984D02*
X3839229Y-7124460D01*
X3839229Y-7124460D02*
X3848753Y-7114936D01*
X3848753Y-7114936D02*
X3848753Y-7133984D01*
X3934467Y-6953031D02*
X3943991Y-6943508D01*
X3943991Y-6943508D02*
X3963039Y-6933984D01*
X3963039Y-6933984D02*
X4010658Y-6933984D01*
X4010658Y-6933984D02*
X4029705Y-6943508D01*
X4029705Y-6943508D02*
X4039229Y-6953031D01*
X4039229Y-6953031D02*
X4048753Y-6972079D01*
X4048753Y-6972079D02*
X4048753Y-6991127D01*
X4048753Y-6991127D02*
X4039229Y-7019698D01*
X4039229Y-7019698D02*
X3924943Y-7133984D01*
X3924943Y-7133984D02*
X4048753Y-7133984D01*
X4172562Y-6933984D02*
X4191610Y-6933984D01*
X4191610Y-6933984D02*
X4210658Y-6943508D01*
X4210658Y-6943508D02*
X4220182Y-6953031D01*
X4220182Y-6953031D02*
X4229705Y-6972079D01*
X4229705Y-6972079D02*
X4239229Y-7010174D01*
X4239229Y-7010174D02*
X4239229Y-7057793D01*
X4239229Y-7057793D02*
X4229705Y-7095888D01*
X4229705Y-7095888D02*
X4220182Y-7114936D01*
X4220182Y-7114936D02*
X4210658Y-7124460D01*
X4210658Y-7124460D02*
X4191610Y-7133984D01*
X4191610Y-7133984D02*
X4172562Y-7133984D01*
X4172562Y-7133984D02*
X4153515Y-7124460D01*
X4153515Y-7124460D02*
X4143991Y-7114936D01*
X4143991Y-7114936D02*
X4134467Y-7095888D01*
X4134467Y-7095888D02*
X4124943Y-7057793D01*
X4124943Y-7057793D02*
X4124943Y-7010174D01*
X4124943Y-7010174D02*
X4134467Y-6972079D01*
X4134467Y-6972079D02*
X4143991Y-6953031D01*
X4143991Y-6953031D02*
X4153515Y-6943508D01*
X4153515Y-6943508D02*
X4172562Y-6933984D01*
X4363039Y-6933984D02*
X4382086Y-6933984D01*
X4382086Y-6933984D02*
X4401134Y-6943508D01*
X4401134Y-6943508D02*
X4410658Y-6953031D01*
X4410658Y-6953031D02*
X4420182Y-6972079D01*
X4420182Y-6972079D02*
X4429705Y-7010174D01*
X4429705Y-7010174D02*
X4429705Y-7057793D01*
X4429705Y-7057793D02*
X4420182Y-7095888D01*
X4420182Y-7095888D02*
X4410658Y-7114936D01*
X4410658Y-7114936D02*
X4401134Y-7124460D01*
X4401134Y-7124460D02*
X4382086Y-7133984D01*
X4382086Y-7133984D02*
X4363039Y-7133984D01*
X4363039Y-7133984D02*
X4343991Y-7124460D01*
X4343991Y-7124460D02*
X4334467Y-7114936D01*
X4334467Y-7114936D02*
X4324944Y-7095888D01*
X4324944Y-7095888D02*
X4315420Y-7057793D01*
X4315420Y-7057793D02*
X4315420Y-7010174D01*
X4315420Y-7010174D02*
X4324944Y-6972079D01*
X4324944Y-6972079D02*
X4334467Y-6953031D01*
X4334467Y-6953031D02*
X4343991Y-6943508D01*
X4343991Y-6943508D02*
X4363039Y-6933984D01*
X4515420Y-7133984D02*
X4515420Y-7000650D01*
X4515420Y-7019698D02*
X4524944Y-7010174D01*
X4524944Y-7010174D02*
X4543991Y-7000650D01*
X4543991Y-7000650D02*
X4572563Y-7000650D01*
X4572563Y-7000650D02*
X4591610Y-7010174D01*
X4591610Y-7010174D02*
X4601134Y-7029222D01*
X4601134Y-7029222D02*
X4601134Y-7133984D01*
X4601134Y-7029222D02*
X4610658Y-7010174D01*
X4610658Y-7010174D02*
X4629705Y-7000650D01*
X4629705Y-7000650D02*
X4658277Y-7000650D01*
X4658277Y-7000650D02*
X4677325Y-7010174D01*
X4677325Y-7010174D02*
X4686848Y-7029222D01*
X4686848Y-7029222D02*
X4686848Y-7133984D01*
X4782086Y-7133984D02*
X4782086Y-7000650D01*
X4782086Y-7019698D02*
X4791610Y-7010174D01*
X4791610Y-7010174D02*
X4810658Y-7000650D01*
X4810658Y-7000650D02*
X4839229Y-7000650D01*
X4839229Y-7000650D02*
X4858277Y-7010174D01*
X4858277Y-7010174D02*
X4867801Y-7029222D01*
X4867801Y-7029222D02*
X4867801Y-7133984D01*
X4867801Y-7029222D02*
X4877325Y-7010174D01*
X4877325Y-7010174D02*
X4896372Y-7000650D01*
X4896372Y-7000650D02*
X4924944Y-7000650D01*
X4924944Y-7000650D02*
X4943991Y-7010174D01*
X4943991Y-7010174D02*
X4953515Y-7029222D01*
X4953515Y-7029222D02*
X4953515Y-7133984D01*
X5343991Y-6924460D02*
X5172563Y-7181603D01*
X5601134Y-6933984D02*
X5620182Y-6933984D01*
X5620182Y-6933984D02*
X5639229Y-6943508D01*
X5639229Y-6943508D02*
X5648753Y-6953031D01*
X5648753Y-6953031D02*
X5658277Y-6972079D01*
X5658277Y-6972079D02*
X5667801Y-7010174D01*
X5667801Y-7010174D02*
X5667801Y-7057793D01*
X5667801Y-7057793D02*
X5658277Y-7095888D01*
X5658277Y-7095888D02*
X5648753Y-7114936D01*
X5648753Y-7114936D02*
X5639229Y-7124460D01*
X5639229Y-7124460D02*
X5620182Y-7133984D01*
X5620182Y-7133984D02*
X5601134Y-7133984D01*
X5601134Y-7133984D02*
X5582087Y-7124460D01*
X5582087Y-7124460D02*
X5572563Y-7114936D01*
X5572563Y-7114936D02*
X5563039Y-7095888D01*
X5563039Y-7095888D02*
X5553515Y-7057793D01*
X5553515Y-7057793D02*
X5553515Y-7010174D01*
X5553515Y-7010174D02*
X5563039Y-6972079D01*
X5563039Y-6972079D02*
X5572563Y-6953031D01*
X5572563Y-6953031D02*
X5582087Y-6943508D01*
X5582087Y-6943508D02*
X5601134Y-6933984D01*
X5753515Y-7114936D02*
X5763039Y-7124460D01*
X5763039Y-7124460D02*
X5753515Y-7133984D01*
X5753515Y-7133984D02*
X5743991Y-7124460D01*
X5743991Y-7124460D02*
X5753515Y-7114936D01*
X5753515Y-7114936D02*
X5753515Y-7133984D01*
X5953515Y-7133984D02*
X5839229Y-7133984D01*
X5896372Y-7133984D02*
X5896372Y-6933984D01*
X5896372Y-6933984D02*
X5877325Y-6962555D01*
X5877325Y-6962555D02*
X5858277Y-6981603D01*
X5858277Y-6981603D02*
X5839229Y-6991127D01*
X6029706Y-6953031D02*
X6039229Y-6943508D01*
X6039229Y-6943508D02*
X6058277Y-6933984D01*
X6058277Y-6933984D02*
X6105896Y-6933984D01*
X6105896Y-6933984D02*
X6124944Y-6943508D01*
X6124944Y-6943508D02*
X6134467Y-6953031D01*
X6134467Y-6953031D02*
X6143991Y-6972079D01*
X6143991Y-6972079D02*
X6143991Y-6991127D01*
X6143991Y-6991127D02*
X6134467Y-7019698D01*
X6134467Y-7019698D02*
X6020182Y-7133984D01*
X6020182Y-7133984D02*
X6143991Y-7133984D01*
X6315420Y-6933984D02*
X6277325Y-6933984D01*
X6277325Y-6933984D02*
X6258277Y-6943508D01*
X6258277Y-6943508D02*
X6248753Y-6953031D01*
X6248753Y-6953031D02*
X6229706Y-6981603D01*
X6229706Y-6981603D02*
X6220182Y-7019698D01*
X6220182Y-7019698D02*
X6220182Y-7095888D01*
X6220182Y-7095888D02*
X6229706Y-7114936D01*
X6229706Y-7114936D02*
X6239229Y-7124460D01*
X6239229Y-7124460D02*
X6258277Y-7133984D01*
X6258277Y-7133984D02*
X6296372Y-7133984D01*
X6296372Y-7133984D02*
X6315420Y-7124460D01*
X6315420Y-7124460D02*
X6324944Y-7114936D01*
X6324944Y-7114936D02*
X6334467Y-7095888D01*
X6334467Y-7095888D02*
X6334467Y-7048269D01*
X6334467Y-7048269D02*
X6324944Y-7029222D01*
X6324944Y-7029222D02*
X6315420Y-7019698D01*
X6315420Y-7019698D02*
X6296372Y-7010174D01*
X6296372Y-7010174D02*
X6258277Y-7010174D01*
X6258277Y-7010174D02*
X6239229Y-7019698D01*
X6239229Y-7019698D02*
X6229706Y-7029222D01*
X6229706Y-7029222D02*
X6220182Y-7048269D01*
X6458277Y-6933984D02*
X6477325Y-6933984D01*
X6477325Y-6933984D02*
X6496372Y-6943508D01*
X6496372Y-6943508D02*
X6505896Y-6953031D01*
X6505896Y-6953031D02*
X6515420Y-6972079D01*
X6515420Y-6972079D02*
X6524944Y-7010174D01*
X6524944Y-7010174D02*
X6524944Y-7057793D01*
X6524944Y-7057793D02*
X6515420Y-7095888D01*
X6515420Y-7095888D02*
X6505896Y-7114936D01*
X6505896Y-7114936D02*
X6496372Y-7124460D01*
X6496372Y-7124460D02*
X6477325Y-7133984D01*
X6477325Y-7133984D02*
X6458277Y-7133984D01*
X6458277Y-7133984D02*
X6439229Y-7124460D01*
X6439229Y-7124460D02*
X6429706Y-7114936D01*
X6429706Y-7114936D02*
X6420182Y-7095888D01*
X6420182Y-7095888D02*
X6410658Y-7057793D01*
X6410658Y-7057793D02*
X6410658Y-7010174D01*
X6410658Y-7010174D02*
X6420182Y-6972079D01*
X6420182Y-6972079D02*
X6429706Y-6953031D01*
X6429706Y-6953031D02*
X6439229Y-6943508D01*
X6439229Y-6943508D02*
X6458277Y-6933984D01*
X6601134Y-6933984D02*
X6601134Y-6972079D01*
X6677325Y-6933984D02*
X6677325Y-6972079D01*
X6972563Y-7210174D02*
X6963039Y-7200650D01*
X6963039Y-7200650D02*
X6943991Y-7172079D01*
X6943991Y-7172079D02*
X6934468Y-7153031D01*
X6934468Y-7153031D02*
X6924944Y-7124460D01*
X6924944Y-7124460D02*
X6915420Y-7076841D01*
X6915420Y-7076841D02*
X6915420Y-7038746D01*
X6915420Y-7038746D02*
X6924944Y-6991127D01*
X6924944Y-6991127D02*
X6934468Y-6962555D01*
X6934468Y-6962555D02*
X6943991Y-6943508D01*
X6943991Y-6943508D02*
X6963039Y-6914936D01*
X6963039Y-6914936D02*
X6972563Y-6905412D01*
X7153515Y-7133984D02*
X7039229Y-7133984D01*
X7096372Y-7133984D02*
X7096372Y-6933984D01*
X7096372Y-6933984D02*
X7077325Y-6962555D01*
X7077325Y-6962555D02*
X7058277Y-6981603D01*
X7058277Y-6981603D02*
X7039229Y-6991127D01*
X7391610Y-7133984D02*
X7391610Y-6933984D01*
X7477325Y-7133984D02*
X7477325Y-7029222D01*
X7477325Y-7029222D02*
X7467801Y-7010174D01*
X7467801Y-7010174D02*
X7448753Y-7000650D01*
X7448753Y-7000650D02*
X7420182Y-7000650D01*
X7420182Y-7000650D02*
X7401134Y-7010174D01*
X7401134Y-7010174D02*
X7391610Y-7019698D01*
X7601134Y-7133984D02*
X7582087Y-7124460D01*
X7582087Y-7124460D02*
X7572563Y-7114936D01*
X7572563Y-7114936D02*
X7563039Y-7095888D01*
X7563039Y-7095888D02*
X7563039Y-7038746D01*
X7563039Y-7038746D02*
X7572563Y-7019698D01*
X7572563Y-7019698D02*
X7582087Y-7010174D01*
X7582087Y-7010174D02*
X7601134Y-7000650D01*
X7601134Y-7000650D02*
X7629706Y-7000650D01*
X7629706Y-7000650D02*
X7648753Y-7010174D01*
X7648753Y-7010174D02*
X7658277Y-7019698D01*
X7658277Y-7019698D02*
X7667801Y-7038746D01*
X7667801Y-7038746D02*
X7667801Y-7095888D01*
X7667801Y-7095888D02*
X7658277Y-7114936D01*
X7658277Y-7114936D02*
X7648753Y-7124460D01*
X7648753Y-7124460D02*
X7629706Y-7133984D01*
X7629706Y-7133984D02*
X7601134Y-7133984D01*
X7782087Y-7133984D02*
X7763039Y-7124460D01*
X7763039Y-7124460D02*
X7753515Y-7105412D01*
X7753515Y-7105412D02*
X7753515Y-6933984D01*
X7934468Y-7124460D02*
X7915420Y-7133984D01*
X7915420Y-7133984D02*
X7877325Y-7133984D01*
X7877325Y-7133984D02*
X7858277Y-7124460D01*
X7858277Y-7124460D02*
X7848753Y-7105412D01*
X7848753Y-7105412D02*
X7848753Y-7029222D01*
X7848753Y-7029222D02*
X7858277Y-7010174D01*
X7858277Y-7010174D02*
X7877325Y-7000650D01*
X7877325Y-7000650D02*
X7915420Y-7000650D01*
X7915420Y-7000650D02*
X7934468Y-7010174D01*
X7934468Y-7010174D02*
X7943991Y-7029222D01*
X7943991Y-7029222D02*
X7943991Y-7048269D01*
X7943991Y-7048269D02*
X7848753Y-7067317D01*
X8010658Y-7210174D02*
X8020182Y-7200650D01*
X8020182Y-7200650D02*
X8039230Y-7172079D01*
X8039230Y-7172079D02*
X8048753Y-7153031D01*
X8048753Y-7153031D02*
X8058277Y-7124460D01*
X8058277Y-7124460D02*
X8067801Y-7076841D01*
X8067801Y-7076841D02*
X8067801Y-7038746D01*
X8067801Y-7038746D02*
X8058277Y-6991127D01*
X8058277Y-6991127D02*
X8048753Y-6962555D01*
X8048753Y-6962555D02*
X8039230Y-6943508D01*
X8039230Y-6943508D02*
X8020182Y-6914936D01*
X8020182Y-6914936D02*
X8010658Y-6905412D01*
X8372563Y-7210174D02*
X8363039Y-7200650D01*
X8363039Y-7200650D02*
X8343991Y-7172079D01*
X8343991Y-7172079D02*
X8334468Y-7153031D01*
X8334468Y-7153031D02*
X8324944Y-7124460D01*
X8324944Y-7124460D02*
X8315420Y-7076841D01*
X8315420Y-7076841D02*
X8315420Y-7038746D01*
X8315420Y-7038746D02*
X8324944Y-6991127D01*
X8324944Y-6991127D02*
X8334468Y-6962555D01*
X8334468Y-6962555D02*
X8343991Y-6943508D01*
X8343991Y-6943508D02*
X8363039Y-6914936D01*
X8363039Y-6914936D02*
X8372563Y-6905412D01*
X8448753Y-7000650D02*
X8448753Y-7133984D01*
X8448753Y-7019698D02*
X8458277Y-7010174D01*
X8458277Y-7010174D02*
X8477325Y-7000650D01*
X8477325Y-7000650D02*
X8505896Y-7000650D01*
X8505896Y-7000650D02*
X8524944Y-7010174D01*
X8524944Y-7010174D02*
X8534468Y-7029222D01*
X8534468Y-7029222D02*
X8534468Y-7133984D01*
X8658277Y-7133984D02*
X8639230Y-7124460D01*
X8639230Y-7124460D02*
X8629706Y-7114936D01*
X8629706Y-7114936D02*
X8620182Y-7095888D01*
X8620182Y-7095888D02*
X8620182Y-7038746D01*
X8620182Y-7038746D02*
X8629706Y-7019698D01*
X8629706Y-7019698D02*
X8639230Y-7010174D01*
X8639230Y-7010174D02*
X8658277Y-7000650D01*
X8658277Y-7000650D02*
X8686849Y-7000650D01*
X8686849Y-7000650D02*
X8705896Y-7010174D01*
X8705896Y-7010174D02*
X8715420Y-7019698D01*
X8715420Y-7019698D02*
X8724944Y-7038746D01*
X8724944Y-7038746D02*
X8724944Y-7095888D01*
X8724944Y-7095888D02*
X8715420Y-7114936D01*
X8715420Y-7114936D02*
X8705896Y-7124460D01*
X8705896Y-7124460D02*
X8686849Y-7133984D01*
X8686849Y-7133984D02*
X8658277Y-7133984D01*
X8782087Y-7000650D02*
X8858277Y-7000650D01*
X8810658Y-6933984D02*
X8810658Y-7105412D01*
X8810658Y-7105412D02*
X8820182Y-7124460D01*
X8820182Y-7124460D02*
X8839230Y-7133984D01*
X8839230Y-7133984D02*
X8858277Y-7133984D01*
X9077325Y-7000650D02*
X9077325Y-7200650D01*
X9077325Y-7010174D02*
X9096373Y-7000650D01*
X9096373Y-7000650D02*
X9134468Y-7000650D01*
X9134468Y-7000650D02*
X9153515Y-7010174D01*
X9153515Y-7010174D02*
X9163039Y-7019698D01*
X9163039Y-7019698D02*
X9172563Y-7038746D01*
X9172563Y-7038746D02*
X9172563Y-7095888D01*
X9172563Y-7095888D02*
X9163039Y-7114936D01*
X9163039Y-7114936D02*
X9153515Y-7124460D01*
X9153515Y-7124460D02*
X9134468Y-7133984D01*
X9134468Y-7133984D02*
X9096373Y-7133984D01*
X9096373Y-7133984D02*
X9077325Y-7124460D01*
X9286849Y-7133984D02*
X9267801Y-7124460D01*
X9267801Y-7124460D02*
X9258277Y-7105412D01*
X9258277Y-7105412D02*
X9258277Y-6933984D01*
X9448754Y-7133984D02*
X9448754Y-7029222D01*
X9448754Y-7029222D02*
X9439230Y-7010174D01*
X9439230Y-7010174D02*
X9420182Y-7000650D01*
X9420182Y-7000650D02*
X9382087Y-7000650D01*
X9382087Y-7000650D02*
X9363039Y-7010174D01*
X9448754Y-7124460D02*
X9429706Y-7133984D01*
X9429706Y-7133984D02*
X9382087Y-7133984D01*
X9382087Y-7133984D02*
X9363039Y-7124460D01*
X9363039Y-7124460D02*
X9353515Y-7105412D01*
X9353515Y-7105412D02*
X9353515Y-7086365D01*
X9353515Y-7086365D02*
X9363039Y-7067317D01*
X9363039Y-7067317D02*
X9382087Y-7057793D01*
X9382087Y-7057793D02*
X9429706Y-7057793D01*
X9429706Y-7057793D02*
X9448754Y-7048269D01*
X9515420Y-7000650D02*
X9591611Y-7000650D01*
X9543992Y-6933984D02*
X9543992Y-7105412D01*
X9543992Y-7105412D02*
X9553515Y-7124460D01*
X9553515Y-7124460D02*
X9572563Y-7133984D01*
X9572563Y-7133984D02*
X9591611Y-7133984D01*
X9734468Y-7124460D02*
X9715420Y-7133984D01*
X9715420Y-7133984D02*
X9677325Y-7133984D01*
X9677325Y-7133984D02*
X9658277Y-7124460D01*
X9658277Y-7124460D02*
X9648754Y-7105412D01*
X9648754Y-7105412D02*
X9648754Y-7029222D01*
X9648754Y-7029222D02*
X9658277Y-7010174D01*
X9658277Y-7010174D02*
X9677325Y-7000650D01*
X9677325Y-7000650D02*
X9715420Y-7000650D01*
X9715420Y-7000650D02*
X9734468Y-7010174D01*
X9734468Y-7010174D02*
X9743992Y-7029222D01*
X9743992Y-7029222D02*
X9743992Y-7048269D01*
X9743992Y-7048269D02*
X9648754Y-7067317D01*
X9915420Y-7133984D02*
X9915420Y-6933984D01*
X9915420Y-7124460D02*
X9896373Y-7133984D01*
X9896373Y-7133984D02*
X9858277Y-7133984D01*
X9858277Y-7133984D02*
X9839230Y-7124460D01*
X9839230Y-7124460D02*
X9829706Y-7114936D01*
X9829706Y-7114936D02*
X9820182Y-7095888D01*
X9820182Y-7095888D02*
X9820182Y-7038746D01*
X9820182Y-7038746D02*
X9829706Y-7019698D01*
X9829706Y-7019698D02*
X9839230Y-7010174D01*
X9839230Y-7010174D02*
X9858277Y-7000650D01*
X9858277Y-7000650D02*
X9896373Y-7000650D01*
X9896373Y-7000650D02*
X9915420Y-7010174D01*
X9991611Y-7210174D02*
X10001135Y-7200650D01*
X10001135Y-7200650D02*
X10020182Y-7172079D01*
X10020182Y-7172079D02*
X10029706Y-7153031D01*
X10029706Y-7153031D02*
X10039230Y-7124460D01*
X10039230Y-7124460D02*
X10048754Y-7076841D01*
X10048754Y-7076841D02*
X10048754Y-7038746D01*
X10048754Y-7038746D02*
X10039230Y-6991127D01*
X10039230Y-6991127D02*
X10029706Y-6962555D01*
X10029706Y-6962555D02*
X10020182Y-6943508D01*
X10020182Y-6943508D02*
X10001135Y-6914936D01*
X10001135Y-6914936D02*
X9991611Y-6905412D01*
M02*
