%TF.GenerationSoftware,KiCad,Pcbnew,7.0.7-7.0.7~ubuntu22.04.1*%
%TF.CreationDate,2023-09-11T18:28:41+01:00*%
%TF.ProjectId,Blinder,426c696e-6465-4722-9e6b-696361645f70,rev?*%
%TF.SameCoordinates,Original*%
%TF.FileFunction,Paste,Top*%
%TF.FilePolarity,Positive*%
%FSLAX46Y46*%
G04 Gerber Fmt 4.6, Leading zero omitted, Abs format (unit mm)*
G04 Created by KiCad (PCBNEW 7.0.7-7.0.7~ubuntu22.04.1) date 2023-09-11 18:28:41*
%MOMM*%
%LPD*%
G01*
G04 APERTURE LIST*
G04 Aperture macros list*
%AMRoundRect*
0 Rectangle with rounded corners*
0 $1 Rounding radius*
0 $2 $3 $4 $5 $6 $7 $8 $9 X,Y pos of 4 corners*
0 Add a 4 corners polygon primitive as box body*
4,1,4,$2,$3,$4,$5,$6,$7,$8,$9,$2,$3,0*
0 Add four circle primitives for the rounded corners*
1,1,$1+$1,$2,$3*
1,1,$1+$1,$4,$5*
1,1,$1+$1,$6,$7*
1,1,$1+$1,$8,$9*
0 Add four rect primitives between the rounded corners*
20,1,$1+$1,$2,$3,$4,$5,0*
20,1,$1+$1,$4,$5,$6,$7,0*
20,1,$1+$1,$6,$7,$8,$9,0*
20,1,$1+$1,$8,$9,$2,$3,0*%
G04 Aperture macros list end*
%ADD10R,1.000000X2.500000*%
%ADD11R,1.800000X1.000000*%
%ADD12RoundRect,0.250000X0.450000X-0.350000X0.450000X0.350000X-0.450000X0.350000X-0.450000X-0.350000X0*%
%ADD13RoundRect,0.250000X-0.475000X0.337500X-0.475000X-0.337500X0.475000X-0.337500X0.475000X0.337500X0*%
%ADD14RoundRect,0.250000X0.475000X-0.337500X0.475000X0.337500X-0.475000X0.337500X-0.475000X-0.337500X0*%
%ADD15RoundRect,0.250000X-0.450000X0.350000X-0.450000X-0.350000X0.450000X-0.350000X0.450000X0.350000X0*%
%ADD16RoundRect,0.250000X0.350000X0.450000X-0.350000X0.450000X-0.350000X-0.450000X0.350000X-0.450000X0*%
G04 APERTURE END LIST*
D10*
%TO.C,U2*%
X74168000Y-44323000D03*
X72168000Y-44323000D03*
X70168000Y-44323000D03*
X68168000Y-44323000D03*
X66168000Y-44323000D03*
X64168000Y-44323000D03*
X62168000Y-44323000D03*
X60168000Y-44323000D03*
D11*
X58668000Y-41723000D03*
X58668000Y-39723000D03*
X58668000Y-37723000D03*
X58668000Y-35723000D03*
X58668000Y-33723000D03*
X58668000Y-31723000D03*
D10*
X60168000Y-29123000D03*
X62168000Y-29123000D03*
X64168000Y-29123000D03*
X66168000Y-29123000D03*
X68168000Y-29123000D03*
X70168000Y-29123000D03*
X72168000Y-29123000D03*
X74168000Y-29123000D03*
%TD*%
D12*
%TO.C,R8*%
X42545000Y-48419000D03*
X42545000Y-50419000D03*
%TD*%
D13*
%TO.C,C5*%
X57150000Y-53805000D03*
X57150000Y-55880000D03*
%TD*%
D12*
%TO.C,R1*%
X49022000Y-32417000D03*
X49022000Y-34417000D03*
%TD*%
D14*
%TO.C,C2*%
X40513000Y-50419000D03*
X40513000Y-48344000D03*
%TD*%
D15*
%TO.C,R3*%
X49022000Y-39243000D03*
X49022000Y-37243000D03*
%TD*%
D14*
%TO.C,C1*%
X55500000Y-30075000D03*
X55500000Y-28000000D03*
%TD*%
D12*
%TO.C,R2*%
X49000000Y-28210000D03*
X49000000Y-30210000D03*
%TD*%
D14*
%TO.C,C4*%
X47625000Y-50567500D03*
X47625000Y-48492500D03*
%TD*%
D13*
%TO.C,C3*%
X57150000Y-58885000D03*
X57150000Y-60960000D03*
%TD*%
D12*
%TO.C,R5*%
X55500000Y-45000000D03*
X55500000Y-43000000D03*
%TD*%
D16*
%TO.C,R4*%
X47720000Y-43180000D03*
X45720000Y-43180000D03*
%TD*%
D12*
%TO.C,R7*%
X45339000Y-48403000D03*
X45339000Y-50403000D03*
%TD*%
%TO.C,R6*%
X69000000Y-22000000D03*
X69000000Y-24000000D03*
%TD*%
M02*
