%TF.GenerationSoftware,KiCad,Pcbnew,7.0.7-7.0.7~ubuntu22.04.1*%
%TF.CreationDate,2023-09-11T18:28:41+01:00*%
%TF.ProjectId,Blinder,426c696e-6465-4722-9e6b-696361645f70,rev?*%
%TF.SameCoordinates,Original*%
%TF.FileFunction,Legend,Top*%
%TF.FilePolarity,Positive*%
%FSLAX46Y46*%
G04 Gerber Fmt 4.6, Leading zero omitted, Abs format (unit mm)*
G04 Created by KiCad (PCBNEW 7.0.7-7.0.7~ubuntu22.04.1) date 2023-09-11 18:28:41*
%MOMM*%
%LPD*%
G01*
G04 APERTURE LIST*
%ADD10C,0.150000*%
%ADD11C,0.100000*%
%ADD12C,0.120000*%
%ADD13C,0.010000*%
%ADD14C,0.254000*%
%ADD15C,0.500000*%
G04 APERTURE END LIST*
D10*
X71991905Y-26414819D02*
X71991905Y-25414819D01*
X71991905Y-25414819D02*
X72230000Y-25414819D01*
X72230000Y-25414819D02*
X72372857Y-25462438D01*
X72372857Y-25462438D02*
X72468095Y-25557676D01*
X72468095Y-25557676D02*
X72515714Y-25652914D01*
X72515714Y-25652914D02*
X72563333Y-25843390D01*
X72563333Y-25843390D02*
X72563333Y-25986247D01*
X72563333Y-25986247D02*
X72515714Y-26176723D01*
X72515714Y-26176723D02*
X72468095Y-26271961D01*
X72468095Y-26271961D02*
X72372857Y-26367200D01*
X72372857Y-26367200D02*
X72230000Y-26414819D01*
X72230000Y-26414819D02*
X71991905Y-26414819D01*
X73515714Y-26414819D02*
X72944286Y-26414819D01*
X73230000Y-26414819D02*
X73230000Y-25414819D01*
X73230000Y-25414819D02*
X73134762Y-25557676D01*
X73134762Y-25557676D02*
X73039524Y-25652914D01*
X73039524Y-25652914D02*
X72944286Y-25700533D01*
X63246095Y-36538819D02*
X63246095Y-37348342D01*
X63246095Y-37348342D02*
X63293714Y-37443580D01*
X63293714Y-37443580D02*
X63341333Y-37491200D01*
X63341333Y-37491200D02*
X63436571Y-37538819D01*
X63436571Y-37538819D02*
X63627047Y-37538819D01*
X63627047Y-37538819D02*
X63722285Y-37491200D01*
X63722285Y-37491200D02*
X63769904Y-37443580D01*
X63769904Y-37443580D02*
X63817523Y-37348342D01*
X63817523Y-37348342D02*
X63817523Y-36538819D01*
X64246095Y-36634057D02*
X64293714Y-36586438D01*
X64293714Y-36586438D02*
X64388952Y-36538819D01*
X64388952Y-36538819D02*
X64627047Y-36538819D01*
X64627047Y-36538819D02*
X64722285Y-36586438D01*
X64722285Y-36586438D02*
X64769904Y-36634057D01*
X64769904Y-36634057D02*
X64817523Y-36729295D01*
X64817523Y-36729295D02*
X64817523Y-36824533D01*
X64817523Y-36824533D02*
X64769904Y-36967390D01*
X64769904Y-36967390D02*
X64198476Y-37538819D01*
X64198476Y-37538819D02*
X64817523Y-37538819D01*
X44870433Y-56461998D02*
X44870433Y-55461612D01*
X45918456Y-56366723D02*
X45870818Y-56414361D01*
X45870818Y-56414361D02*
X45727906Y-56461998D01*
X45727906Y-56461998D02*
X45632631Y-56461998D01*
X45632631Y-56461998D02*
X45489719Y-56414361D01*
X45489719Y-56414361D02*
X45394444Y-56319086D01*
X45394444Y-56319086D02*
X45346807Y-56223811D01*
X45346807Y-56223811D02*
X45299169Y-56033261D01*
X45299169Y-56033261D02*
X45299169Y-55890349D01*
X45299169Y-55890349D02*
X45346807Y-55699799D01*
X45346807Y-55699799D02*
X45394444Y-55604524D01*
X45394444Y-55604524D02*
X45489719Y-55509249D01*
X45489719Y-55509249D02*
X45632631Y-55461612D01*
X45632631Y-55461612D02*
X45727906Y-55461612D01*
X45727906Y-55461612D02*
X45870818Y-55509249D01*
X45870818Y-55509249D02*
X45918456Y-55556887D01*
X46871204Y-56461998D02*
X46299555Y-56461998D01*
X46585380Y-56461998D02*
X46585380Y-55461612D01*
X46585380Y-55461612D02*
X46490105Y-55604524D01*
X46490105Y-55604524D02*
X46394830Y-55699799D01*
X46394830Y-55699799D02*
X46299555Y-55747437D01*
X52006666Y-44814819D02*
X52006666Y-45529104D01*
X52006666Y-45529104D02*
X51959047Y-45671961D01*
X51959047Y-45671961D02*
X51863809Y-45767200D01*
X51863809Y-45767200D02*
X51720952Y-45814819D01*
X51720952Y-45814819D02*
X51625714Y-45814819D01*
X52959047Y-44814819D02*
X52482857Y-44814819D01*
X52482857Y-44814819D02*
X52435238Y-45291009D01*
X52435238Y-45291009D02*
X52482857Y-45243390D01*
X52482857Y-45243390D02*
X52578095Y-45195771D01*
X52578095Y-45195771D02*
X52816190Y-45195771D01*
X52816190Y-45195771D02*
X52911428Y-45243390D01*
X52911428Y-45243390D02*
X52959047Y-45291009D01*
X52959047Y-45291009D02*
X53006666Y-45386247D01*
X53006666Y-45386247D02*
X53006666Y-45624342D01*
X53006666Y-45624342D02*
X52959047Y-45719580D01*
X52959047Y-45719580D02*
X52911428Y-45767200D01*
X52911428Y-45767200D02*
X52816190Y-45814819D01*
X52816190Y-45814819D02*
X52578095Y-45814819D01*
X52578095Y-45814819D02*
X52482857Y-45767200D01*
X52482857Y-45767200D02*
X52435238Y-45719580D01*
X51116667Y-24087200D02*
X51259524Y-24134819D01*
X51259524Y-24134819D02*
X51497619Y-24134819D01*
X51497619Y-24134819D02*
X51592857Y-24087200D01*
X51592857Y-24087200D02*
X51640476Y-24039580D01*
X51640476Y-24039580D02*
X51688095Y-23944342D01*
X51688095Y-23944342D02*
X51688095Y-23849104D01*
X51688095Y-23849104D02*
X51640476Y-23753866D01*
X51640476Y-23753866D02*
X51592857Y-23706247D01*
X51592857Y-23706247D02*
X51497619Y-23658628D01*
X51497619Y-23658628D02*
X51307143Y-23611009D01*
X51307143Y-23611009D02*
X51211905Y-23563390D01*
X51211905Y-23563390D02*
X51164286Y-23515771D01*
X51164286Y-23515771D02*
X51116667Y-23420533D01*
X51116667Y-23420533D02*
X51116667Y-23325295D01*
X51116667Y-23325295D02*
X51164286Y-23230057D01*
X51164286Y-23230057D02*
X51211905Y-23182438D01*
X51211905Y-23182438D02*
X51307143Y-23134819D01*
X51307143Y-23134819D02*
X51545238Y-23134819D01*
X51545238Y-23134819D02*
X51688095Y-23182438D01*
X52021429Y-23134819D02*
X52259524Y-24134819D01*
X52259524Y-24134819D02*
X52450000Y-23420533D01*
X52450000Y-23420533D02*
X52640476Y-24134819D01*
X52640476Y-24134819D02*
X52878572Y-23134819D01*
X53211905Y-23230057D02*
X53259524Y-23182438D01*
X53259524Y-23182438D02*
X53354762Y-23134819D01*
X53354762Y-23134819D02*
X53592857Y-23134819D01*
X53592857Y-23134819D02*
X53688095Y-23182438D01*
X53688095Y-23182438D02*
X53735714Y-23230057D01*
X53735714Y-23230057D02*
X53783333Y-23325295D01*
X53783333Y-23325295D02*
X53783333Y-23420533D01*
X53783333Y-23420533D02*
X53735714Y-23563390D01*
X53735714Y-23563390D02*
X53164286Y-24134819D01*
X53164286Y-24134819D02*
X53783333Y-24134819D01*
X43521333Y-47190819D02*
X43188000Y-46714628D01*
X42949905Y-47190819D02*
X42949905Y-46190819D01*
X42949905Y-46190819D02*
X43330857Y-46190819D01*
X43330857Y-46190819D02*
X43426095Y-46238438D01*
X43426095Y-46238438D02*
X43473714Y-46286057D01*
X43473714Y-46286057D02*
X43521333Y-46381295D01*
X43521333Y-46381295D02*
X43521333Y-46524152D01*
X43521333Y-46524152D02*
X43473714Y-46619390D01*
X43473714Y-46619390D02*
X43426095Y-46667009D01*
X43426095Y-46667009D02*
X43330857Y-46714628D01*
X43330857Y-46714628D02*
X42949905Y-46714628D01*
X44092762Y-46619390D02*
X43997524Y-46571771D01*
X43997524Y-46571771D02*
X43949905Y-46524152D01*
X43949905Y-46524152D02*
X43902286Y-46428914D01*
X43902286Y-46428914D02*
X43902286Y-46381295D01*
X43902286Y-46381295D02*
X43949905Y-46286057D01*
X43949905Y-46286057D02*
X43997524Y-46238438D01*
X43997524Y-46238438D02*
X44092762Y-46190819D01*
X44092762Y-46190819D02*
X44283238Y-46190819D01*
X44283238Y-46190819D02*
X44378476Y-46238438D01*
X44378476Y-46238438D02*
X44426095Y-46286057D01*
X44426095Y-46286057D02*
X44473714Y-46381295D01*
X44473714Y-46381295D02*
X44473714Y-46428914D01*
X44473714Y-46428914D02*
X44426095Y-46524152D01*
X44426095Y-46524152D02*
X44378476Y-46571771D01*
X44378476Y-46571771D02*
X44283238Y-46619390D01*
X44283238Y-46619390D02*
X44092762Y-46619390D01*
X44092762Y-46619390D02*
X43997524Y-46667009D01*
X43997524Y-46667009D02*
X43949905Y-46714628D01*
X43949905Y-46714628D02*
X43902286Y-46809866D01*
X43902286Y-46809866D02*
X43902286Y-47000342D01*
X43902286Y-47000342D02*
X43949905Y-47095580D01*
X43949905Y-47095580D02*
X43997524Y-47143200D01*
X43997524Y-47143200D02*
X44092762Y-47190819D01*
X44092762Y-47190819D02*
X44283238Y-47190819D01*
X44283238Y-47190819D02*
X44378476Y-47143200D01*
X44378476Y-47143200D02*
X44426095Y-47095580D01*
X44426095Y-47095580D02*
X44473714Y-47000342D01*
X44473714Y-47000342D02*
X44473714Y-46809866D01*
X44473714Y-46809866D02*
X44426095Y-46714628D01*
X44426095Y-46714628D02*
X44378476Y-46667009D01*
X44378476Y-46667009D02*
X44283238Y-46619390D01*
X59189580Y-55009166D02*
X59237200Y-55056785D01*
X59237200Y-55056785D02*
X59284819Y-55199642D01*
X59284819Y-55199642D02*
X59284819Y-55294880D01*
X59284819Y-55294880D02*
X59237200Y-55437737D01*
X59237200Y-55437737D02*
X59141961Y-55532975D01*
X59141961Y-55532975D02*
X59046723Y-55580594D01*
X59046723Y-55580594D02*
X58856247Y-55628213D01*
X58856247Y-55628213D02*
X58713390Y-55628213D01*
X58713390Y-55628213D02*
X58522914Y-55580594D01*
X58522914Y-55580594D02*
X58427676Y-55532975D01*
X58427676Y-55532975D02*
X58332438Y-55437737D01*
X58332438Y-55437737D02*
X58284819Y-55294880D01*
X58284819Y-55294880D02*
X58284819Y-55199642D01*
X58284819Y-55199642D02*
X58332438Y-55056785D01*
X58332438Y-55056785D02*
X58380057Y-55009166D01*
X58284819Y-54104404D02*
X58284819Y-54580594D01*
X58284819Y-54580594D02*
X58761009Y-54628213D01*
X58761009Y-54628213D02*
X58713390Y-54580594D01*
X58713390Y-54580594D02*
X58665771Y-54485356D01*
X58665771Y-54485356D02*
X58665771Y-54247261D01*
X58665771Y-54247261D02*
X58713390Y-54152023D01*
X58713390Y-54152023D02*
X58761009Y-54104404D01*
X58761009Y-54104404D02*
X58856247Y-54056785D01*
X58856247Y-54056785D02*
X59094342Y-54056785D01*
X59094342Y-54056785D02*
X59189580Y-54104404D01*
X59189580Y-54104404D02*
X59237200Y-54152023D01*
X59237200Y-54152023D02*
X59284819Y-54247261D01*
X59284819Y-54247261D02*
X59284819Y-54485356D01*
X59284819Y-54485356D02*
X59237200Y-54580594D01*
X59237200Y-54580594D02*
X59189580Y-54628213D01*
X57666666Y-45534819D02*
X57666666Y-46249104D01*
X57666666Y-46249104D02*
X57619047Y-46391961D01*
X57619047Y-46391961D02*
X57523809Y-46487200D01*
X57523809Y-46487200D02*
X57380952Y-46534819D01*
X57380952Y-46534819D02*
X57285714Y-46534819D01*
X58047619Y-45534819D02*
X58666666Y-45534819D01*
X58666666Y-45534819D02*
X58333333Y-45915771D01*
X58333333Y-45915771D02*
X58476190Y-45915771D01*
X58476190Y-45915771D02*
X58571428Y-45963390D01*
X58571428Y-45963390D02*
X58619047Y-46011009D01*
X58619047Y-46011009D02*
X58666666Y-46106247D01*
X58666666Y-46106247D02*
X58666666Y-46344342D01*
X58666666Y-46344342D02*
X58619047Y-46439580D01*
X58619047Y-46439580D02*
X58571428Y-46487200D01*
X58571428Y-46487200D02*
X58476190Y-46534819D01*
X58476190Y-46534819D02*
X58190476Y-46534819D01*
X58190476Y-46534819D02*
X58095238Y-46487200D01*
X58095238Y-46487200D02*
X58047619Y-46439580D01*
X54443333Y-34617819D02*
X54110000Y-34141628D01*
X53871905Y-34617819D02*
X53871905Y-33617819D01*
X53871905Y-33617819D02*
X54252857Y-33617819D01*
X54252857Y-33617819D02*
X54348095Y-33665438D01*
X54348095Y-33665438D02*
X54395714Y-33713057D01*
X54395714Y-33713057D02*
X54443333Y-33808295D01*
X54443333Y-33808295D02*
X54443333Y-33951152D01*
X54443333Y-33951152D02*
X54395714Y-34046390D01*
X54395714Y-34046390D02*
X54348095Y-34094009D01*
X54348095Y-34094009D02*
X54252857Y-34141628D01*
X54252857Y-34141628D02*
X53871905Y-34141628D01*
X55395714Y-34617819D02*
X54824286Y-34617819D01*
X55110000Y-34617819D02*
X55110000Y-33617819D01*
X55110000Y-33617819D02*
X55014762Y-33760676D01*
X55014762Y-33760676D02*
X54919524Y-33855914D01*
X54919524Y-33855914D02*
X54824286Y-33903533D01*
X54403666Y-36411819D02*
X54403666Y-37126104D01*
X54403666Y-37126104D02*
X54356047Y-37268961D01*
X54356047Y-37268961D02*
X54260809Y-37364200D01*
X54260809Y-37364200D02*
X54117952Y-37411819D01*
X54117952Y-37411819D02*
X54022714Y-37411819D01*
X54832238Y-36507057D02*
X54879857Y-36459438D01*
X54879857Y-36459438D02*
X54975095Y-36411819D01*
X54975095Y-36411819D02*
X55213190Y-36411819D01*
X55213190Y-36411819D02*
X55308428Y-36459438D01*
X55308428Y-36459438D02*
X55356047Y-36507057D01*
X55356047Y-36507057D02*
X55403666Y-36602295D01*
X55403666Y-36602295D02*
X55403666Y-36697533D01*
X55403666Y-36697533D02*
X55356047Y-36840390D01*
X55356047Y-36840390D02*
X54784619Y-37411819D01*
X54784619Y-37411819D02*
X55403666Y-37411819D01*
X39192580Y-49548166D02*
X39240200Y-49595785D01*
X39240200Y-49595785D02*
X39287819Y-49738642D01*
X39287819Y-49738642D02*
X39287819Y-49833880D01*
X39287819Y-49833880D02*
X39240200Y-49976737D01*
X39240200Y-49976737D02*
X39144961Y-50071975D01*
X39144961Y-50071975D02*
X39049723Y-50119594D01*
X39049723Y-50119594D02*
X38859247Y-50167213D01*
X38859247Y-50167213D02*
X38716390Y-50167213D01*
X38716390Y-50167213D02*
X38525914Y-50119594D01*
X38525914Y-50119594D02*
X38430676Y-50071975D01*
X38430676Y-50071975D02*
X38335438Y-49976737D01*
X38335438Y-49976737D02*
X38287819Y-49833880D01*
X38287819Y-49833880D02*
X38287819Y-49738642D01*
X38287819Y-49738642D02*
X38335438Y-49595785D01*
X38335438Y-49595785D02*
X38383057Y-49548166D01*
X38383057Y-49167213D02*
X38335438Y-49119594D01*
X38335438Y-49119594D02*
X38287819Y-49024356D01*
X38287819Y-49024356D02*
X38287819Y-48786261D01*
X38287819Y-48786261D02*
X38335438Y-48691023D01*
X38335438Y-48691023D02*
X38383057Y-48643404D01*
X38383057Y-48643404D02*
X38478295Y-48595785D01*
X38478295Y-48595785D02*
X38573533Y-48595785D01*
X38573533Y-48595785D02*
X38716390Y-48643404D01*
X38716390Y-48643404D02*
X39287819Y-49214832D01*
X39287819Y-49214832D02*
X39287819Y-48595785D01*
X65353774Y-45923884D02*
X65353774Y-46638169D01*
X65353774Y-46638169D02*
X65306155Y-46781026D01*
X65306155Y-46781026D02*
X65210917Y-46876265D01*
X65210917Y-46876265D02*
X65068060Y-46923884D01*
X65068060Y-46923884D02*
X64972822Y-46923884D01*
X66258536Y-46257217D02*
X66258536Y-46923884D01*
X66020441Y-45876265D02*
X65782346Y-46590550D01*
X65782346Y-46590550D02*
X66401393Y-46590550D01*
X42944819Y-44783333D02*
X43659104Y-44783333D01*
X43659104Y-44783333D02*
X43801961Y-44830952D01*
X43801961Y-44830952D02*
X43897200Y-44926190D01*
X43897200Y-44926190D02*
X43944819Y-45069047D01*
X43944819Y-45069047D02*
X43944819Y-45164285D01*
X43944819Y-43783333D02*
X43944819Y-44354761D01*
X43944819Y-44069047D02*
X42944819Y-44069047D01*
X42944819Y-44069047D02*
X43087676Y-44164285D01*
X43087676Y-44164285D02*
X43182914Y-44259523D01*
X43182914Y-44259523D02*
X43230533Y-44354761D01*
X49603819Y-41314666D02*
X49127628Y-41647999D01*
X49603819Y-41886094D02*
X48603819Y-41886094D01*
X48603819Y-41886094D02*
X48603819Y-41505142D01*
X48603819Y-41505142D02*
X48651438Y-41409904D01*
X48651438Y-41409904D02*
X48699057Y-41362285D01*
X48699057Y-41362285D02*
X48794295Y-41314666D01*
X48794295Y-41314666D02*
X48937152Y-41314666D01*
X48937152Y-41314666D02*
X49032390Y-41362285D01*
X49032390Y-41362285D02*
X49080009Y-41409904D01*
X49080009Y-41409904D02*
X49127628Y-41505142D01*
X49127628Y-41505142D02*
X49127628Y-41886094D01*
X48603819Y-40981332D02*
X48603819Y-40362285D01*
X48603819Y-40362285D02*
X48984771Y-40695618D01*
X48984771Y-40695618D02*
X48984771Y-40552761D01*
X48984771Y-40552761D02*
X49032390Y-40457523D01*
X49032390Y-40457523D02*
X49080009Y-40409904D01*
X49080009Y-40409904D02*
X49175247Y-40362285D01*
X49175247Y-40362285D02*
X49413342Y-40362285D01*
X49413342Y-40362285D02*
X49508580Y-40409904D01*
X49508580Y-40409904D02*
X49556200Y-40457523D01*
X49556200Y-40457523D02*
X49603819Y-40552761D01*
X49603819Y-40552761D02*
X49603819Y-40838475D01*
X49603819Y-40838475D02*
X49556200Y-40933713D01*
X49556200Y-40933713D02*
X49508580Y-40981332D01*
D11*
X41275095Y-35144419D02*
X41275095Y-35953942D01*
X41275095Y-35953942D02*
X41322714Y-36049180D01*
X41322714Y-36049180D02*
X41370333Y-36096800D01*
X41370333Y-36096800D02*
X41465571Y-36144419D01*
X41465571Y-36144419D02*
X41656047Y-36144419D01*
X41656047Y-36144419D02*
X41751285Y-36096800D01*
X41751285Y-36096800D02*
X41798904Y-36049180D01*
X41798904Y-36049180D02*
X41846523Y-35953942D01*
X41846523Y-35953942D02*
X41846523Y-35144419D01*
X42846523Y-36144419D02*
X42275095Y-36144419D01*
X42560809Y-36144419D02*
X42560809Y-35144419D01*
X42560809Y-35144419D02*
X42465571Y-35287276D01*
X42465571Y-35287276D02*
X42370333Y-35382514D01*
X42370333Y-35382514D02*
X42275095Y-35430133D01*
X39578646Y-26812419D02*
X40197693Y-26812419D01*
X40197693Y-26812419D02*
X39864360Y-27193371D01*
X39864360Y-27193371D02*
X40007217Y-27193371D01*
X40007217Y-27193371D02*
X40102455Y-27240990D01*
X40102455Y-27240990D02*
X40150074Y-27288609D01*
X40150074Y-27288609D02*
X40197693Y-27383847D01*
X40197693Y-27383847D02*
X40197693Y-27621942D01*
X40197693Y-27621942D02*
X40150074Y-27717180D01*
X40150074Y-27717180D02*
X40102455Y-27764800D01*
X40102455Y-27764800D02*
X40007217Y-27812419D01*
X40007217Y-27812419D02*
X39721503Y-27812419D01*
X39721503Y-27812419D02*
X39626265Y-27764800D01*
X39626265Y-27764800D02*
X39578646Y-27717180D01*
X40626265Y-27717180D02*
X40673884Y-27764800D01*
X40673884Y-27764800D02*
X40626265Y-27812419D01*
X40626265Y-27812419D02*
X40578646Y-27764800D01*
X40578646Y-27764800D02*
X40626265Y-27717180D01*
X40626265Y-27717180D02*
X40626265Y-27812419D01*
X41007217Y-26812419D02*
X41626264Y-26812419D01*
X41626264Y-26812419D02*
X41292931Y-27193371D01*
X41292931Y-27193371D02*
X41435788Y-27193371D01*
X41435788Y-27193371D02*
X41531026Y-27240990D01*
X41531026Y-27240990D02*
X41578645Y-27288609D01*
X41578645Y-27288609D02*
X41626264Y-27383847D01*
X41626264Y-27383847D02*
X41626264Y-27621942D01*
X41626264Y-27621942D02*
X41578645Y-27717180D01*
X41578645Y-27717180D02*
X41531026Y-27764800D01*
X41531026Y-27764800D02*
X41435788Y-27812419D01*
X41435788Y-27812419D02*
X41150074Y-27812419D01*
X41150074Y-27812419D02*
X41054836Y-27764800D01*
X41054836Y-27764800D02*
X41007217Y-27717180D01*
X41911979Y-26812419D02*
X42245312Y-27812419D01*
X42245312Y-27812419D02*
X42578645Y-26812419D01*
D10*
X55858580Y-32043666D02*
X55906200Y-32091285D01*
X55906200Y-32091285D02*
X55953819Y-32234142D01*
X55953819Y-32234142D02*
X55953819Y-32329380D01*
X55953819Y-32329380D02*
X55906200Y-32472237D01*
X55906200Y-32472237D02*
X55810961Y-32567475D01*
X55810961Y-32567475D02*
X55715723Y-32615094D01*
X55715723Y-32615094D02*
X55525247Y-32662713D01*
X55525247Y-32662713D02*
X55382390Y-32662713D01*
X55382390Y-32662713D02*
X55191914Y-32615094D01*
X55191914Y-32615094D02*
X55096676Y-32567475D01*
X55096676Y-32567475D02*
X55001438Y-32472237D01*
X55001438Y-32472237D02*
X54953819Y-32329380D01*
X54953819Y-32329380D02*
X54953819Y-32234142D01*
X54953819Y-32234142D02*
X55001438Y-32091285D01*
X55001438Y-32091285D02*
X55049057Y-32043666D01*
X55953819Y-31091285D02*
X55953819Y-31662713D01*
X55953819Y-31376999D02*
X54953819Y-31376999D01*
X54953819Y-31376999D02*
X55096676Y-31472237D01*
X55096676Y-31472237D02*
X55191914Y-31567475D01*
X55191914Y-31567475D02*
X55239533Y-31662713D01*
X51014333Y-28140819D02*
X50681000Y-27664628D01*
X50442905Y-28140819D02*
X50442905Y-27140819D01*
X50442905Y-27140819D02*
X50823857Y-27140819D01*
X50823857Y-27140819D02*
X50919095Y-27188438D01*
X50919095Y-27188438D02*
X50966714Y-27236057D01*
X50966714Y-27236057D02*
X51014333Y-27331295D01*
X51014333Y-27331295D02*
X51014333Y-27474152D01*
X51014333Y-27474152D02*
X50966714Y-27569390D01*
X50966714Y-27569390D02*
X50919095Y-27617009D01*
X50919095Y-27617009D02*
X50823857Y-27664628D01*
X50823857Y-27664628D02*
X50442905Y-27664628D01*
X51395286Y-27236057D02*
X51442905Y-27188438D01*
X51442905Y-27188438D02*
X51538143Y-27140819D01*
X51538143Y-27140819D02*
X51776238Y-27140819D01*
X51776238Y-27140819D02*
X51871476Y-27188438D01*
X51871476Y-27188438D02*
X51919095Y-27236057D01*
X51919095Y-27236057D02*
X51966714Y-27331295D01*
X51966714Y-27331295D02*
X51966714Y-27426533D01*
X51966714Y-27426533D02*
X51919095Y-27569390D01*
X51919095Y-27569390D02*
X51347667Y-28140819D01*
X51347667Y-28140819D02*
X51966714Y-28140819D01*
X47585333Y-47095580D02*
X47537714Y-47143200D01*
X47537714Y-47143200D02*
X47394857Y-47190819D01*
X47394857Y-47190819D02*
X47299619Y-47190819D01*
X47299619Y-47190819D02*
X47156762Y-47143200D01*
X47156762Y-47143200D02*
X47061524Y-47047961D01*
X47061524Y-47047961D02*
X47013905Y-46952723D01*
X47013905Y-46952723D02*
X46966286Y-46762247D01*
X46966286Y-46762247D02*
X46966286Y-46619390D01*
X46966286Y-46619390D02*
X47013905Y-46428914D01*
X47013905Y-46428914D02*
X47061524Y-46333676D01*
X47061524Y-46333676D02*
X47156762Y-46238438D01*
X47156762Y-46238438D02*
X47299619Y-46190819D01*
X47299619Y-46190819D02*
X47394857Y-46190819D01*
X47394857Y-46190819D02*
X47537714Y-46238438D01*
X47537714Y-46238438D02*
X47585333Y-46286057D01*
X48442476Y-46524152D02*
X48442476Y-47190819D01*
X48204381Y-46143200D02*
X47966286Y-46857485D01*
X47966286Y-46857485D02*
X48585333Y-46857485D01*
X59414580Y-60491666D02*
X59462200Y-60539285D01*
X59462200Y-60539285D02*
X59509819Y-60682142D01*
X59509819Y-60682142D02*
X59509819Y-60777380D01*
X59509819Y-60777380D02*
X59462200Y-60920237D01*
X59462200Y-60920237D02*
X59366961Y-61015475D01*
X59366961Y-61015475D02*
X59271723Y-61063094D01*
X59271723Y-61063094D02*
X59081247Y-61110713D01*
X59081247Y-61110713D02*
X58938390Y-61110713D01*
X58938390Y-61110713D02*
X58747914Y-61063094D01*
X58747914Y-61063094D02*
X58652676Y-61015475D01*
X58652676Y-61015475D02*
X58557438Y-60920237D01*
X58557438Y-60920237D02*
X58509819Y-60777380D01*
X58509819Y-60777380D02*
X58509819Y-60682142D01*
X58509819Y-60682142D02*
X58557438Y-60539285D01*
X58557438Y-60539285D02*
X58605057Y-60491666D01*
X58509819Y-60158332D02*
X58509819Y-59539285D01*
X58509819Y-59539285D02*
X58890771Y-59872618D01*
X58890771Y-59872618D02*
X58890771Y-59729761D01*
X58890771Y-59729761D02*
X58938390Y-59634523D01*
X58938390Y-59634523D02*
X58986009Y-59586904D01*
X58986009Y-59586904D02*
X59081247Y-59539285D01*
X59081247Y-59539285D02*
X59319342Y-59539285D01*
X59319342Y-59539285D02*
X59414580Y-59586904D01*
X59414580Y-59586904D02*
X59462200Y-59634523D01*
X59462200Y-59634523D02*
X59509819Y-59729761D01*
X59509819Y-59729761D02*
X59509819Y-60015475D01*
X59509819Y-60015475D02*
X59462200Y-60110713D01*
X59462200Y-60110713D02*
X59414580Y-60158332D01*
X55205333Y-41729819D02*
X54872000Y-41253628D01*
X54633905Y-41729819D02*
X54633905Y-40729819D01*
X54633905Y-40729819D02*
X55014857Y-40729819D01*
X55014857Y-40729819D02*
X55110095Y-40777438D01*
X55110095Y-40777438D02*
X55157714Y-40825057D01*
X55157714Y-40825057D02*
X55205333Y-40920295D01*
X55205333Y-40920295D02*
X55205333Y-41063152D01*
X55205333Y-41063152D02*
X55157714Y-41158390D01*
X55157714Y-41158390D02*
X55110095Y-41206009D01*
X55110095Y-41206009D02*
X55014857Y-41253628D01*
X55014857Y-41253628D02*
X54633905Y-41253628D01*
X56110095Y-40729819D02*
X55633905Y-40729819D01*
X55633905Y-40729819D02*
X55586286Y-41206009D01*
X55586286Y-41206009D02*
X55633905Y-41158390D01*
X55633905Y-41158390D02*
X55729143Y-41110771D01*
X55729143Y-41110771D02*
X55967238Y-41110771D01*
X55967238Y-41110771D02*
X56062476Y-41158390D01*
X56062476Y-41158390D02*
X56110095Y-41206009D01*
X56110095Y-41206009D02*
X56157714Y-41301247D01*
X56157714Y-41301247D02*
X56157714Y-41539342D01*
X56157714Y-41539342D02*
X56110095Y-41634580D01*
X56110095Y-41634580D02*
X56062476Y-41682200D01*
X56062476Y-41682200D02*
X55967238Y-41729819D01*
X55967238Y-41729819D02*
X55729143Y-41729819D01*
X55729143Y-41729819D02*
X55633905Y-41682200D01*
X55633905Y-41682200D02*
X55586286Y-41634580D01*
X46553333Y-45284819D02*
X46220000Y-44808628D01*
X45981905Y-45284819D02*
X45981905Y-44284819D01*
X45981905Y-44284819D02*
X46362857Y-44284819D01*
X46362857Y-44284819D02*
X46458095Y-44332438D01*
X46458095Y-44332438D02*
X46505714Y-44380057D01*
X46505714Y-44380057D02*
X46553333Y-44475295D01*
X46553333Y-44475295D02*
X46553333Y-44618152D01*
X46553333Y-44618152D02*
X46505714Y-44713390D01*
X46505714Y-44713390D02*
X46458095Y-44761009D01*
X46458095Y-44761009D02*
X46362857Y-44808628D01*
X46362857Y-44808628D02*
X45981905Y-44808628D01*
X47410476Y-44618152D02*
X47410476Y-45284819D01*
X47172381Y-44237200D02*
X46934286Y-44951485D01*
X46934286Y-44951485D02*
X47553333Y-44951485D01*
X45553333Y-47190819D02*
X45220000Y-46714628D01*
X44981905Y-47190819D02*
X44981905Y-46190819D01*
X44981905Y-46190819D02*
X45362857Y-46190819D01*
X45362857Y-46190819D02*
X45458095Y-46238438D01*
X45458095Y-46238438D02*
X45505714Y-46286057D01*
X45505714Y-46286057D02*
X45553333Y-46381295D01*
X45553333Y-46381295D02*
X45553333Y-46524152D01*
X45553333Y-46524152D02*
X45505714Y-46619390D01*
X45505714Y-46619390D02*
X45458095Y-46667009D01*
X45458095Y-46667009D02*
X45362857Y-46714628D01*
X45362857Y-46714628D02*
X44981905Y-46714628D01*
X45886667Y-46190819D02*
X46553333Y-46190819D01*
X46553333Y-46190819D02*
X46124762Y-47190819D01*
X68721408Y-26068723D02*
X68245217Y-26402056D01*
X68721408Y-26640151D02*
X67721408Y-26640151D01*
X67721408Y-26640151D02*
X67721408Y-26259199D01*
X67721408Y-26259199D02*
X67769027Y-26163961D01*
X67769027Y-26163961D02*
X67816646Y-26116342D01*
X67816646Y-26116342D02*
X67911884Y-26068723D01*
X67911884Y-26068723D02*
X68054741Y-26068723D01*
X68054741Y-26068723D02*
X68149979Y-26116342D01*
X68149979Y-26116342D02*
X68197598Y-26163961D01*
X68197598Y-26163961D02*
X68245217Y-26259199D01*
X68245217Y-26259199D02*
X68245217Y-26640151D01*
X67721408Y-25211580D02*
X67721408Y-25402056D01*
X67721408Y-25402056D02*
X67769027Y-25497294D01*
X67769027Y-25497294D02*
X67816646Y-25544913D01*
X67816646Y-25544913D02*
X67959503Y-25640151D01*
X67959503Y-25640151D02*
X68149979Y-25687770D01*
X68149979Y-25687770D02*
X68530931Y-25687770D01*
X68530931Y-25687770D02*
X68626169Y-25640151D01*
X68626169Y-25640151D02*
X68673789Y-25592532D01*
X68673789Y-25592532D02*
X68721408Y-25497294D01*
X68721408Y-25497294D02*
X68721408Y-25306818D01*
X68721408Y-25306818D02*
X68673789Y-25211580D01*
X68673789Y-25211580D02*
X68626169Y-25163961D01*
X68626169Y-25163961D02*
X68530931Y-25116342D01*
X68530931Y-25116342D02*
X68292836Y-25116342D01*
X68292836Y-25116342D02*
X68197598Y-25163961D01*
X68197598Y-25163961D02*
X68149979Y-25211580D01*
X68149979Y-25211580D02*
X68102360Y-25306818D01*
X68102360Y-25306818D02*
X68102360Y-25497294D01*
X68102360Y-25497294D02*
X68149979Y-25592532D01*
X68149979Y-25592532D02*
X68197598Y-25640151D01*
X68197598Y-25640151D02*
X68292836Y-25687770D01*
X61310887Y-24088921D02*
X61453744Y-24136540D01*
X61453744Y-24136540D02*
X61691839Y-24136540D01*
X61691839Y-24136540D02*
X61787077Y-24088921D01*
X61787077Y-24088921D02*
X61834696Y-24041301D01*
X61834696Y-24041301D02*
X61882315Y-23946063D01*
X61882315Y-23946063D02*
X61882315Y-23850825D01*
X61882315Y-23850825D02*
X61834696Y-23755587D01*
X61834696Y-23755587D02*
X61787077Y-23707968D01*
X61787077Y-23707968D02*
X61691839Y-23660349D01*
X61691839Y-23660349D02*
X61501363Y-23612730D01*
X61501363Y-23612730D02*
X61406125Y-23565111D01*
X61406125Y-23565111D02*
X61358506Y-23517492D01*
X61358506Y-23517492D02*
X61310887Y-23422254D01*
X61310887Y-23422254D02*
X61310887Y-23327016D01*
X61310887Y-23327016D02*
X61358506Y-23231778D01*
X61358506Y-23231778D02*
X61406125Y-23184159D01*
X61406125Y-23184159D02*
X61501363Y-23136540D01*
X61501363Y-23136540D02*
X61739458Y-23136540D01*
X61739458Y-23136540D02*
X61882315Y-23184159D01*
X62215649Y-23136540D02*
X62453744Y-24136540D01*
X62453744Y-24136540D02*
X62644220Y-23422254D01*
X62644220Y-23422254D02*
X62834696Y-24136540D01*
X62834696Y-24136540D02*
X63072792Y-23136540D01*
X63977553Y-24136540D02*
X63406125Y-24136540D01*
X63691839Y-24136540D02*
X63691839Y-23136540D01*
X63691839Y-23136540D02*
X63596601Y-23279397D01*
X63596601Y-23279397D02*
X63501363Y-23374635D01*
X63501363Y-23374635D02*
X63406125Y-23422254D01*
D12*
%TO.C,D1*%
X74000000Y-22920000D02*
X74000000Y-22920000D01*
X74000000Y-22920000D02*
X74000000Y-22790000D01*
X74000000Y-22790000D02*
X74000000Y-22920000D01*
X74000000Y-22790000D02*
X74000000Y-22790000D01*
X71460000Y-22920000D02*
X71460000Y-22920000D01*
X71460000Y-22920000D02*
X71460000Y-22790000D01*
X71460000Y-22790000D02*
X71460000Y-22920000D01*
X71460000Y-22790000D02*
X71460000Y-22790000D01*
%TO.C,U2*%
X58548000Y-44843000D02*
X58548000Y-42723000D01*
X59168000Y-44843000D02*
X58548000Y-44843000D01*
X58548000Y-30723000D02*
X58548000Y-28603000D01*
X58548000Y-28603000D02*
X59168000Y-28603000D01*
%TO.C,IC1*%
D13*
X55526220Y-63030000D02*
X35920000Y-63030000D01*
X35920000Y-61430910D01*
X55526220Y-61430910D01*
X55526220Y-63030000D01*
G36*
X55526220Y-63030000D02*
G01*
X35920000Y-63030000D01*
X35920000Y-61430910D01*
X55526220Y-61430910D01*
X55526220Y-63030000D01*
G37*
D14*
X36020000Y-58130000D02*
X36020000Y-61430000D01*
X37720000Y-58130000D02*
X36020000Y-58130000D01*
X55420000Y-58130000D02*
X53720000Y-58130000D01*
X55420000Y-58130000D02*
X55420000Y-61430000D01*
D12*
%TO.C,J5*%
X50740000Y-46250000D02*
X50740000Y-46450000D01*
X49890000Y-50560000D02*
X54790000Y-50560000D01*
X54790000Y-50560000D02*
X54790000Y-47060000D01*
X49280000Y-49060000D02*
X49890000Y-49060000D01*
X52440000Y-50060000D02*
X52440000Y-50560000D01*
X51840000Y-46450000D02*
X51840000Y-47060000D01*
X49890000Y-47060000D02*
X49890000Y-50560000D01*
X51040000Y-46450000D02*
X51040000Y-46250000D01*
X49280000Y-46450000D02*
X49280000Y-51170000D01*
X55400000Y-46450000D02*
X49280000Y-46450000D01*
X51840000Y-47060000D02*
X49890000Y-47060000D01*
X55400000Y-49060000D02*
X54790000Y-49060000D01*
X54790000Y-47060000D02*
X52840000Y-47060000D01*
X49280000Y-47760000D02*
X49890000Y-47760000D01*
X52340000Y-50560000D02*
X52340000Y-50060000D01*
X52240000Y-50060000D02*
X52440000Y-50060000D01*
X55400000Y-51170000D02*
X55400000Y-46450000D01*
X51040000Y-46350000D02*
X50740000Y-46350000D01*
X52840000Y-47060000D02*
X52840000Y-46450000D01*
X48980000Y-46150000D02*
X48980000Y-47400000D01*
X50230000Y-46150000D02*
X48980000Y-46150000D01*
X49280000Y-51170000D02*
X55400000Y-51170000D01*
X55400000Y-47760000D02*
X54790000Y-47760000D01*
X51040000Y-46250000D02*
X50740000Y-46250000D01*
X52240000Y-50560000D02*
X52240000Y-50060000D01*
%TO.C,SW2*%
X48590000Y-19300000D02*
X48590000Y-23200000D01*
X48590000Y-19300000D02*
X56310000Y-19300000D01*
X48590000Y-25800000D02*
X48590000Y-26310000D01*
X48590000Y-26310000D02*
X49110000Y-26310000D01*
X49110000Y-22970000D02*
X49110000Y-23200000D01*
X49110000Y-22970000D02*
X49650000Y-22970000D01*
X49110000Y-25800000D02*
X49110000Y-26310000D01*
X50750000Y-22970000D02*
X54150000Y-22970000D01*
X55250000Y-22970000D02*
X55790000Y-22970000D01*
X55790000Y-22970000D02*
X55790000Y-23200000D01*
X55790000Y-25800000D02*
X55790000Y-26310000D01*
X55790000Y-26310000D02*
X56310000Y-26310000D01*
X56310000Y-19300000D02*
X56310000Y-23200000D01*
X56310000Y-25800000D02*
X56310000Y-26310000D01*
%TO.C,R8*%
X43280000Y-49646064D02*
X43280000Y-49191936D01*
X41810000Y-49646064D02*
X41810000Y-49191936D01*
%TO.C,C5*%
X57885000Y-54581248D02*
X57885000Y-55103752D01*
X56415000Y-54581248D02*
X56415000Y-55103752D01*
%TO.C,J3*%
X65060000Y-51890000D02*
X65060000Y-47170000D01*
X65060000Y-49780000D02*
X64450000Y-49780000D01*
X65060000Y-48480000D02*
X64450000Y-48480000D01*
X65060000Y-47170000D02*
X56940000Y-47170000D01*
X64450000Y-51280000D02*
X64450000Y-47780000D01*
X64450000Y-47780000D02*
X62500000Y-47780000D01*
X62500000Y-47780000D02*
X62500000Y-47170000D01*
X62100000Y-50780000D02*
X62100000Y-51280000D01*
X62000000Y-51280000D02*
X62000000Y-50780000D01*
X61900000Y-51280000D02*
X61900000Y-50780000D01*
X61900000Y-50780000D02*
X62100000Y-50780000D01*
X60100000Y-50780000D02*
X60100000Y-51280000D01*
X60000000Y-51280000D02*
X60000000Y-50780000D01*
X59900000Y-51280000D02*
X59900000Y-50780000D01*
X59900000Y-50780000D02*
X60100000Y-50780000D01*
X59500000Y-47780000D02*
X57550000Y-47780000D01*
X59500000Y-47170000D02*
X59500000Y-47780000D01*
X58700000Y-47170000D02*
X58700000Y-46970000D01*
X58700000Y-47070000D02*
X58400000Y-47070000D01*
X58700000Y-46970000D02*
X58400000Y-46970000D01*
X58400000Y-46970000D02*
X58400000Y-47170000D01*
X57890000Y-46870000D02*
X56640000Y-46870000D01*
X57550000Y-51280000D02*
X64450000Y-51280000D01*
X57550000Y-47780000D02*
X57550000Y-51280000D01*
X56940000Y-51890000D02*
X65060000Y-51890000D01*
X56940000Y-49780000D02*
X57550000Y-49780000D01*
X56940000Y-48480000D02*
X57550000Y-48480000D01*
X56940000Y-47170000D02*
X56940000Y-51890000D01*
X56640000Y-46870000D02*
X56640000Y-48120000D01*
%TO.C,R1*%
X49757000Y-33644064D02*
X49757000Y-33189936D01*
X48287000Y-33644064D02*
X48287000Y-33189936D01*
%TO.C,J2*%
X53330000Y-31750000D02*
X53330000Y-44510000D01*
X50670000Y-44510000D02*
X53330000Y-44510000D01*
X50670000Y-31750000D02*
X53330000Y-31750000D01*
X50670000Y-31750000D02*
X50670000Y-44510000D01*
X50670000Y-30480000D02*
X50670000Y-29150000D01*
X50670000Y-29150000D02*
X52000000Y-29150000D01*
%TO.C,C2*%
X39778000Y-49642752D02*
X39778000Y-49120248D01*
X41248000Y-49642752D02*
X41248000Y-49120248D01*
%TO.C,J4*%
X75060000Y-51910000D02*
X75060000Y-47190000D01*
X75060000Y-49800000D02*
X74450000Y-49800000D01*
X75060000Y-48500000D02*
X74450000Y-48500000D01*
X75060000Y-47190000D02*
X66940000Y-47190000D01*
X74450000Y-51300000D02*
X74450000Y-47800000D01*
X74450000Y-47800000D02*
X72500000Y-47800000D01*
X72500000Y-47800000D02*
X72500000Y-47190000D01*
X72100000Y-50800000D02*
X72100000Y-51300000D01*
X72000000Y-51300000D02*
X72000000Y-50800000D01*
X71900000Y-51300000D02*
X71900000Y-50800000D01*
X71900000Y-50800000D02*
X72100000Y-50800000D01*
X70100000Y-50800000D02*
X70100000Y-51300000D01*
X70000000Y-51300000D02*
X70000000Y-50800000D01*
X69900000Y-51300000D02*
X69900000Y-50800000D01*
X69900000Y-50800000D02*
X70100000Y-50800000D01*
X69500000Y-47800000D02*
X67550000Y-47800000D01*
X69500000Y-47190000D02*
X69500000Y-47800000D01*
X68700000Y-47190000D02*
X68700000Y-46990000D01*
X68700000Y-47090000D02*
X68400000Y-47090000D01*
X68700000Y-46990000D02*
X68400000Y-46990000D01*
X68400000Y-46990000D02*
X68400000Y-47190000D01*
X67890000Y-46890000D02*
X66640000Y-46890000D01*
X67550000Y-51300000D02*
X74450000Y-51300000D01*
X67550000Y-47800000D02*
X67550000Y-51300000D01*
X66940000Y-51910000D02*
X75060000Y-51910000D01*
X66940000Y-49800000D02*
X67550000Y-49800000D01*
X66940000Y-48500000D02*
X67550000Y-48500000D01*
X66940000Y-47190000D02*
X66940000Y-51910000D01*
X66640000Y-46890000D02*
X66640000Y-48140000D01*
%TO.C,J1*%
X36380000Y-47100000D02*
X42400000Y-47100000D01*
X42400000Y-47100000D02*
X42400000Y-41800000D01*
X41800000Y-46520000D02*
X42400000Y-46520000D01*
X37380000Y-45720000D02*
X36380000Y-45720000D01*
X36380000Y-45470000D02*
X37380000Y-45470000D01*
X37910000Y-45470000D02*
X37380000Y-45720000D01*
X41800000Y-44920000D02*
X41800000Y-46520000D01*
X42400000Y-44920000D02*
X41800000Y-44920000D01*
X41800000Y-43980000D02*
X42400000Y-43980000D01*
X36380000Y-43430000D02*
X37380000Y-43430000D01*
X37910000Y-43430000D02*
X37910000Y-45470000D01*
X36380000Y-43180000D02*
X37380000Y-43180000D01*
X37380000Y-43180000D02*
X37380000Y-45720000D01*
X37380000Y-43180000D02*
X37910000Y-43430000D01*
X41800000Y-42380000D02*
X41800000Y-43980000D01*
X42400000Y-42380000D02*
X41800000Y-42380000D01*
X36380000Y-41800000D02*
X36380000Y-47100000D01*
X42400000Y-41800000D02*
X36380000Y-41800000D01*
X41370000Y-41510000D02*
X37370000Y-41510000D01*
%TO.C,R3*%
X48287000Y-38015936D02*
X48287000Y-38470064D01*
X49757000Y-38015936D02*
X49757000Y-38470064D01*
D15*
%TO.C,U1*%
X36410000Y-19600000D02*
X47410000Y-19600000D01*
X47410000Y-19600000D02*
X47410000Y-39600000D01*
X47410000Y-39600000D02*
X36410000Y-39600000D01*
X36410000Y-39600000D02*
X36410000Y-19600000D01*
D12*
%TO.C,C1*%
X54765000Y-29298752D02*
X54765000Y-28776248D01*
X56235000Y-29298752D02*
X56235000Y-28776248D01*
%TO.C,R2*%
X49735000Y-29437064D02*
X49735000Y-28982936D01*
X48265000Y-29437064D02*
X48265000Y-28982936D01*
%TO.C,C4*%
X46890000Y-49791252D02*
X46890000Y-49268748D01*
X48360000Y-49791252D02*
X48360000Y-49268748D01*
%TO.C,C3*%
X57885000Y-59661248D02*
X57885000Y-60183752D01*
X56415000Y-59661248D02*
X56415000Y-60183752D01*
%TO.C,R5*%
X54765000Y-44227064D02*
X54765000Y-43772936D01*
X56235000Y-44227064D02*
X56235000Y-43772936D01*
%TO.C,R4*%
X46947064Y-43915000D02*
X46492936Y-43915000D01*
X46947064Y-42445000D02*
X46492936Y-42445000D01*
%TO.C,R7*%
X46074000Y-49630064D02*
X46074000Y-49175936D01*
X44604000Y-49630064D02*
X44604000Y-49175936D01*
%TO.C,R6*%
X69735000Y-23227064D02*
X69735000Y-22772936D01*
X68265000Y-23227064D02*
X68265000Y-22772936D01*
%TO.C,SW1*%
X66504220Y-25801721D02*
X66504220Y-26311721D01*
X66504220Y-19301721D02*
X66504220Y-23201721D01*
X65984220Y-26311721D02*
X66504220Y-26311721D01*
X65984220Y-25801721D02*
X65984220Y-26311721D01*
X65984220Y-22971721D02*
X65984220Y-23201721D01*
X65444220Y-22971721D02*
X65984220Y-22971721D01*
X60944220Y-22971721D02*
X64344220Y-22971721D01*
X59304220Y-25801721D02*
X59304220Y-26311721D01*
X59304220Y-22971721D02*
X59844220Y-22971721D01*
X59304220Y-22971721D02*
X59304220Y-23201721D01*
X58784220Y-26311721D02*
X59304220Y-26311721D01*
X58784220Y-25801721D02*
X58784220Y-26311721D01*
X58784220Y-19301721D02*
X66504220Y-19301721D01*
X58784220Y-19301721D02*
X58784220Y-23201721D01*
%TD*%
M02*
